<svg width="41" height="41" viewBox="0 0 41 41" fill="none" xmlns="http://www.w3.org/2000/svg">
<path d="M19.5043 4.7746C19.6444 4.89216 19.7831 5.01042 19.9207 5.1309C20.3814 5.55274 20.3814 5.55274 20.932 5.81744C21.2299 5.74786 21.442 5.62179 21.6841 5.43507C21.7486 5.38586 21.8131 5.33666 21.8796 5.28597C22.0236 5.17273 22.1666 5.05876 22.3088 4.94325C22.9603 4.41612 23.5964 3.92371 24.4674 4.00986C25.1067 4.14796 25.5467 4.63096 25.9002 5.16702C26.114 5.54785 26.2927 5.94593 26.4696 6.34581C26.6642 6.82376 26.6642 6.82376 26.983 7.20789C27.4781 7.3012 27.9776 7.15054 28.4575 7.03408C30.1029 6.6624 30.1029 6.6624 30.7951 7.04168C31.2779 7.39747 31.5301 7.84723 31.6412 8.43602C31.6769 8.68683 31.6874 8.92965 31.6933 9.18303C31.6946 9.23099 31.6958 9.27896 31.6971 9.32838C31.7024 9.53183 31.7071 9.73529 31.7117 9.93876C31.7153 10.0881 31.7192 10.2373 31.7231 10.3866C31.7251 10.4754 31.7272 10.5641 31.7293 10.6555C31.7403 10.8585 31.7646 11.0428 31.8102 11.2402C32.2696 11.3874 32.7303 11.5094 33.1997 11.6182C34.1437 11.8464 34.926 12.0439 35.4901 12.9261C35.7431 14.0351 35.2819 14.9553 34.8041 15.9218C34.6509 16.2382 34.5415 16.5118 34.5297 16.8715C34.8338 17.3615 35.3365 17.6889 35.7819 18.0384C36.3096 18.453 36.7805 18.912 36.9773 19.5829C37.0601 20.2462 36.916 20.6989 36.5503 21.2416C36.2513 21.629 35.8576 21.9204 35.4816 22.2247C35.3453 22.3359 35.2093 22.4474 35.0736 22.5593C35.0133 22.6085 34.953 22.6577 34.8909 22.7084C34.6808 22.8949 34.6808 22.8949 34.5297 23.1285C34.5567 23.4687 34.6339 23.7346 34.778 24.041C34.832 24.1577 34.832 24.1577 34.8871 24.2767C34.9248 24.3567 34.9625 24.4366 35.0014 24.519C35.7299 26.0732 35.7299 26.0732 35.51 26.9756C35.3219 27.4199 34.966 27.7853 34.5364 27.9859C33.8933 28.2461 33.2167 28.4101 32.5424 28.561C32.2947 28.6188 32.0537 28.6862 31.8102 28.7598C31.7449 29.0422 31.7319 29.3089 31.7278 29.5987C31.7259 29.6952 31.724 29.7916 31.722 29.8881C31.7192 30.038 31.7167 30.1879 31.7149 30.3378C31.6923 32.062 31.6923 32.062 31.0918 32.696C30.6474 33.1209 30.1889 33.1736 29.5955 33.1677C29.1414 33.1378 28.6963 33.0227 28.2546 32.9158C27.6239 32.7619 27.6239 32.7619 26.983 32.7921C26.6121 33.1353 26.4429 33.703 26.2371 34.1608C25.9046 34.8917 25.4559 35.6304 24.7011 35.9554C23.9437 36.068 23.3923 35.8949 22.7762 35.4253C22.6731 35.3424 22.57 35.2594 22.4679 35.1753C22.3157 35.0501 22.162 34.927 22.0078 34.8045C21.8983 34.7174 21.7893 34.6295 21.6804 34.5416C21.4772 34.3921 21.3037 34.27 21.068 34.1826C20.7676 34.2422 20.5578 34.3783 20.3159 34.5649C20.2514 34.6141 20.1869 34.6633 20.1204 34.714C19.9764 34.8273 19.8334 34.9412 19.6912 35.0567C19.0397 35.5839 18.4036 36.0763 17.5326 35.9901C16.8933 35.852 16.4533 35.369 16.0998 34.833C15.886 34.4521 15.7073 34.0541 15.5304 33.6542C15.3358 33.1762 15.3358 33.1762 15.017 32.7921C14.5209 32.6985 14.0191 32.8496 13.5383 32.9659C11.8734 33.3425 11.8734 33.3425 11.2097 32.9312C10.758 32.6244 10.5363 32.282 10.3938 31.7493C10.3342 31.4366 10.3141 31.1352 10.3067 30.817C10.3054 30.769 10.3042 30.721 10.3029 30.6716C10.2976 30.4682 10.2929 30.2647 10.2883 30.0612C10.2847 29.9119 10.2808 29.7627 10.2769 29.6134C10.2749 29.5246 10.2728 29.4359 10.2707 29.3445C10.2597 29.1415 10.2354 28.9572 10.1898 28.7598C9.79082 28.6316 9.39212 28.5199 8.98387 28.427C8.08673 28.2224 7.21924 28.0232 6.62892 27.2463C6.38335 26.8322 6.39266 26.378 6.45045 25.9094C6.60651 25.2649 6.90427 24.6681 7.19592 24.0782C7.34912 23.7618 7.45845 23.4882 7.47028 23.1285C7.16618 22.6385 6.66346 22.3111 6.2181 21.9616C5.69039 21.547 5.21951 21.088 5.0227 20.4171C4.93988 19.7538 5.08405 19.3011 5.44975 18.7584C5.74868 18.371 6.14236 18.0796 6.51844 17.7753C6.65471 17.6641 6.7907 17.5526 6.92637 17.4407C7.01682 17.3669 7.01682 17.3669 7.10909 17.2916C7.31923 17.1051 7.31923 17.1051 7.47028 16.8715C7.44329 16.5313 7.36605 16.2654 7.22196 15.959C7.18599 15.8812 7.15001 15.8034 7.11294 15.7233C7.07521 15.6433 7.03748 15.5634 6.99861 15.481C6.27015 13.9268 6.27015 13.9268 6.49003 13.0244C6.69161 12.5481 7.08585 12.1978 7.53562 11.9745C8.13588 11.7412 8.76337 11.6012 9.38857 11.4566C9.65888 11.3938 9.92419 11.3211 10.1898 11.2402C10.2551 10.9578 10.2681 10.6911 10.2722 10.4013C10.2741 10.3048 10.276 10.2084 10.278 10.1119C10.2808 9.96202 10.2833 9.81213 10.2851 9.6622C10.3078 7.92643 10.3078 7.92643 10.9106 7.30402C11.3579 6.88286 11.7903 6.82686 12.387 6.8323C12.8488 6.86072 13.2999 6.97514 13.7488 7.0842C14.3778 7.2381 14.3778 7.2381 15.017 7.20789C15.3879 6.86473 15.5572 6.29702 15.7629 5.8392C16.0954 5.10833 16.5441 4.36961 17.2989 4.04462C18.1778 3.91388 18.7981 4.25373 19.5043 4.7746ZM17.6686 5.60887C17.3411 6.14491 17.0663 6.69582 16.8065 7.26885C16.5381 7.83728 16.1738 8.43717 15.5811 8.69202C14.6093 8.97425 13.5944 8.65576 12.6409 8.42806C12.4272 8.38861 12.2419 8.36793 12.0255 8.38977C11.7939 8.74497 11.8134 9.1471 11.8072 9.56431C11.8053 9.65371 11.8034 9.7431 11.8014 9.83521C11.7977 10.0208 11.7948 10.2063 11.7923 10.3919C11.7758 11.0954 11.7179 11.7401 11.2668 12.3007C10.7206 12.8307 9.8783 12.9531 9.17132 13.1349C9.08442 13.1576 9.08442 13.1576 8.99576 13.1807C8.88168 13.2103 8.76745 13.2393 8.65306 13.2676C8.37649 13.3391 8.1605 13.3996 7.9462 13.6039C7.98483 13.914 8.06284 14.1587 8.19452 14.4401C8.2305 14.5181 8.26647 14.5961 8.30354 14.6765C8.34127 14.757 8.379 14.8376 8.41787 14.9205C9.17491 16.5421 9.17491 16.5421 8.91132 17.4842C8.58792 18.214 7.94506 18.6768 7.3367 19.1456C6.81461 19.517 6.81461 19.517 6.51844 20.0695C6.75717 20.3823 7.00341 20.6188 7.31306 20.856C8.72361 21.9677 8.72361 21.9677 8.96603 22.7114C9.06512 23.7724 8.67188 24.5993 8.22056 25.5221C8.07943 25.8147 7.97721 26.0663 7.9462 26.3961C8.20118 26.6392 8.49253 26.6927 8.82155 26.7741C8.93816 26.8043 9.05475 26.8347 9.17132 26.8651C9.25751 26.8872 9.25751 26.8872 9.34545 26.9098C11.0777 27.3563 11.0777 27.3563 11.4624 27.974C11.7933 28.5815 11.7876 29.2429 11.7961 29.92C11.7986 30.064 11.8013 30.2081 11.8044 30.3521C11.807 30.4822 11.809 30.6124 11.8108 30.7425C11.8104 31.219 11.8104 31.219 12.0255 31.6102C12.4769 31.6377 12.9282 31.5074 13.364 31.4017C14.1335 31.2184 15.0291 31.0106 15.7649 31.4017C16.4478 31.855 16.7591 32.6505 17.1034 33.3744C17.1672 33.5083 17.2311 33.6421 17.2954 33.7757C17.3231 33.8339 17.3508 33.8921 17.3793 33.9521C17.4637 34.1113 17.5587 34.2494 17.6686 34.3911C18.0266 34.3601 18.2086 34.2437 18.4844 34.0131C18.562 33.9499 18.6396 33.8868 18.7173 33.8238C18.7771 33.775 18.7771 33.775 18.8381 33.7252C20.2524 32.5821 20.2524 32.5821 21.1995 32.6229C21.9188 32.7269 22.4506 33.1484 22.9972 33.6039C23.178 33.7545 23.361 33.9018 23.5453 34.0479C23.6083 34.0989 23.6713 34.1498 23.7363 34.2024C23.9401 34.3321 24.0943 34.3679 24.3314 34.3911C24.6246 33.8808 24.903 33.3682 25.1558 32.8356C25.4529 32.216 25.779 31.6349 26.4051 31.3148C27.0856 31.106 27.6858 31.2117 28.364 31.3626C28.901 31.4813 29.4257 31.5734 29.9745 31.6102C30.2061 31.255 30.1866 30.8529 30.1928 30.4357C30.1947 30.3463 30.1967 30.2569 30.1986 30.1648C30.2023 29.9792 30.2052 29.7937 30.2077 29.6081C30.224 28.9129 30.2796 28.2585 30.725 27.7029C31.246 27.2147 31.9827 27.0574 32.6515 26.9044C32.8179 26.8655 32.9841 26.8262 33.1503 26.7863C33.2227 26.7697 33.2951 26.753 33.3698 26.7359C33.5962 26.6687 33.785 26.5924 33.9858 26.4656C34.0655 26.302 34.0649 26.2279 34.017 26.0532C33.996 26.0071 33.975 25.961 33.9534 25.9135C33.9304 25.8618 33.9073 25.8101 33.8836 25.7569C33.8584 25.7025 33.8333 25.6482 33.8073 25.5922C33.7823 25.5363 33.7572 25.4804 33.7314 25.4228C33.6583 25.2602 33.5843 25.0981 33.5099 24.9361C33.1519 24.1514 32.8423 23.3963 33.0887 22.5158C33.4106 21.7894 34.0501 21.3238 34.658 20.8593C35.1316 20.5205 35.1316 20.5205 35.4816 20.0695C35.3994 19.7118 35.1697 19.5398 34.9037 19.3178C34.861 19.2812 34.8183 19.2446 34.7743 19.2069C34.528 18.9969 34.2772 18.7936 34.0241 18.5922C33.6097 18.2556 33.1436 17.8422 33.034 17.2886C32.9313 16.2374 33.3033 15.4514 33.7518 14.5345C33.9019 14.2238 34.0249 13.9549 34.0538 13.6039C33.8006 13.3638 33.5173 13.3105 33.1912 13.2303C33.0749 13.2 32.9587 13.1697 32.8425 13.1393C32.7838 13.1241 32.725 13.1088 32.6645 13.0931C30.8871 12.6307 30.8871 12.6307 30.4485 11.8882C30.214 11.316 30.2219 10.744 30.2124 10.1322C30.2627 9.21186 30.2627 9.21186 29.9745 8.38977C29.5162 8.38487 29.0745 8.49083 28.6317 8.59833C26.9469 9.00044 26.9469 9.00044 26.2277 8.58503C25.5939 8.13796 25.2907 7.46583 24.9646 6.77337C24.8881 6.61211 24.8113 6.45098 24.7343 6.28997C24.701 6.21924 24.6676 6.14851 24.6332 6.07563C24.5447 5.90495 24.4496 5.75908 24.3314 5.60887C23.9929 5.64201 23.8105 5.73752 23.5453 5.95214C23.439 6.03642 23.439 6.03642 23.3305 6.12241C23.1816 6.24303 23.0342 6.36525 22.8869 6.48795C22.2569 7.0078 21.6372 7.42428 20.7958 7.37952C20.0787 7.26481 19.5499 6.85205 19.0028 6.39606C18.822 6.24549 18.639 6.09823 18.4547 5.95214C18.3917 5.90114 18.3287 5.85015 18.2637 5.79761C18.0599 5.66785 17.9057 5.63209 17.6686 5.60887Z" fill="#1E3722"/>
<path d="M27.1439 15.0115C27.463 15.1483 27.6508 15.2531 27.7845 15.5213C27.8334 15.7879 27.7785 16.0147 27.5768 16.2329C27.4932 16.3041 27.4932 16.3041 27.408 16.3766C27.3425 16.4324 27.277 16.4883 27.2095 16.5458C26.7673 16.9124 26.317 17.2726 25.8657 17.632C25.7543 17.721 25.6429 17.8099 25.5316 17.8988C25.2314 18.1386 24.9309 18.3781 24.6303 18.6176C24.4423 18.7674 24.2544 18.9172 24.0664 19.0671C23.4778 19.5364 22.889 20.0055 22.2999 20.4745C21.621 21.0151 20.9426 21.5561 20.2646 22.0974C19.7394 22.5168 19.2137 22.9357 18.6877 23.3544C18.3739 23.6042 18.0603 23.8541 17.7473 24.1044C17.4532 24.3394 17.1587 24.574 16.8637 24.8082C16.7556 24.8941 16.6477 24.9803 16.54 25.0666C16.393 25.1844 16.2452 25.3016 16.0972 25.4187C16.0549 25.4529 16.0125 25.4871 15.9689 25.5224C15.6484 25.774 15.3426 25.9477 14.8919 26C14.5807 25.9639 14.4132 25.8748 14.1712 25.7172C13.9935 25.4878 13.9724 25.3162 14.0256 25.0533C14.1043 24.8557 14.2099 24.7583 14.3875 24.607C14.453 24.5512 14.5185 24.4954 14.586 24.4379C15.0282 24.0712 15.4785 23.7111 15.9298 23.3516C16.0412 23.2627 16.1526 23.1737 16.2639 23.0848C16.5641 22.845 16.8646 22.6055 17.1652 22.366C17.3532 22.2162 17.5411 22.0664 17.7291 21.9166C18.3177 21.4473 18.9066 20.9781 19.4956 20.5091C20.1745 19.9685 20.8529 19.4275 21.5309 18.8862C22.0561 18.4669 22.5818 18.0479 23.1078 17.6292C23.4216 17.3794 23.7352 17.1295 24.0483 16.8792C24.3423 16.6442 24.6368 16.4097 24.9319 16.1755C25.0399 16.0895 25.1478 16.0034 25.2555 15.9171C25.4025 15.7992 25.5503 15.682 25.6983 15.5649C25.7406 15.5307 25.783 15.4965 25.8266 15.4612C26.2105 15.1598 26.5899 14.9472 27.1439 15.0115Z" fill="#1E3722"/>
<path d="M18.853 14.583C19.4154 15.0419 19.8955 15.6283 20.0292 16.3597C20.0941 17.374 20.0445 18.2726 19.3745 19.0946C18.6953 19.7825 17.9783 20.0627 17.0312 20.0784C16.1054 20.072 15.4346 19.7533 14.769 19.1124C14.1381 18.431 13.983 17.6554 14.0014 16.7517C14.0548 15.992 14.3715 15.377 14.9042 14.8382C16.0531 13.8606 17.5839 13.6898 18.853 14.583ZM15.9902 16.3347C15.7893 16.7607 15.7222 17.1283 15.8701 17.5809C16.0842 17.8848 16.3294 18.1133 16.6659 18.2816C17.0968 18.3351 17.4595 18.3105 17.8264 18.0673C18.0875 17.838 18.2366 17.5823 18.295 17.239C18.3124 16.8599 18.2357 16.5923 18.0272 16.2797C17.7147 15.9448 17.4713 15.8099 17.0109 15.7835C16.5734 15.8206 16.28 16.0153 15.9902 16.3347Z" fill="#1E3722"/>
<path d="M26.8479 21.5907C27.4522 22.0781 27.8812 22.6721 28.029 23.4475C28.1023 24.4579 27.9805 25.2888 27.3118 26.0844C26.6439 26.7612 25.9322 27.0532 24.9911 27.086C24.0939 27.0636 23.4033 26.7426 22.7692 26.1173C22.0655 25.3469 21.9649 24.544 22.0088 23.5348C22.0715 22.8034 22.455 22.1583 23.0076 21.6905C24.1698 20.8274 25.6468 20.7502 26.8479 21.5907ZM23.9995 23.2479C23.7575 23.6117 23.7076 23.9809 23.7849 24.4084C23.9622 24.7566 24.1698 25.0078 24.5056 25.2092C24.8873 25.3226 25.2055 25.3274 25.5716 25.1642C25.8722 24.9881 26.0364 24.8082 26.1872 24.4885C26.2792 24.1326 26.2972 23.8591 26.1822 23.5076C25.9682 23.2037 25.723 22.9751 25.3864 22.8069C24.8302 22.7378 24.3792 22.8143 23.9995 23.2479Z" fill="#1E3722"/>
</svg>
