<svg width="41" height="41" viewBox="0 0 41 41" fill="none" xmlns="http://www.w3.org/2000/svg">
<path d="M18.7383 2.96253C18.9033 3.09793 19.0667 3.23415 19.2288 3.37293C19.7714 3.85881 19.7714 3.85881 20.4199 4.1637C20.7708 4.08356 21.0206 3.93835 21.3058 3.72327C21.3818 3.6666 21.4577 3.60993 21.536 3.55154C21.7056 3.4211 21.874 3.28983 22.0415 3.15678C22.8089 2.54961 23.5581 1.98244 24.584 2.08167C25.337 2.24073 25.8551 2.79708 26.2716 3.41453C26.5233 3.85318 26.7338 4.3117 26.9422 4.7723C27.1714 5.32281 27.1714 5.32281 27.5469 5.76526C28.1301 5.87275 28.7184 5.69921 29.2836 5.56506C31.2216 5.13695 31.2216 5.13695 32.0369 5.57382C32.6055 5.98363 32.9025 6.50168 33.0334 7.17986C33.0754 7.46876 33.0879 7.74844 33.0948 8.04029C33.0963 8.09554 33.0977 8.15079 33.0993 8.20771C33.1055 8.44205 33.111 8.67641 33.1165 8.91077C33.1206 9.08274 33.1252 9.25469 33.1298 9.42664C33.1322 9.52884 33.1347 9.63104 33.1372 9.73634C33.1502 9.97019 33.1788 10.1824 33.2324 10.4098C33.7736 10.5794 34.3161 10.7199 34.869 10.8452C35.9809 11.1081 36.9023 11.3356 37.5666 12.3517C37.8647 13.6291 37.3215 14.6889 36.7587 15.8023C36.5782 16.1667 36.4495 16.4818 36.4355 16.8961C36.7937 17.4605 37.3858 17.8377 37.9104 18.2402C38.5319 18.7177 39.0865 19.2465 39.3184 20.0192C39.4159 20.7832 39.2461 21.3047 38.8154 21.9298C38.4633 22.376 37.9996 22.7116 37.5566 23.0621C37.3961 23.1902 37.236 23.3186 37.0762 23.4475C37.0051 23.5042 36.9341 23.5609 36.861 23.6192C36.6135 23.834 36.6135 23.834 36.4355 24.1031C36.4673 24.495 36.5583 24.8013 36.728 25.1542C36.7916 25.2886 36.7916 25.2886 36.8564 25.4257C36.9009 25.5178 36.9453 25.6098 36.9911 25.7047C37.8491 27.495 37.8491 27.495 37.5901 28.5343C37.3686 29.0461 36.9494 29.467 36.4434 29.6981C35.686 29.9977 34.889 30.1867 34.0948 30.3605C33.8031 30.427 33.5192 30.5047 33.2324 30.5895C33.1555 30.9147 33.1402 31.222 33.1354 31.5557C33.1332 31.6668 33.1309 31.7779 33.1286 31.889C33.1253 32.0617 33.1223 32.2344 33.1202 32.407C33.0936 34.393 33.0936 34.393 32.3863 35.1233C31.8629 35.6127 31.3228 35.6734 30.6239 35.6666C30.0891 35.6322 29.5648 35.4996 29.0446 35.3765C28.3017 35.1992 28.3017 35.1992 27.5469 35.234C27.11 35.6293 26.9107 36.2832 26.6683 36.8105C26.2767 37.6523 25.7483 38.5032 24.8592 38.8776C23.9672 39.0073 23.3177 38.8079 22.592 38.267C22.4706 38.1715 22.3492 38.0759 22.2289 37.979C22.0497 37.8348 21.8687 37.6931 21.6871 37.5519C21.558 37.4516 21.4297 37.3504 21.3014 37.2491C21.062 37.0769 20.8577 36.9363 20.5801 36.8356C20.2262 36.9043 19.9792 37.0611 19.6942 37.276C19.6182 37.3327 19.5423 37.3893 19.464 37.4477C19.2944 37.5782 19.126 37.7094 18.9585 37.8425C18.1911 38.4497 17.4419 39.0168 16.416 38.9176C15.663 38.7585 15.1448 38.2022 14.7284 37.5847C14.4767 37.1461 14.2662 36.6876 14.0578 36.227C13.8286 35.6765 13.8286 35.6765 13.4531 35.234C12.8688 35.1262 12.2778 35.3002 11.7114 35.4342C9.75051 35.868 9.75051 35.868 8.96875 35.3942C8.43678 35.0408 8.17567 34.6464 8.00781 34.0328C7.93757 33.6727 7.9139 33.3256 7.90521 32.959C7.90374 32.9037 7.90226 32.8485 7.90074 32.7916C7.8945 32.5572 7.88903 32.3229 7.88351 32.0885C7.87934 31.9165 7.87477 31.7446 7.87018 31.5726C7.86775 31.4704 7.86532 31.3682 7.86282 31.2629C7.84983 31.0291 7.82122 30.8169 7.76758 30.5895C7.29763 30.4418 6.82803 30.3131 6.34719 30.2062C5.29051 29.9704 4.26877 29.741 3.57348 28.8462C3.28424 28.3692 3.2952 27.846 3.36328 27.3063C3.54709 26.564 3.89779 25.8766 4.2413 25.197C4.42175 24.8326 4.55052 24.5175 4.56445 24.1031C4.20628 23.5388 3.61415 23.1616 3.08961 22.7591C2.46806 22.2816 1.91345 21.7528 1.68164 20.9801C1.5841 20.216 1.7539 19.6946 2.18463 19.0695C2.53671 18.6232 3.0004 18.2876 3.44336 17.9371C3.60386 17.8091 3.76402 17.6807 3.92383 17.5518C4.03035 17.4668 4.03035 17.4668 4.13904 17.38C4.38654 17.1652 4.38654 17.1652 4.56445 16.8961C4.53266 16.5043 4.44169 16.198 4.27198 15.8451C4.2296 15.7555 4.18723 15.6659 4.14357 15.5736C4.09913 15.4815 4.05469 15.3894 4.00891 15.2946C3.15091 13.5043 3.15091 13.5043 3.40989 12.4649C3.64732 11.9163 4.11166 11.5128 4.6414 11.2556C5.3484 10.9869 6.08747 10.8257 6.82384 10.6591C7.14222 10.5867 7.4547 10.503 7.76758 10.4098C7.84449 10.0846 7.85981 9.7773 7.86455 9.44353C7.8668 9.33244 7.86909 9.22134 7.87143 9.11024C7.8747 8.93757 7.87766 8.76491 7.87979 8.59222C7.90654 6.59291 7.90654 6.59291 8.61653 5.87599C9.14341 5.39089 9.6526 5.32638 10.3554 5.33265C10.8993 5.36538 11.4306 5.49717 11.9594 5.6228C12.7003 5.80006 12.7003 5.80006 13.4531 5.76526C13.89 5.37 14.0893 4.71609 14.3317 4.18876C14.7232 3.34692 15.2517 2.49604 16.1407 2.12171C17.176 1.97112 17.9065 2.36257 18.7383 2.96253ZM16.5762 3.92346C16.1905 4.54089 15.8668 5.17545 15.5608 5.83548C15.2447 6.49021 14.8156 7.18119 14.1175 7.47474C12.9729 7.79981 11.7775 7.43296 10.6545 7.17069C10.4028 7.12526 10.1845 7.10143 9.92968 7.12659C9.65693 7.53572 9.67986 7.99891 9.67256 8.47947C9.67029 8.58244 9.66802 8.6854 9.66568 8.79149C9.6613 9.00525 9.65797 9.21896 9.65504 9.43274C9.6356 10.243 9.56737 10.9856 9.036 11.6313C8.39269 12.2418 7.40066 12.3828 6.56797 12.5922C6.46561 12.6183 6.46561 12.6183 6.36118 12.6449C6.22682 12.679 6.09228 12.7124 5.95755 12.745C5.6318 12.8273 5.3774 12.8971 5.125 13.1324C5.17049 13.4895 5.26238 13.7714 5.41747 14.0956C5.45984 14.1854 5.50222 14.2753 5.54588 14.3679C5.59032 14.4606 5.63475 14.5534 5.68054 14.6489C6.57219 16.5167 6.57219 16.5167 6.26173 17.6018C5.88082 18.4424 5.12365 18.9755 4.40711 19.5155C3.79219 19.9433 3.79219 19.9433 3.44336 20.5797C3.72454 20.94 4.01456 21.2124 4.37927 21.4856C6.04064 22.7661 6.04064 22.7661 6.32617 23.6227C6.44288 24.8448 5.97971 25.7973 5.44814 26.8601C5.28191 27.1972 5.16152 27.487 5.125 27.8668C5.42532 28.1468 5.76847 28.2085 6.156 28.3022C6.29334 28.3371 6.43066 28.372 6.56797 28.407C6.66948 28.4326 6.66948 28.4326 6.77305 28.4586C8.81332 28.9729 8.81332 28.9729 9.26642 29.6844C9.65613 30.384 9.6495 31.1459 9.65942 31.9258C9.66237 32.0917 9.66564 32.2576 9.66924 32.4235C9.67237 32.5734 9.67462 32.7233 9.67682 32.8732C9.67633 33.4221 9.67633 33.4221 9.92968 33.8727C10.4613 33.9043 10.9929 33.7543 11.5062 33.6324C12.4125 33.4214 13.4674 33.182 14.334 33.6324C15.1383 34.1547 15.505 35.0709 15.9105 35.9047C15.9856 36.0589 16.061 36.213 16.1367 36.367C16.1693 36.434 16.2019 36.501 16.2354 36.5701C16.3348 36.7535 16.4468 36.9125 16.5762 37.0758C16.9979 37.04 17.2122 36.906 17.5371 36.6404C17.6284 36.5676 17.7199 36.4949 17.8114 36.4224C17.8818 36.3661 17.8818 36.3661 17.9536 36.3088C19.6195 34.9921 19.6195 34.9921 20.7349 35.0391C21.5821 35.1589 22.2086 35.6443 22.8523 36.1691C23.0653 36.3425 23.2808 36.5121 23.4979 36.6804C23.5721 36.7392 23.6464 36.7979 23.7228 36.8584C23.9629 37.0079 24.1445 37.0491 24.4238 37.0758C24.7692 36.488 25.097 35.8975 25.3948 35.2841C25.7448 34.5705 26.1288 33.901 26.8662 33.5323C27.6677 33.2919 28.3746 33.4137 29.1735 33.5874C29.806 33.7242 30.424 33.8303 31.0703 33.8727C31.3431 33.4635 31.3201 33.0004 31.3274 32.5198C31.3297 32.4168 31.332 32.3139 31.3343 32.2078C31.3387 31.994 31.342 31.7803 31.345 31.5665C31.3642 30.7658 31.4296 30.012 31.9542 29.3721C32.568 28.8098 33.4356 28.6285 34.2234 28.4524C34.4193 28.4076 34.6151 28.3622 34.8108 28.3163C34.8961 28.2972 34.9814 28.278 35.0693 28.2582C35.336 28.1809 35.5584 28.093 35.7949 27.9469C35.8888 27.7585 35.888 27.6731 35.8316 27.4719C35.8069 27.4188 35.7822 27.3657 35.7568 27.311C35.7296 27.2514 35.7025 27.1919 35.6745 27.1306C35.6449 27.068 35.6152 27.0054 35.5847 26.9409C35.5552 26.8765 35.5256 26.8121 35.4952 26.7458C35.4092 26.5585 35.322 26.3718 35.2344 26.1852C34.8127 25.2814 34.4481 24.4116 34.7383 23.3975C35.1174 22.5607 35.8706 22.0244 36.5866 21.4893C37.1445 21.0991 37.1445 21.0991 37.5566 20.5797C37.4599 20.1677 37.1893 19.9696 36.876 19.7139C36.8257 19.6717 36.7754 19.6296 36.7236 19.5862C36.4336 19.3442 36.1381 19.11 35.84 18.8781C35.3519 18.4903 34.803 18.0142 34.6738 17.3766C34.5529 16.1657 34.9911 15.2604 35.5193 14.2043C35.6961 13.8464 35.841 13.5366 35.875 13.1324C35.5768 12.8558 35.2431 12.7945 34.859 12.702C34.7221 12.6672 34.5852 12.6323 34.4483 12.5972C34.3791 12.5797 34.3099 12.5622 34.2387 12.5441C32.1452 12.0115 32.1452 12.0115 31.6287 11.1561C31.3524 10.4971 31.3617 9.83823 31.3506 9.13354C31.4098 8.07351 31.4098 8.07351 31.0703 7.12659C30.5305 7.12095 30.0103 7.243 29.4888 7.36682C27.5044 7.82998 27.5044 7.82998 26.6573 7.35149C25.9108 6.83655 25.5537 6.06237 25.1696 5.26477C25.0794 5.07903 24.9891 4.89343 24.8983 4.70798C24.8591 4.62651 24.8198 4.54504 24.7793 4.4611C24.675 4.2645 24.563 4.09648 24.4238 3.92346C24.0251 3.96163 23.8103 4.07165 23.4979 4.31885C23.3727 4.41593 23.3727 4.41593 23.2449 4.51498C23.0696 4.65391 22.8959 4.79469 22.7225 4.93601C21.9804 5.53479 21.2505 6.0145 20.2594 5.96295C19.4149 5.83082 18.792 5.3554 18.1477 4.83017C17.9347 4.65674 17.7192 4.48712 17.5021 4.31885C17.4279 4.26011 17.3536 4.20138 17.2772 4.14086C17.0371 3.9914 16.8555 3.9502 16.5762 3.92346Z" fill="#1E3722"/>
<path d="M26.7461 13.6082C27.0653 13.7801 27.253 13.9119 27.3867 14.2488C27.4356 14.5839 27.3807 14.8688 27.179 15.1431C27.0955 15.2325 27.0955 15.2325 27.0102 15.3236C26.9447 15.3938 26.8792 15.4639 26.8118 15.5362C26.3695 15.9969 25.9193 16.4495 25.4679 16.9013C25.3565 17.013 25.2452 17.1248 25.1339 17.2365C24.8336 17.5378 24.5331 17.8388 24.2325 18.1398C24.0446 18.328 23.8566 18.5162 23.6687 18.7045C23.08 19.2943 22.4912 19.8839 21.9022 20.4732C21.2232 21.1525 20.5448 21.8323 19.8669 22.5126C19.3417 23.0396 18.816 23.566 18.2899 24.0922C17.9762 24.406 17.6626 24.7201 17.3495 25.0346C17.0555 25.3299 16.7609 25.6247 16.4659 25.919C16.3578 26.027 16.2499 26.1353 16.1423 26.2437C15.9952 26.3918 15.8474 26.5391 15.6995 26.6862C15.6571 26.7292 15.6148 26.7722 15.5711 26.8165C15.2507 27.1327 14.9449 27.351 14.4941 27.4167C14.183 27.3713 14.0154 27.2593 13.7734 27.0613C13.5958 26.773 13.5747 26.5574 13.6278 26.227C13.7066 25.9787 13.8121 25.8563 13.9898 25.6662C14.0553 25.5961 14.1208 25.5259 14.1883 25.4536C14.6305 24.9929 15.0807 24.5403 15.5321 24.0886C15.6435 23.9769 15.7548 23.8651 15.8662 23.7533C16.1664 23.4521 16.4669 23.151 16.7675 22.8501C16.9555 22.6619 17.1434 22.4736 17.3313 22.2853C17.92 21.6956 18.5088 21.106 19.0978 20.5166C19.7768 19.8373 20.4552 19.1575 21.1331 18.4773C21.6584 17.9503 22.184 17.4238 22.7101 16.8977C23.0238 16.5838 23.3374 16.2698 23.6505 15.9553C23.9445 15.6599 24.2391 15.3652 24.5341 15.0709C24.6422 14.9628 24.7501 14.8546 24.8577 14.7462C25.0048 14.5981 25.1526 14.4508 25.3005 14.3036C25.3429 14.2606 25.3852 14.2176 25.4289 14.1733C25.8127 13.7946 26.1921 13.5274 26.7461 13.6082Z" fill="#1E3722"/>
<path d="M18.0426 13.7549C18.605 14.2137 19.0851 14.8002 19.2187 15.5316C19.2837 16.5458 19.2341 17.4445 18.564 18.2665C17.8848 18.9544 17.1679 19.2345 16.2208 19.2502C15.295 19.2439 14.6241 18.9252 13.9586 18.2843C13.3277 17.6029 13.1726 16.8273 13.191 15.9236C13.2443 15.1638 13.5611 14.5489 14.0937 14.0101C15.2426 13.0324 16.7735 12.8617 18.0426 13.7549ZM15.1798 15.5066C14.9789 15.9326 14.9117 16.3002 15.0597 16.7528C15.2738 17.0566 15.5189 17.2852 15.8555 17.4535C16.2864 17.507 16.6491 17.4824 17.016 17.2392C17.2771 17.0099 17.4261 16.7541 17.4846 16.4109C17.502 16.0318 17.4252 15.7642 17.2168 15.4515C16.9043 15.1167 16.6608 14.9818 16.2005 14.9554C15.763 14.9924 15.4695 15.1871 15.1798 15.5066Z" fill="#1E3722"/>
<path d="M26.606 22.3251C27.2103 22.8124 27.6393 23.4065 27.7871 24.1819C27.8604 25.1923 27.7386 26.0232 27.0698 26.8188C26.402 27.4956 25.6903 27.7876 24.7491 27.8204C23.852 27.798 23.1614 27.4769 22.5273 26.8517C21.8235 26.0812 21.7229 25.2784 21.7669 24.2691C21.8296 23.5378 22.2131 22.8927 22.7656 22.4248C23.9278 21.5618 25.4049 21.4845 26.606 22.3251ZM23.7576 23.9823C23.5156 24.3461 23.4657 24.7153 23.543 25.1428C23.7203 25.4909 23.9279 25.7421 24.2637 25.9436C24.6454 26.0569 24.9636 26.0618 25.3297 25.8985C25.6303 25.7225 25.7945 25.5426 25.9453 25.2229C26.0373 24.867 26.0552 24.5935 25.9403 24.2419C25.7262 23.9381 25.4811 23.7095 25.1445 23.5412C24.5883 23.4721 24.1373 23.5486 23.7576 23.9823Z" fill="#1E3722"/>
</svg>
