<svg width="49" height="41" viewBox="0 0 49 41" fill="none" xmlns="http://www.w3.org/2000/svg">
<g clip-path="url(#clip0_735_899)">
<path d="M4.67859 23.4351C4.74645 23.4354 4.81431 23.4358 4.88422 23.4361C6.07322 23.4446 7.26181 23.4823 8.45018 23.5187C8.87376 23.5315 9.2972 23.541 9.72095 23.5475C9.89092 23.5516 10.0609 23.5559 10.2309 23.5602C10.3044 23.5604 10.378 23.5606 10.4538 23.5608C10.8024 23.5725 10.9892 23.6254 11.2787 23.8197C11.5339 24.1808 11.5492 24.4449 11.5528 24.874C11.5552 24.9432 11.5576 25.0124 11.5601 25.0837C11.5657 25.2531 11.5685 25.4227 11.5707 25.5922C11.6555 25.5561 11.7402 25.52 11.8275 25.4827C12.4947 25.2061 13.1547 24.9757 13.8616 24.8156C13.9271 24.8008 13.9926 24.7859 14.0601 24.7706C16.6898 24.2048 19.1918 24.7495 21.5638 25.913C22.5315 26.3822 23.459 26.6184 24.5438 26.6447C24.6642 26.6478 24.7847 26.6509 24.9088 26.6542C24.9723 26.6556 25.0358 26.6571 25.1013 26.6587C25.3027 26.6634 25.5041 26.6687 25.7055 26.6741C26.2777 26.6895 26.85 26.7041 27.4223 26.7179C27.7737 26.7265 28.125 26.7358 28.4764 26.7455C28.6089 26.749 28.7415 26.7523 28.874 26.7552C30.7698 26.7974 32.384 27.0677 33.7903 28.4059C34.0963 28.7331 34.2801 29.0081 34.4437 29.4226C34.5253 29.3852 34.6068 29.3477 34.6908 29.3091C34.7456 29.284 34.8003 29.2588 34.8568 29.2329C34.9823 29.1752 35.1078 29.1175 35.2333 29.0599C35.5913 28.8954 35.9493 28.7311 36.3074 28.567C36.9989 28.2499 37.69 27.9321 38.3789 27.6096C38.6699 27.4735 38.9612 27.3379 39.2526 27.2024C39.3908 27.1378 39.5289 27.073 39.6669 27.0078C41.1739 26.2965 42.5343 25.8399 44.192 26.3969C45.0267 26.7567 45.7632 27.3322 46.2152 28.1147C46.3292 28.4044 46.3326 28.5388 46.3109 28.8621C45.9403 29.4025 45.4492 29.6899 44.8873 30.024C44.6977 30.1392 44.5082 30.2546 44.3187 30.37C44.2211 30.4292 44.1235 30.4884 44.023 30.5494C43.5433 30.843 43.0699 31.1458 42.5964 31.4488C42.4122 31.5664 42.2279 31.684 42.0435 31.8017C41.9558 31.8576 41.8681 31.9136 41.7778 31.9713C41.2174 32.3285 40.6551 32.6827 40.0929 33.0372C39.757 33.2491 39.4212 33.4613 39.0853 33.6734C38.9498 33.7591 38.8142 33.8447 38.6786 33.9304C38.6115 33.9727 38.5444 34.0151 38.4752 34.0588C37.7295 34.5298 36.9839 35.0008 36.2382 35.4719C36.1711 35.5142 36.104 35.5566 36.0349 35.6003C35.8991 35.686 35.7634 35.7717 35.6276 35.8574C35.2909 36.0701 34.9543 36.2829 34.618 36.4962C34.281 36.7099 33.9434 36.9226 33.6055 37.1349C33.4572 37.2285 33.309 37.3226 33.1611 37.4169C31.2081 38.6629 29.4084 39.3377 27.0507 39.3548C26.9308 39.3575 26.8109 39.3602 26.6873 39.363C24.6384 39.3762 22.6447 38.6411 20.692 38.0982C20.3172 37.9941 19.9423 37.8905 19.5673 37.7868C19.4195 37.7459 19.2716 37.705 19.1237 37.6641C18.8331 37.5837 18.5425 37.5035 18.2518 37.4234C17.6051 37.245 16.9591 37.0649 16.3148 36.8782C16.2066 36.8473 16.0984 36.8164 15.987 36.7846C15.7914 36.7287 15.5962 36.6718 15.4013 36.6135C14.4789 36.3522 13.602 36.3134 12.7191 36.7097C12.6276 36.7504 12.6276 36.7504 12.5342 36.792C12.3223 36.8888 12.114 36.9911 11.9057 37.0951C11.8368 37.127 11.7679 37.1589 11.697 37.1918C11.4959 37.2975 11.3443 37.3876 11.1879 37.5505C11.124 37.7727 11.1068 37.9657 11.106 38.1961C11.0846 38.4992 10.9261 38.6533 10.7094 38.8585C9.71716 39.3428 7.64746 38.9286 6.56683 38.8977C6.31601 38.891 6.06516 38.8851 5.81429 38.8801C5.44871 38.8728 5.08333 38.8625 4.71784 38.8516C4.60579 38.8499 4.49374 38.8482 4.3783 38.8465C3.93474 38.8307 3.61571 38.8086 3.22066 38.6039C2.94614 38.1025 2.99879 37.612 3.01463 37.0531C3.01674 36.9189 3.01866 36.7847 3.02042 36.6505C3.0264 36.2607 3.03598 35.871 3.04626 35.4812C3.0535 35.2006 3.06 34.9199 3.06633 34.6393C3.09886 33.2087 3.13877 31.7784 3.18065 30.348C3.19417 29.8811 3.20712 29.4141 3.22008 28.9472C3.23273 28.4935 3.24569 28.0397 3.25876 27.586C3.26491 27.3713 3.27098 27.1566 3.27695 26.9419C3.29268 26.3804 3.30991 25.819 3.33156 25.2577C3.33698 25.1165 3.34204 24.9753 3.34654 24.8341C3.35202 24.6744 3.36019 24.5148 3.36868 24.3552C3.37436 24.2358 3.37436 24.2358 3.38016 24.114C3.4557 23.8385 3.59895 23.7189 3.81876 23.5369C4.1039 23.3977 4.36069 23.4332 4.67859 23.4351ZM5.0629 25.1251C5.02498 26.3102 4.98751 27.4953 4.9506 28.6804C4.93343 29.231 4.91612 29.7816 4.89846 30.3322C4.82532 32.6146 4.75536 34.8931 4.77579 37.1769C7.09707 37.2231 7.09707 37.2231 9.46524 37.2703C9.51653 35.5249 9.51653 35.5249 9.5673 33.7794C9.58793 33.0661 9.60862 32.3527 9.62968 31.6393C9.64669 31.0632 9.66341 30.4871 9.67994 29.911C9.68626 29.6929 9.69266 29.4747 9.69918 29.2565C9.73929 27.91 9.76097 26.5655 9.75235 25.2185C9.31524 25.205 8.87812 25.1916 8.44099 25.1786C8.29298 25.1741 8.14497 25.1696 7.99696 25.165C7.78145 25.1583 7.56594 25.1519 7.35043 25.1455C7.28666 25.1435 7.22289 25.1414 7.1572 25.1393C6.45922 25.1193 5.76111 25.1233 5.0629 25.1251ZM12.3363 27.087C12.2566 27.1187 12.1769 27.1504 12.0948 27.183C11.8152 27.3142 11.6045 27.4381 11.3793 27.6476C11.2342 28.0525 11.2412 28.4441 11.244 28.8701C11.2411 28.9905 11.2382 29.1109 11.2352 29.2349C11.2276 29.5557 11.2256 29.8763 11.2249 30.1971C11.2231 30.5151 11.2159 30.833 11.2092 31.151C11.195 31.8828 11.19 32.6145 11.1879 33.3464C11.1876 33.4613 11.1872 33.5761 11.1869 33.6944C11.1855 34.3258 11.1856 34.9572 11.1879 35.5886C11.3399 35.5162 11.3399 35.5162 11.4949 35.4423C12.8113 34.8174 13.9017 34.5545 15.3669 34.9045C15.4372 34.921 15.5076 34.9375 15.58 34.9545C16.4455 35.161 17.3016 35.3999 18.1581 35.6386C18.3354 35.6877 18.5127 35.7368 18.6901 35.7858C19.1521 35.9137 19.614 36.0419 20.0759 36.1702C20.8164 36.376 21.5571 36.5812 22.2979 36.7862C22.554 36.8572 22.8102 36.9284 23.0663 36.9997C24.7116 37.4883 24.7116 37.4883 26.4047 37.7374C26.4783 37.7423 26.552 37.7473 26.6279 37.7524C28.9987 37.8341 30.804 36.952 32.7144 35.6875C33.1997 35.3698 33.6933 35.0652 34.1865 34.7595C35.0254 34.2372 35.8605 33.7094 36.6928 33.1771C36.7979 33.1099 36.903 33.0426 37.0114 32.9734C37.2132 32.8443 37.415 32.7152 37.6168 32.5861C38.733 31.8731 39.8567 31.1717 40.9807 30.4707C42.0282 29.8166 43.0696 29.1535 44.1097 28.4884C44.0458 28.2002 44.0458 28.2002 43.829 28.099C43.1639 27.8346 42.5669 27.6803 41.8663 27.9115C40.9287 28.3017 40.0106 28.7306 39.0913 29.1599C38.9202 29.2395 38.749 29.3192 38.5779 29.3988C38.2438 29.5543 37.9098 29.7099 37.5758 29.8657C37.0968 30.0891 36.6174 30.3119 36.138 30.5345C35.7964 30.6931 35.455 30.852 35.1137 31.0108C35.1101 31.1087 35.1065 31.2067 35.1028 31.3075C35.0965 31.4364 35.0902 31.5652 35.0838 31.694C35.0805 31.7907 35.0805 31.7907 35.0772 31.8894C35.051 32.3706 35.051 32.3706 34.8934 32.5691C34.2944 33.0237 33.0706 32.7797 32.3413 32.7574C32.1916 32.7533 32.0419 32.7492 31.8922 32.7451C31.4986 32.7343 31.1049 32.7228 30.7112 32.7111C30.3967 32.702 30.0821 32.6933 29.7675 32.6846C29.0131 32.6639 28.2586 32.6419 27.5042 32.6183C27.1693 32.6078 26.8344 32.5976 26.4995 32.5883C26.1618 32.5788 25.8242 32.5683 25.4865 32.5574C25.3894 32.555 25.2923 32.5525 25.1923 32.5499C25.1041 32.5469 25.016 32.5438 24.9252 32.5406C24.8498 32.5383 24.7744 32.5361 24.6968 32.5337C24.4641 32.502 24.3071 32.4392 24.1078 32.3188C23.9559 32.0221 23.9728 31.7076 24.0121 31.3845C24.1598 31.1814 24.2644 31.1212 24.4906 31.0108C24.713 31.0028 24.9356 31.0012 25.1581 31.0024C25.2261 31.0028 25.2941 31.0031 25.3641 31.0035C26.1708 31.0093 26.9771 31.0302 27.7834 31.0517C27.9464 31.0559 28.1095 31.0601 28.2725 31.0643C28.696 31.0752 29.1195 31.0863 29.5431 31.0975C29.9775 31.1089 30.4119 31.1201 30.8463 31.1313C31.6945 31.1532 32.5428 31.1754 33.391 31.1977C33.3319 31.0322 33.2721 30.867 33.212 30.7019C33.1788 30.6098 33.1456 30.5178 33.1114 30.423C32.8118 29.6884 32.1055 29.0988 31.3812 28.7686C30.5673 28.4791 29.7746 28.4407 28.9154 28.4267C28.7809 28.4235 28.6463 28.4201 28.5118 28.4167C28.16 28.4079 27.8081 28.4004 27.4562 28.3934C26.8947 28.3821 26.3332 28.3694 25.7718 28.3555C25.5785 28.3509 25.3852 28.3475 25.1919 28.344C23.2687 28.2992 21.6938 27.8776 19.9727 27.05C19.2601 26.7137 18.568 26.4901 17.7914 26.3396C17.7023 26.3219 17.6133 26.3042 17.5215 26.286C15.7329 26.0522 13.9689 26.3512 12.3363 27.087Z" fill="black"/>
<path d="M24.6899 -0.0816005C27.8896 -0.167716 30.8214 1.0329 33.1978 3.13557C35.3322 5.1756 36.6739 7.9975 36.7769 10.9512C36.8473 14.4251 35.808 17.3248 33.4004 19.8748C33.344 19.9383 33.2876 20.0017 33.2295 20.0671C31.3011 22.146 28.2713 23.1925 25.4989 23.3365C22.3371 23.4364 19.3801 22.3191 17.0669 20.18C16.9564 20.0762 16.9564 20.0762 16.8437 19.9702C16.779 19.9118 16.7142 19.8534 16.6475 19.7932C15.1603 18.3997 14.2207 16.4688 13.6855 14.5317C13.653 14.415 13.6204 14.2983 13.5868 14.178C13.187 12.445 13.2195 10.4313 13.6855 8.71159C13.704 8.64311 13.7225 8.57464 13.7416 8.50409C14.5764 5.53873 16.5558 2.99719 19.2363 1.46027C20.9362 0.51389 22.751 0.0221363 24.6899 -0.0816005ZM17.4633 5.11682C15.4941 7.34994 14.9496 10.1079 15.1211 13.0051C15.1847 13.5681 15.3235 14.091 15.5039 14.6271C15.5239 14.6874 15.5439 14.7476 15.5645 14.8096C16.3906 17.2347 18.1028 19.2429 20.3485 20.4831C22.8316 21.6736 25.5982 22.0231 28.2361 21.1199C29.4708 20.6714 30.5891 20.0713 31.582 19.2069C31.6452 19.1576 31.7083 19.1083 31.7734 19.0575C33.596 17.5958 34.7323 15.189 35.0273 12.9097C35.2229 10.1427 34.6787 7.57545 32.8972 5.39378C32.688 5.15756 32.4721 4.93035 32.2519 4.70428C32.1875 4.63307 32.1231 4.56186 32.0568 4.48849C30.4215 2.73913 27.9188 1.72341 25.5411 1.63172C22.3732 1.57456 19.6098 2.78931 17.4633 5.11682Z" fill="black"/>
<path d="M25.3613 3.96059C25.594 4.13531 25.7098 4.26715 25.8398 4.52114C25.8465 4.68062 25.8479 4.84034 25.8458 4.99994C25.845 5.08496 25.8441 5.16999 25.8432 5.25759C25.8421 5.32286 25.841 5.38813 25.8398 5.45538C25.8989 5.46803 25.958 5.48067 26.0189 5.4937C26.9594 5.72708 27.6105 6.20334 28.1158 7.01441C28.4731 7.67629 28.6462 8.3486 28.5195 9.09894C28.3281 9.39673 28.3281 9.39673 28.041 9.56606C27.7514 9.62765 27.5808 9.60866 27.2754 9.56606C26.9 9.2879 26.8319 9.04103 26.755 8.59678C26.6404 8.06313 26.551 7.77483 26.127 7.4173C25.6615 7.16012 25.2222 7.0482 24.6914 7.13702C24.1952 7.30113 23.8056 7.52423 23.543 7.97784C23.349 8.52319 23.2928 8.9647 23.5452 9.49599C23.7801 9.90688 24.0044 10.1753 24.4641 10.3503C24.7708 10.4266 25.0767 10.4549 25.3912 10.4886C26.3189 10.5977 27.124 10.9283 27.7539 11.6214C28.4438 12.5748 28.63 13.4559 28.5195 14.611C28.348 15.5136 27.8022 16.1687 27.0728 16.7284C26.6796 16.9837 26.2988 17.1242 25.8398 17.2269C25.8421 17.29 25.8443 17.3531 25.8466 17.4181C25.8483 17.5014 25.85 17.5848 25.8518 17.6706C25.854 17.753 25.8562 17.8354 25.8585 17.9203C25.8385 18.1779 25.793 18.3198 25.6484 18.5348C25.295 18.7648 25.006 18.7749 24.5957 18.7217C24.286 18.5589 24.2297 18.4907 24.1172 18.1611C24.1106 17.9841 24.1091 17.8069 24.1112 17.6298C24.1121 17.5369 24.1129 17.4441 24.1138 17.3484C24.1149 17.2775 24.116 17.2065 24.1172 17.1334C24.0106 17.1168 24.0106 17.1168 23.9019 17.0999C23.014 16.898 22.4359 16.1899 21.9478 15.4872C21.6845 15.0281 21.5993 14.6087 21.593 14.0855C21.5903 13.9821 21.5876 13.8788 21.5848 13.7724C21.6289 13.4899 21.6289 13.4899 21.7956 13.2687C22.0363 13.0988 22.1489 13.0656 22.4424 13.0695C22.5144 13.0685 22.5865 13.0676 22.6607 13.0666C22.9609 13.1367 23.0693 13.2517 23.2559 13.4899C23.3426 13.7756 23.3426 13.7756 23.3994 14.0913C23.496 14.6264 23.6453 14.9708 24.1037 15.2989C24.5603 15.5227 24.9467 15.6408 25.457 15.5452C25.9548 15.3794 26.3373 15.1575 26.6055 14.7044C26.8226 14.1633 26.8241 13.7498 26.6036 13.2103C26.3529 12.7092 26.0719 12.4926 25.5527 12.2754C25.3265 12.2421 25.0989 12.2172 24.8708 12.1995C23.9067 12.0892 22.9573 11.7132 22.328 10.9601C21.6752 9.99209 21.4821 9.12848 21.6289 7.97784C21.8969 6.96954 22.4453 6.30169 23.3332 5.75026C23.5919 5.61705 23.8257 5.5634 24.1172 5.54881C24.1122 5.44566 24.1122 5.44566 24.1071 5.34043C24.0809 4.4183 24.0809 4.4183 24.4043 4.05402C24.7098 3.9049 25.0297 3.91251 25.3613 3.96059Z" fill="black"/>
</g>
<defs>
<clipPath id="clip0_735_899">
<rect width="49" height="41" fill="white"/>
</clipPath>
</defs>
</svg>
