<svg width="51" height="40" viewBox="0 0 51 40" fill="none" xmlns="http://www.w3.org/2000/svg">
<g clip-path="url(#clip0_735_908)">
<path d="M25.5187 -0.195087C25.5907 -0.194886 25.6626 -0.194685 25.7368 -0.194478C26.8752 -0.189396 27.9762 -0.138367 29.0859 0.113644C29.17 0.132657 29.2541 0.151669 29.3407 0.171258C30.5363 0.450462 31.666 0.816413 32.7715 1.32527C32.8343 1.35385 32.8972 1.38242 32.9619 1.41187C36.4628 3.02213 39.1174 5.77148 40.7402 9.06101C40.8202 9.22104 40.8202 9.22104 40.9017 9.38431C41.2324 10.0979 41.4587 10.8244 41.6616 11.5775C41.6862 11.6652 41.7107 11.7529 41.736 11.8432C42.2177 13.7321 42.1673 15.7157 42.1681 17.6448C42.1682 17.8481 42.1687 18.0514 42.1692 18.2547C42.171 18.9676 42.1718 19.6805 42.1717 20.3934C42.1716 21.0526 42.1737 21.7117 42.1768 22.3709C42.1794 22.9425 42.1805 23.514 42.1804 24.0856C42.1803 24.4245 42.1808 24.7635 42.183 25.1025C42.1958 27.2842 42.0669 29.1588 40.4414 30.8702C40.356 30.938 40.2706 31.0057 40.1827 31.0756C39.8642 31.4225 39.8286 31.7152 39.7566 32.1576C39.3843 34.054 38.3676 35.6304 36.6998 36.7944C34.8897 37.9296 32.8113 38.335 30.6544 37.9889C29.2934 37.685 28.0263 37.0638 26.9941 36.1827C26.9335 36.1345 26.8729 36.0864 26.8105 36.0367C25.515 34.9375 24.8333 33.2942 24.6035 31.709C24.5991 31.4916 24.5979 31.274 24.6035 31.0566C24.5313 31.0461 24.4592 31.0355 24.3848 31.0246C23.6147 30.856 23.008 30.3911 22.5588 29.7959C22.0098 28.9334 21.838 28.0351 22.0829 27.05C22.3979 26.1546 22.9404 25.4851 23.8066 24.9985C24.7645 24.5744 25.7893 24.4881 26.7949 24.8121C27.7848 25.244 28.4877 25.9072 28.8867 26.8625C29.1847 27.729 29.0483 28.7072 28.635 29.5108C28.2124 30.2051 27.6695 30.621 26.8945 30.9634C26.6148 31.0253 26.6148 31.0253 26.3965 31.0566C26.7166 32.6978 27.2499 34.2519 28.7591 35.2734C29.4126 35.6757 30.1151 36.0108 30.8789 36.1827C30.9526 36.1997 31.0263 36.2166 31.1022 36.2341C32.7138 36.4797 34.1932 36.1716 35.5605 35.3439C36.621 34.597 37.2509 33.6843 37.7519 32.5479C37.693 32.568 37.6341 32.5882 37.5734 32.609C36.7916 32.8668 36.7916 32.8668 36.3574 32.8275C36.362 32.8837 36.3667 32.9399 36.3714 32.9978C36.4006 33.6017 36.4006 33.6017 36.2018 33.8993C35.8778 34.0858 35.6415 34.126 35.2617 34.1323C34.9781 34.0202 34.8196 33.9336 34.6521 33.691C34.5404 33.4219 34.5391 33.2034 34.5385 32.9145C34.5378 32.7986 34.5371 32.6827 34.5363 32.5633C34.5366 32.4351 34.5368 32.3069 34.5371 32.1787C34.5367 32.0435 34.5361 31.9083 34.5355 31.7731C34.5342 31.4061 34.5342 31.0391 34.5344 30.672C34.5345 30.3656 34.534 30.0592 34.5336 29.7527C34.5324 29.0298 34.5324 28.3069 34.533 27.584C34.5336 26.8382 34.5324 26.0925 34.5303 25.3468C34.5285 24.7064 34.5279 24.0661 34.5282 23.4257C34.5284 23.0433 34.5281 22.6609 34.5268 22.2785C34.5255 21.9188 34.5257 21.5592 34.527 21.1996C34.5272 21.0677 34.527 20.9358 34.5261 20.8039C34.5251 20.6236 34.5261 20.4434 34.5272 20.2632C34.5271 20.112 34.5271 20.112 34.5271 19.9577C34.5702 19.6444 34.6628 19.4723 34.8633 19.22C35.2369 18.987 35.417 18.9836 35.8594 19.0336C36.1529 19.2247 36.3217 19.3657 36.4099 19.6966C36.4352 19.8785 36.4471 20.062 36.457 20.2452C36.5499 20.2646 36.6427 20.2839 36.7383 20.3038C37.9016 20.5669 38.8656 20.9384 39.7646 21.7031C39.8989 21.817 39.8989 21.817 40.0358 21.9332C40.1039 21.9913 40.172 22.0494 40.2422 22.1093C40.2469 21.247 40.2504 20.3848 40.2525 19.5226C40.2535 19.122 40.2549 18.7213 40.2572 18.3207C40.2859 13.1635 39.5112 8.99631 35.5096 5.18804C33.6557 3.52514 31.2652 2.44786 28.7871 1.88448C28.7168 1.86803 28.6465 1.85159 28.5741 1.83465C24.9644 1.02727 20.9275 1.77778 17.7791 3.56903C14.5012 5.56793 11.98 8.61872 11.1397 12.235C10.8846 13.4362 10.8033 14.5865 10.8185 15.8087C10.8192 15.9896 10.8198 16.1706 10.8202 16.3515C10.8217 16.8201 10.8256 17.2886 10.8301 17.7571C10.8342 18.2383 10.836 18.7195 10.838 19.2007C10.8422 20.1392 10.849 21.0776 10.8574 22.0161C10.9476 21.9393 10.9476 21.9393 11.0397 21.8609C11.1193 21.7937 11.199 21.7266 11.281 21.6574C11.3596 21.5908 11.4383 21.5242 11.5193 21.4556C11.8346 21.2068 12.1608 21.0326 12.5321 20.8685C12.5998 20.8376 12.6676 20.8066 12.7373 20.7748C13.3193 20.5181 13.9094 20.353 14.543 20.2452C14.5527 20.1812 14.5625 20.1172 14.5725 20.0512C14.5874 19.9672 14.6023 19.8832 14.6177 19.7967C14.6315 19.7134 14.6454 19.6302 14.6597 19.5444C14.761 19.2605 14.8647 19.1789 15.1406 19.0336C15.5598 18.9837 15.764 18.99 16.1243 19.2025C16.4622 19.528 16.4482 19.8052 16.4495 20.2402C16.4501 20.3559 16.4507 20.4717 16.4512 20.591C16.4514 20.7195 16.4515 20.8481 16.4516 20.9766C16.452 21.1118 16.4525 21.247 16.4531 21.3821C16.4544 21.7496 16.455 22.117 16.4555 22.4844C16.4558 22.7139 16.4562 22.9434 16.4566 23.173C16.458 23.891 16.4589 24.609 16.4593 25.3271C16.4598 26.1561 16.4615 26.9851 16.4644 27.8142C16.4666 28.4549 16.4676 29.0956 16.4677 29.7364C16.4678 30.1191 16.4684 30.5018 16.4702 30.8846C16.4718 31.2446 16.472 31.6046 16.4712 31.9646C16.4711 32.0967 16.4715 32.2287 16.4725 32.3608C16.4738 32.5412 16.473 32.7216 16.4721 32.902C16.4724 33.0534 16.4724 33.0534 16.4726 33.2079C16.4219 33.5801 16.2794 33.841 15.9624 34.074C15.6246 34.1618 15.3787 34.1181 15.041 34.0391C14.7982 33.8993 14.7982 33.8993 14.6426 33.6663C14.6108 33.3838 14.6193 33.1103 14.6426 32.8275C14.5214 32.8217 14.4001 32.8159 14.2753 32.81C12.6594 32.6367 11.2915 31.7185 10.2598 30.5906C9.41239 29.529 8.85449 28.2448 8.8519 26.9067C8.85148 26.8065 8.85105 26.7064 8.85062 26.6032C8.85066 26.4947 8.85071 26.3862 8.85075 26.2745C8.85042 26.159 8.85008 26.0436 8.84974 25.9247C8.84896 25.6086 8.84863 25.2925 8.84856 24.9763C8.84849 24.7777 8.84828 24.5791 8.84801 24.3804C8.84709 23.684 8.84669 22.9876 8.84676 22.2911C8.84682 21.648 8.84578 21.0049 8.8442 20.3618C8.84288 19.8057 8.84236 19.2496 8.84243 18.6936C8.84245 18.3633 8.84219 18.033 8.84111 17.7027C8.83731 16.4434 8.84788 15.1897 8.95265 13.9336C8.964 13.7969 8.964 13.7969 8.97559 13.6573C9.30682 10.1448 11.0578 7.07623 13.5469 4.49413C13.6478 4.38942 13.6478 4.38942 13.7508 4.2826C16.7601 1.32846 21.2184 -0.216807 25.5187 -0.195087ZM12.0465 23.2393C11.0133 24.2875 10.6074 25.5027 10.6333 26.9099C10.7317 28.1959 11.3638 29.2476 12.3516 30.1246C12.9652 30.6097 13.8055 31.1498 14.6426 31.1498C14.6426 28.1357 14.6426 25.1215 14.6426 22.0161C13.7055 22.0161 12.7147 22.6532 12.0465 23.2393ZM36.3574 22.0161C36.3574 25.0302 36.3574 28.0443 36.3574 31.1498C37.8178 30.8082 38.8573 30.1593 39.6974 28.9709C40.3652 27.8558 40.5252 26.5994 40.2297 25.3538C39.8606 24.1591 39.1048 23.1526 37.9383 22.5316C37.1874 22.1458 37.1874 22.1458 36.3574 22.0161ZM24.3486 26.7129C24.1966 26.8749 24.1966 26.8749 24.0059 27.1422C23.9627 27.1998 23.9196 27.2575 23.8751 27.3169C23.7098 27.7949 23.7543 28.2091 23.9747 28.6567C24.2224 29.0749 24.5133 29.3198 25.0019 29.4722C25.5615 29.528 26.0644 29.5304 26.542 29.2286C26.9011 28.9259 27.1441 28.5893 27.2377 28.1419C27.2666 27.6129 27.1247 27.2879 26.7949 26.8625C26.1092 26.2378 25.0973 26.0862 24.3486 26.7129Z" fill="#1E3722"/>
<path d="M23.2055 7.79825C23.908 8.33321 24.3305 8.97634 24.4424 9.82685C24.5247 11.9732 22.8545 13.6318 21.416 15.1292C21.4919 15.1305 21.5677 15.1319 21.6459 15.1333C21.9906 15.1402 22.3352 15.1492 22.6798 15.1583C22.7992 15.1604 22.9185 15.1625 23.0415 15.1646C23.2143 15.1696 23.2143 15.1696 23.3907 15.1747C23.4966 15.1771 23.6025 15.1795 23.7116 15.1821C24.0455 15.2278 24.2338 15.3151 24.5039 15.502C24.753 15.8515 24.7565 16.02 24.7031 16.434C24.5381 16.6763 24.4672 16.7674 24.2051 16.9C23.7726 16.9698 23.3446 16.963 22.9067 16.9586C22.7168 16.9589 22.7168 16.9589 22.5231 16.9593C22.2556 16.9592 21.9884 16.9582 21.721 16.9556C21.3788 16.9524 21.0367 16.953 20.6945 16.9548C20.3673 16.956 20.0401 16.9543 19.7129 16.9528C19.5288 16.9535 19.5288 16.9535 19.3409 16.9542C19.2269 16.9527 19.1129 16.9512 18.9954 16.9497C18.8952 16.9491 18.7949 16.9485 18.6916 16.948C18.3548 16.8867 18.2382 16.7776 18.0293 16.5272C17.9286 16.1817 17.877 15.9766 18.0464 15.6494C18.2527 15.3768 18.4777 15.1754 18.7452 14.9544C18.7942 14.9135 18.8431 14.8725 18.8935 14.8303C19.103 14.6557 19.3146 14.4841 19.5312 14.3173C20.8042 13.3314 22.351 11.7153 22.5553 10.1312C22.4899 9.65909 22.282 9.38461 21.8892 9.08851C21.4521 8.91193 21.0646 8.81772 20.604 8.94289C20.1239 9.14363 19.8589 9.36714 19.623 9.81665C19.5444 10.08 19.4746 10.3424 19.4145 10.61C19.3055 10.89 19.2008 10.9765 18.9258 11.1215C18.5214 11.1696 18.302 11.1589 17.9421 10.9758C17.6578 10.6707 17.6378 10.5007 17.6309 10.0963C17.7216 9.19644 18.1128 8.44056 18.8168 7.81937C20.1723 6.86818 21.848 6.88428 23.2055 7.79825Z" fill="#1E3722"/>
<path d="M29.7832 6.83757C29.97 6.9366 29.97 6.9366 30.082 7.11718C30.2247 7.73012 30.1505 8.05184 29.8307 8.59348C29.7929 8.66107 29.7551 8.72866 29.7161 8.7983C29.5951 9.01365 29.4713 9.2275 29.3474 9.4414C29.268 9.58165 29.1887 9.722 29.1097 9.86244C28.9121 10.2125 28.7122 10.5614 28.5118 10.91C28.2998 11.28 28.0902 11.6512 27.8805 12.0223C27.6883 12.3623 27.6883 12.3623 27.4922 12.7093C28.7742 12.7554 28.7742 12.7554 30.082 12.8025C30.0624 12.2712 30.0624 12.2712 30.0372 11.7402C30.0297 11.3402 30.0444 11.1722 30.3077 10.8409C30.7165 10.5677 30.8844 10.593 31.377 10.6588C31.6727 10.8646 31.7583 10.9837 31.875 11.3113C31.882 11.5665 31.8843 11.8192 31.8812 12.0743C31.8808 12.1442 31.8803 12.2141 31.8799 12.2861C31.8787 12.4582 31.8769 12.6303 31.875 12.8025C32.0006 12.8001 32.1262 12.7977 32.2555 12.7952C32.6429 12.7878 32.863 12.8456 33.1699 13.0821C33.3777 13.3295 33.369 13.4612 33.3629 13.7811C33.2695 14.1073 33.2695 14.1073 33.0703 14.3345C32.7616 14.4849 32.6411 14.4963 32.3046 14.4892C32.2241 14.4879 32.1436 14.4866 32.0606 14.4852C31.9994 14.4835 31.9381 14.4819 31.875 14.4801C31.8766 14.5426 31.8781 14.6051 31.8798 14.6695C31.886 14.9539 31.8899 15.2383 31.8937 15.5228C31.8962 15.6211 31.8987 15.7195 31.9013 15.8208C31.9022 15.916 31.9032 16.0112 31.9042 16.1093C31.9058 16.1967 31.9073 16.2841 31.9089 16.3741C31.8564 16.7608 31.6671 17.0047 31.377 17.2762C31.1754 17.3075 31.1754 17.3075 30.9412 17.3111C30.8644 17.3138 30.7876 17.3164 30.7085 17.3191C30.3896 17.259 30.2838 17.1393 30.082 16.9034C30.0368 16.6386 30.0368 16.6386 30.0431 16.3369C30.0444 16.2287 30.0457 16.1206 30.047 16.0092C30.0504 15.8968 30.0537 15.7843 30.0571 15.6684C30.0589 15.5545 30.0607 15.4406 30.0626 15.3233C30.0673 15.0422 30.0738 14.7612 30.082 14.4801C30.0257 14.4811 29.9694 14.4822 29.9114 14.4833C29.3249 14.4936 28.7384 14.5006 28.1517 14.5057C27.9329 14.5081 27.7141 14.5112 27.4952 14.5153C27.1805 14.5209 26.8658 14.5236 26.551 14.5256C26.4533 14.528 26.3557 14.5304 26.255 14.5329C25.8085 14.5331 25.5677 14.5208 25.1853 14.2909C24.9534 13.9408 24.9259 13.6647 25.002 13.2685C25.1293 12.9512 25.1293 12.9512 25.3086 12.6357C25.3407 12.5782 25.3729 12.5207 25.406 12.4614C25.5105 12.2752 25.6172 12.0903 25.7241 11.9054C25.7973 11.7763 25.8703 11.647 25.9432 11.5177C26.1584 11.1371 26.3768 10.758 26.5957 10.3792C26.6556 10.2752 26.7155 10.1712 26.7773 10.064C27.028 9.62925 27.2806 9.19555 27.5358 8.76313C27.6962 8.49134 27.8543 8.2187 28.0089 7.94398C28.0572 7.85849 28.0572 7.85849 28.1064 7.77127C28.1875 7.62686 28.2681 7.48216 28.3486 7.33744C28.7178 6.7553 29.083 6.69717 29.7832 6.83757Z" fill="#1E3722"/>
</g>
<defs>
<clipPath id="clip0_735_908">
<rect width="51" height="40" fill="white"/>
</clipPath>
</defs>
</svg>
