<svg width="61" height="41" viewBox="0 0 61 41" fill="none" xmlns="http://www.w3.org/2000/svg">
<g clip-path="url(#clip0_735_848)">
<path d="M12.4903 0.311362C12.6038 0.310803 12.7173 0.310244 12.8343 0.309668C13.0217 0.309857 13.0217 0.309857 13.2129 0.31005C13.3455 0.309617 13.4781 0.309185 13.6146 0.308739C14.0611 0.307471 14.5076 0.307254 14.9541 0.307037C15.2733 0.306442 15.5924 0.305635 15.9116 0.304847C16.7803 0.302869 17.6491 0.301992 18.5178 0.301351C19.0602 0.300949 19.6025 0.300332 20.1449 0.299676C21.6462 0.297901 23.1475 0.296401 24.6488 0.295909C24.793 0.295861 24.793 0.295861 24.9401 0.295812C25.0364 0.29578 25.1327 0.295748 25.232 0.295715C25.4272 0.295651 25.6224 0.295586 25.8176 0.29552C25.9145 0.295488 26.0113 0.295456 26.111 0.295423C27.6803 0.294848 29.2495 0.292306 30.8187 0.288916C32.4294 0.285464 34.0401 0.283649 35.6508 0.283479C36.5554 0.283346 37.4599 0.282507 38.3644 0.279866C39.1346 0.277624 39.9047 0.276877 40.6749 0.27808C41.0679 0.27865 41.4608 0.278275 41.8538 0.27647C42.2798 0.274629 42.7058 0.275469 43.1318 0.276992C43.256 0.275819 43.3802 0.274646 43.5081 0.273438C44.1465 0.27879 44.6102 0.315982 45.1581 0.767288C45.635 1.41811 45.764 1.768 45.7626 2.63481C45.7626 2.8126 45.7626 2.99039 45.7626 3.17356C45.762 3.36828 45.7614 3.56299 45.7607 3.75771C45.7605 3.95641 45.7603 4.15512 45.7602 4.35383C45.7598 4.87707 45.7586 5.4003 45.7573 5.92354C45.7561 6.45736 45.7555 6.99119 45.755 7.52502C45.7537 8.57263 45.7517 9.62024 45.7492 10.6679C45.8433 10.6662 45.9375 10.6646 46.0345 10.663C46.9249 10.6483 47.8152 10.6373 48.7057 10.6301C49.1634 10.6264 49.621 10.6212 50.0787 10.6129C50.521 10.605 50.9632 10.6007 51.4055 10.5988C51.5736 10.5975 51.7418 10.5948 51.9099 10.5909C52.8691 10.5693 53.6483 10.5576 54.3786 11.3958C55.0067 12.2376 55.4234 13.2614 55.8617 14.2613C56.0267 14.6378 56.1935 15.0133 56.3601 15.3887C56.4449 15.5799 56.5297 15.7711 56.6144 15.9623C56.9903 16.8108 57.3748 17.6531 57.7623 18.4937C57.8232 18.6263 57.8841 18.759 57.9468 18.8957C58.2829 19.6278 58.6216 20.3579 58.9624 21.0865C59.1116 21.4082 59.2608 21.73 59.4099 22.0517C59.4789 22.1978 59.548 22.3438 59.6191 22.4943C60.5378 24.4848 60.7796 26.289 60.7818 28.5461C60.7822 28.6903 60.7826 28.8345 60.783 28.983C60.7836 29.2853 60.7838 29.5877 60.7838 29.89C60.7841 30.351 60.7862 30.8119 60.7885 31.2729C60.7888 31.5682 60.7891 31.8634 60.7892 32.1587C60.79 32.2954 60.7909 32.4321 60.7917 32.5729C60.7869 34.3011 60.7869 34.3011 60.3556 34.945C59.8883 35.3622 59.6389 35.5838 59.0654 35.5791C58.9648 35.5786 58.8643 35.5782 58.7607 35.5777C58.6555 35.5765 58.5504 35.5752 58.442 35.574C58.336 35.5733 58.2299 35.5727 58.1207 35.572C57.8584 35.5703 57.5961 35.5679 57.3338 35.5649C57.3197 35.6518 57.3057 35.7387 57.2912 35.8282C56.9948 37.5758 56.2596 38.9039 55.0509 39.9055C53.7067 40.8867 52.2536 41.0939 50.7311 40.6835C49.2894 40.1103 48.2685 39.0787 47.5223 37.4576C47.0495 36.2393 47.0495 36.2393 47.0495 35.5649C41.4321 35.5649 35.8148 35.5649 30.0272 35.5649C29.9492 35.9973 29.8711 36.4297 29.7907 36.8753C29.1882 38.4662 28.2633 39.6976 26.9565 40.4179C25.5976 41.0056 24.1382 41.0607 22.7863 40.4168C21.4289 39.6106 20.3827 38.3442 19.8611 36.5841C19.819 36.2448 19.7793 35.9051 19.7428 35.5649C19.6358 35.5662 19.5287 35.5675 19.4184 35.5688C18.4096 35.5805 17.4008 35.5893 16.392 35.5951C15.8733 35.5981 15.3547 35.6022 14.836 35.6088C14.3355 35.6151 13.835 35.6186 13.3345 35.6201C13.1435 35.6212 12.9526 35.6233 12.7616 35.6265C12.4941 35.6307 12.2268 35.6313 11.9593 35.631C11.8071 35.6323 11.6548 35.6336 11.4979 35.6349C11.046 35.5526 10.9109 35.4274 10.6406 34.9825C10.5203 34.5379 10.5081 34.2395 10.509 33.7744C10.509 33.5383 10.509 33.5383 10.509 33.2975C10.5096 33.1278 10.5103 32.9581 10.5109 32.7832C10.511 32.6093 10.5112 32.4354 10.5114 32.2562C10.512 31.6999 10.5135 31.1436 10.515 30.5873C10.5156 30.2105 10.5162 29.8337 10.5167 29.4569C10.518 28.5324 10.5199 27.608 10.5224 26.6835C10.429 26.6848 10.3355 26.6861 10.2392 26.6874C9.35739 26.6991 8.47563 26.7079 7.5938 26.7137C7.14046 26.7167 6.68717 26.7208 6.23386 26.7274C5.7962 26.7338 5.35858 26.7372 4.9209 26.7387C4.7541 26.7398 4.58731 26.7419 4.42053 26.7451C4.18656 26.7493 3.95254 26.7495 3.71853 26.7496C3.5189 26.7515 3.5189 26.7515 3.31524 26.7535C2.87595 26.6677 2.67941 26.4825 2.36589 26.1011C2.29155 25.7781 2.29155 25.7781 2.2994 25.4459C2.29925 25.3363 2.29909 25.2267 2.29894 25.1138C2.39728 24.6393 2.51362 24.4987 2.83873 24.2083C3.24691 24.1184 3.6521 24.1273 4.06583 24.1307C4.19063 24.1294 4.31542 24.1282 4.444 24.1269C4.85693 24.1236 5.26977 24.1246 5.68272 24.1259C5.96951 24.1251 6.2563 24.1242 6.54309 24.1231C7.1444 24.1216 7.74568 24.1223 8.34698 24.1244C9.11792 24.1269 9.88875 24.1235 10.6597 24.1184C11.252 24.1152 11.8443 24.1154 12.4367 24.1166C12.7209 24.1167 13.0052 24.1157 13.2894 24.1136C13.6868 24.111 14.0839 24.1131 14.4813 24.1165C14.5989 24.1148 14.7165 24.1131 14.8377 24.1113C15.3851 24.1206 15.6425 24.1341 16.0927 24.5457C16.384 25.0582 16.3962 25.3424 16.3147 25.9555C16.094 26.2998 15.9222 26.4884 15.6055 26.6835C15.3739 26.6959 15.1419 26.6991 14.9101 26.6977C14.7859 26.6973 14.6616 26.697 14.5337 26.6966C14.3754 26.6953 14.2171 26.694 14.054 26.6926C13.5517 26.6896 13.0495 26.6866 12.532 26.6835C12.532 28.7976 12.532 30.9116 12.532 33.0897C14.9116 33.0897 17.2912 33.0897 19.7428 33.0897C19.8209 32.6573 19.8989 32.2249 19.9793 31.7794C20.7194 29.9081 21.7769 28.9426 23.2892 28.1395C24.7091 27.6243 26.3143 27.9148 27.5895 28.7634C28.7328 29.6187 29.466 30.8163 29.909 32.3618C29.948 32.602 29.987 32.8422 30.0272 33.0897C34.5523 33.0897 39.0774 33.0897 43.7396 33.0897C43.7396 23.096 43.7396 13.1022 43.7396 2.80564C33.4411 2.80564 23.1426 2.80564 12.532 2.80564C12.532 3.95877 12.532 5.11189 12.532 6.29996C12.9518 6.2932 13.3716 6.28645 13.8042 6.27948C14.211 6.27494 14.6179 6.27141 15.0248 6.26797C15.3074 6.26504 15.5901 6.26107 15.8727 6.25602C16.2791 6.24896 16.6854 6.24566 17.0919 6.24309C17.2181 6.24008 17.3444 6.23707 17.4744 6.23398C18.3518 6.23365 18.3518 6.23365 18.8155 6.57253C19.0723 6.93732 19.1423 7.12848 19.1518 7.61033C19.066 8.01399 18.9691 8.26487 18.7426 8.5745C18.269 8.89115 17.8002 8.83826 17.2697 8.83624C17.1507 8.83747 17.0316 8.83871 16.909 8.83998C16.5153 8.84339 16.1216 8.84353 15.7278 8.84335C15.4543 8.84438 15.1808 8.8455 14.9072 8.84671C14.3337 8.84867 13.7603 8.8489 13.1868 8.84804C12.4517 8.84718 11.7166 8.85164 10.9815 8.85752C10.4165 8.86129 9.85156 8.86171 9.2866 8.86118C9.01555 8.86143 8.74449 8.86283 8.47345 8.86542C8.09449 8.86864 7.71573 8.86725 7.33677 8.86468C7.22468 8.86661 7.11259 8.86854 6.9971 8.87053C6.46172 8.86209 6.22292 8.84381 5.78346 8.43736C5.55758 8.04712 5.55758 8.04712 5.4837 7.53753C5.57862 6.8828 5.72336 6.70396 6.14863 6.29996C6.48874 6.20346 6.81562 6.21477 7.16312 6.22887C7.30749 6.23041 7.30749 6.23041 7.45477 6.23199C7.76078 6.23605 8.06653 6.24518 8.37247 6.25446C8.58049 6.25811 8.78851 6.26144 8.99654 6.26441C9.50526 6.27242 10.0138 6.28497 10.5224 6.29996C10.5212 6.18621 10.5199 6.07246 10.5187 5.95527C10.5137 5.43622 10.5107 4.91718 10.5076 4.3981C10.5057 4.21915 10.5037 4.04019 10.5016 3.85581C10.4924 1.74663 10.4924 1.74663 10.9505 1.06417C11.0568 0.962256 11.0568 0.962256 11.1652 0.858285C11.271 0.752995 11.271 0.752995 11.379 0.645578C11.7464 0.345194 12.0623 0.312153 12.4903 0.311362ZM45.7492 13.143C45.7492 19.7254 45.7492 26.3078 45.7492 33.0897C46.1783 33.0897 46.6074 33.0897 47.0495 33.0897C47.1012 32.9234 47.1012 32.9234 47.1539 32.7536C47.7533 30.894 48.4631 29.4624 49.9752 28.5944C51.1934 27.9471 52.7751 27.8425 54.0387 28.376C55.5239 29.1859 56.4618 30.3813 57.0974 32.2162C57.1822 32.5048 57.2645 32.7949 57.3338 33.0897C57.8019 33.0897 58.27 33.0897 58.7523 33.0897C58.7582 32.2455 58.7625 31.4013 58.7653 30.5571C58.7665 30.2704 58.7681 29.9838 58.7702 29.6972C58.7731 29.2829 58.7744 28.8688 58.7754 28.4545C58.7766 28.3283 58.7779 28.202 58.7791 28.072C58.7793 26.7938 58.6204 25.6509 58.1391 24.5086C58.0991 24.4133 58.0592 24.3179 58.018 24.2197C57.3809 22.7188 56.7018 21.2448 56.0291 19.7679C55.8039 19.2734 55.5799 18.7781 55.3561 18.2827C55.215 17.9708 55.0738 17.6589 54.9327 17.3471C54.8705 17.2095 54.8084 17.072 54.7444 16.9303C54.1656 15.6551 53.562 14.4034 52.96 13.143C50.5804 13.143 48.2009 13.143 45.7492 13.143ZM23.0527 31.0514C22.9284 31.1565 22.8041 31.2616 22.6759 31.3699C22.028 32.1679 21.63 33.1287 21.5973 34.2636C21.6139 35.3949 21.9126 36.3945 22.5356 37.2301C23.3233 38.1036 24.1752 38.4363 25.2286 38.3761C26.2216 38.2306 26.8744 37.6301 27.5447 36.7297C28.1009 35.8076 28.2066 34.7101 28.1002 33.5885C27.879 32.4077 27.2563 31.531 26.4693 30.8307C25.42 30.1447 24.0199 30.2033 23.0527 31.0514ZM49.7683 31.7794C49.644 31.9415 49.644 31.9415 49.5171 32.107C48.9936 33.0527 48.8396 34.0453 48.9838 35.1725C49.2081 36.3792 49.7938 37.3072 50.642 37.9695C51.48 38.4423 52.3943 38.5407 53.2796 38.2129C54.1327 37.7488 54.8032 36.988 55.225 35.9579C55.5906 34.7452 55.4913 33.7675 55.11 32.587C54.7249 31.5698 54.1242 31.0833 53.3147 30.6146C52.0007 30.0751 50.66 30.4929 49.7683 31.7794Z" fill="#1E3722"/>
<path d="M11.8186 11.0312C12.1697 11.1292 12.3044 11.3437 12.532 11.6807C12.5889 12.0272 12.5889 12.0272 12.5857 12.4151C12.5856 12.5608 12.5856 12.7065 12.5856 12.8567C12.5831 13.0129 12.5807 13.1691 12.5782 13.3301C12.5775 13.4908 12.5768 13.6516 12.5761 13.8172C12.5735 14.3306 12.5676 14.8438 12.5615 15.3571C12.5592 15.7051 12.557 16.0532 12.5551 16.4013C12.5499 17.2544 12.542 18.1075 12.532 18.9606C12.598 18.9599 12.6639 18.9592 12.7319 18.9585C14.3371 18.9425 15.9422 18.9305 17.5475 18.9229C18.3237 18.9191 19.1 18.9139 19.8762 18.9057C20.6251 18.8978 21.3739 18.8934 22.1227 18.8915C22.4087 18.8902 22.6947 18.8875 22.9807 18.8836C23.3807 18.8783 23.7805 18.8776 24.1805 18.8779C24.2993 18.8753 24.418 18.8727 24.5404 18.87C25.3415 18.8774 25.3415 18.8774 25.727 19.3024C25.9273 19.7774 25.9613 20.0338 25.8898 20.5621C25.6951 20.9478 25.6951 20.9478 25.4169 21.2901C25.0832 21.3809 25.0832 21.3809 24.6901 21.3806C24.5409 21.3822 24.3918 21.3839 24.2381 21.3856C24.0731 21.3837 23.9081 21.3817 23.7431 21.3797C23.5691 21.3802 23.3951 21.381 23.2211 21.3821C22.7487 21.3842 22.2764 21.3817 21.8041 21.3783C21.3098 21.3754 20.8156 21.3762 20.3214 21.3766C19.4914 21.3766 18.6615 21.3737 17.8315 21.369C16.8718 21.3637 15.9122 21.3624 14.9525 21.3634C14.0294 21.3643 13.1064 21.3628 12.1834 21.3599C11.7905 21.3587 11.3976 21.3583 11.0047 21.3586C10.5421 21.3587 10.0795 21.3566 9.61686 21.3528C9.44702 21.3518 9.27718 21.3515 9.10735 21.352C8.87563 21.3525 8.64391 21.3501 8.4122 21.3475C8.21763 21.3467 8.21763 21.3467 8.01914 21.3459C7.6413 21.2828 7.47964 21.1847 7.21252 20.8533C7.08098 20.2701 7.0427 19.967 7.25684 19.4156C7.44894 19.1062 7.44894 19.1062 7.56715 18.9606C7.78627 18.9479 8.00579 18.945 8.22516 18.9464C8.35811 18.9468 8.49106 18.9473 8.62804 18.9478C8.768 18.949 8.90797 18.9502 9.05217 18.9515C9.19259 18.9521 9.33301 18.9528 9.47768 18.9535C9.82593 18.9552 10.1742 18.9576 10.5224 18.9606C10.5219 18.8765 10.5214 18.7923 10.5208 18.7057C10.5156 17.8294 10.512 16.9532 10.5094 16.0769C10.5082 15.75 10.5066 15.423 10.5046 15.0961C10.5017 14.6259 10.5004 14.1558 10.4993 13.6855C10.4981 13.5396 10.4969 13.3937 10.4956 13.2433C10.4956 13.1064 10.4956 12.9694 10.4956 12.8284C10.495 12.7084 10.4945 12.5885 10.494 12.4649C10.5274 12.0564 10.6085 11.7557 10.7588 11.3896C11.1388 11.0776 11.3705 11.0546 11.8186 11.0312Z" fill="#1E3722"/>
<path d="M1.53795 12.6434C1.678 12.6415 1.81804 12.6397 1.96234 12.6378C2.11257 12.6382 2.26281 12.6386 2.4176 12.6391C2.57279 12.6383 2.72798 12.6375 2.88788 12.6367C3.21579 12.6354 3.54366 12.6358 3.87157 12.6372C4.29095 12.6389 4.71021 12.636 5.12957 12.6317C5.53083 12.6284 5.93206 12.6294 6.33333 12.63C6.48356 12.6283 6.6338 12.6267 6.78859 12.625C6.92864 12.6264 7.06869 12.6277 7.21298 12.6291C7.39734 12.6292 7.39734 12.6292 7.58542 12.6292C8.01172 12.7217 8.20878 12.9108 8.51283 13.2846C8.65067 13.8681 8.68216 14.1658 8.47589 14.7223C8.27641 15.0317 8.27641 15.0317 8.03999 15.1773C7.8053 15.1929 7.57017 15.199 7.33514 15.2008C7.18721 15.2022 7.03927 15.2036 6.88685 15.205C6.72466 15.2057 6.56247 15.2064 6.40028 15.2069C6.2345 15.2077 6.06872 15.2086 5.90294 15.2094C5.55523 15.2109 5.20753 15.2118 4.85982 15.2123C4.41407 15.2131 3.96835 15.2166 3.52261 15.2207C3.18015 15.2235 2.8377 15.2242 2.49523 15.2244C2.33089 15.2249 2.16654 15.2261 2.0022 15.228C1.77243 15.2304 1.54265 15.2299 1.31287 15.2292C1.18207 15.2298 1.05127 15.2303 0.916509 15.2308C0.592727 15.1773 0.592727 15.1773 0.373865 14.9793C0.176974 14.6331 0.182646 14.3585 0.17899 13.9398C0.175333 13.8001 0.171676 13.6605 0.167908 13.5166C0.238095 13.139 0.238095 13.139 0.493708 12.9007C0.872825 12.6763 1.11914 12.646 1.53795 12.6434Z" fill="#1E3722"/>
</g>
<defs>
<clipPath id="clip0_735_848">
<rect width="60.5238" height="41" fill="white" transform="translate(0.238098)"/>
</clipPath>
</defs>
</svg>
