<svg width="19" height="16" viewBox="0 0 19 16" fill="none" xmlns="http://www.w3.org/2000/svg">
<path fill-rule="evenodd" clip-rule="evenodd" d="M0.925486 8.13135C0.9229 7.71714 1.25658 7.37927 1.67079 7.37668L16.3602 7.28497L10.8558 1.84985C10.561 1.55863 10.558 1.0835 10.8492 0.788623C11.1404 0.493742 11.6156 0.490775 11.9104 0.781996L18.7025 7.48972C18.8442 7.62951 18.9245 7.81991 18.9257 8.01896C18.927 8.21801 18.849 8.4094 18.7091 8.55095L12.0014 15.343C11.7101 15.6378 11.235 15.6408 10.9401 15.3496C10.6452 15.0584 10.6423 14.5832 10.9335 14.2884L16.3696 8.78494L1.68015 8.87665C1.26595 8.87924 0.928072 8.54556 0.925486 8.13135Z" fill="#121714"/>
</svg>
