<svg width="22" height="22" viewBox="0 0 22 22" fill="none" xmlns="http://www.w3.org/2000/svg">
<g clip-path="url(#clip0_692_54)">
<path d="M0.877771 0.244864C0.936294 0.244588 0.936294 0.244588 0.995999 0.244306C1.07856 0.24406 1.16112 0.244037 1.24368 0.244224C1.36768 0.244359 1.49163 0.243356 1.61562 0.242263C2.4624 0.239316 3.21773 0.320649 3.86031 0.929679C4.38085 1.44944 4.55936 2.14629 4.77449 2.82954C4.78642 2.86738 4.79836 2.90523 4.81065 2.94423C4.83991 3.03702 4.86915 3.12983 4.89837 3.22263C6.41906 3.25844 7.93985 3.28166 9.46081 3.30195C9.79463 3.30641 10.1285 3.31097 10.4623 3.31554C11.06 3.32372 11.6577 3.33184 12.2554 3.33992C12.2908 3.34039 12.3262 3.34087 12.3627 3.34136C12.5421 3.34379 12.7214 3.34621 12.9007 3.34863C13.2591 3.35347 13.6175 3.35831 13.976 3.36316C14.0289 3.36388 14.0289 3.36388 14.083 3.36461C14.679 3.37267 15.275 3.38079 15.871 3.38894C16.2027 3.39347 16.5344 3.39798 16.8661 3.40242C16.9928 3.40411 17.1194 3.40581 17.2461 3.4075C17.277 3.40792 17.3079 3.40833 17.3397 3.40876C17.8401 3.41548 18.3404 3.42273 18.8408 3.4303C19.1704 3.43524 19.5001 3.43947 19.8298 3.44314C20.0356 3.44554 20.2413 3.44844 20.4471 3.45146C20.5421 3.45275 20.637 3.45382 20.732 3.45466C20.861 3.45583 20.99 3.45776 21.1191 3.45987C21.175 3.46009 21.175 3.46009 21.2321 3.46032C21.5074 3.46604 21.6985 3.52632 21.9328 3.67649C22.0847 3.9135 22.0028 4.22184 21.9459 4.4826C21.9039 4.66555 21.8594 4.84787 21.8146 5.03017C21.7952 5.11093 21.7758 5.19169 21.7564 5.27247C21.7053 5.48529 21.6535 5.69796 21.6017 5.91061C21.5503 6.12179 21.4994 6.3331 21.4486 6.5444C21.3791 6.83281 21.3092 7.12113 21.239 7.40936C21.1576 7.74336 21.0772 8.07753 20.9989 8.41226C20.9762 8.50845 20.9535 8.60463 20.9308 8.7008C20.917 8.75952 20.9033 8.81827 20.8899 8.87706C20.6933 9.73553 20.3348 10.5221 19.5764 11.0203C19.0393 11.3361 18.4894 11.4448 17.8758 11.5091C17.8104 11.5162 17.7451 11.5234 17.6797 11.5306C17.4977 11.5505 17.3156 11.5698 17.1335 11.5891C17.0129 11.6018 16.8923 11.6147 16.7718 11.6276C16.1689 11.6921 15.5659 11.7554 14.9629 11.8185C14.7032 11.8457 14.4434 11.873 14.1837 11.9002C13.6945 11.9516 13.2053 12.0028 12.7161 12.0541C12.1581 12.1125 11.6 12.1711 11.042 12.2296C9.89647 12.3498 8.75094 12.4698 7.6054 12.5898C7.57036 12.6793 7.53548 12.7688 7.50067 12.8584C7.4715 12.9331 7.4715 12.9331 7.44175 13.0094C7.30688 13.3756 7.32215 13.6599 7.46542 14.0216C7.60935 14.3282 7.80626 14.5586 8.12103 14.6953C8.38344 14.7732 8.61816 14.7935 8.89099 14.7923C8.93268 14.7925 8.97438 14.7926 9.01734 14.7928C9.15641 14.7932 9.29547 14.7931 9.43453 14.7929C9.53449 14.7931 9.63446 14.7933 9.73442 14.7936C9.94935 14.7941 10.1643 14.7943 10.3792 14.7943C10.6902 14.7944 11.0013 14.795 11.3123 14.7959C11.8173 14.7972 12.3224 14.7982 12.8274 14.799C12.8576 14.799 12.8878 14.7991 12.9189 14.7991C13.256 14.7996 13.593 14.8001 13.93 14.8004C14.0523 14.8006 14.1746 14.8007 14.2969 14.8008C14.3422 14.8009 14.3422 14.8009 14.3884 14.8009C14.8917 14.8015 15.395 14.8026 15.8984 14.804C16.2362 14.8049 16.5741 14.8053 16.9119 14.8052C17.1219 14.8053 17.3319 14.8059 17.5419 14.8066C17.6394 14.8069 17.7369 14.8069 17.8343 14.8067C17.9672 14.8064 18.1001 14.8069 18.2331 14.8076C18.2717 14.8074 18.3103 14.8071 18.3502 14.8068C18.5666 14.809 18.7204 14.8294 18.9062 14.9531C19.0226 15.1446 19.0584 15.3004 19.0196 15.5177C18.9616 15.6862 18.8402 15.7788 18.6877 15.8605C18.5103 15.9142 18.3428 15.9103 18.1584 15.9093C18.097 15.9095 18.097 15.9095 18.0345 15.9097C17.8974 15.9101 17.7603 15.9098 17.6232 15.9095C17.525 15.9096 17.4267 15.9098 17.3285 15.91C17.0614 15.9104 16.7944 15.9102 16.5273 15.91C16.2477 15.9097 15.9681 15.9099 15.6885 15.9101C15.1884 15.9102 14.6884 15.91 14.1884 15.9095C13.7358 15.9092 13.2832 15.9092 12.8307 15.9096C12.3046 15.9101 11.7786 15.9102 11.2526 15.91C10.9743 15.9099 10.696 15.9098 10.4178 15.9101C10.1558 15.9104 9.89391 15.9102 9.63197 15.9097C9.53608 15.9096 9.44019 15.9096 9.34431 15.9098C8.39644 15.9115 7.61135 15.8294 6.88568 15.1545C6.44355 14.6885 6.23529 14.0621 6.22889 13.4284C6.24861 12.9956 6.35003 12.5997 6.5473 12.2138C6.71346 11.8482 6.43954 11.3524 6.31798 10.9909C6.29606 10.9253 6.27417 10.8597 6.25229 10.794C6.20523 10.653 6.15805 10.5119 6.11077 10.371C6.03532 10.1459 5.96014 9.92085 5.885 9.69573C5.76534 9.33739 5.6455 8.9791 5.52558 8.62084C5.30042 7.94815 5.07558 7.27534 4.8508 6.60251C4.79977 6.44974 4.74872 6.29698 4.69765 6.14422C4.38957 5.22246 4.08238 4.30047 3.78512 3.37514C3.68431 3.0617 3.5812 2.74917 3.47314 2.43814C3.46283 2.40804 3.45252 2.37795 3.4419 2.34694C3.31392 1.9829 3.14086 1.68661 2.7929 1.50388C2.49418 1.38711 2.21635 1.35649 1.89794 1.35752C1.85529 1.35705 1.81264 1.35659 1.76869 1.35611C1.58812 1.35415 1.40756 1.35364 1.22698 1.35301C1.09434 1.35233 0.961725 1.35092 0.829095 1.34946C0.788539 1.34959 0.747983 1.34972 0.706198 1.34986C0.443491 1.34687 0.242282 1.31895 0.0496154 1.1222C-0.0416598 0.955067 -0.0308813 0.785841 -6.72415e-05 0.601538C0.072331 0.449935 0.171011 0.362944 0.32608 0.294851C0.512683 0.247646 0.686045 0.244661 0.877771 0.244864ZM5.24212 4.33982C5.2763 4.44924 5.31048 4.55866 5.34466 4.66807C5.35425 4.69879 5.36384 4.7295 5.37373 4.76114C5.70701 5.82791 6.06088 6.88766 6.41551 7.94746C6.47126 8.11409 6.527 8.28072 6.58271 8.44736C6.59357 8.47983 6.60443 8.51231 6.61561 8.54576C6.83351 9.19766 7.04717 9.85091 7.25694 10.5055C7.36216 10.8327 7.47139 11.1558 7.6054 11.4726C8.14789 11.4424 8.68713 11.3878 9.22744 11.3315C9.32463 11.3214 9.42181 11.3114 9.519 11.3014C9.78116 11.2743 10.0433 11.2471 10.3054 11.2199C10.5248 11.1971 10.7441 11.1744 10.9635 11.1517C11.5104 11.095 12.0573 11.0382 12.6042 10.9813C13.0783 10.932 13.5524 10.883 14.0265 10.834C14.5148 10.7835 15.003 10.7329 15.4911 10.6822C15.7647 10.6538 16.0382 10.6254 16.3118 10.5972C16.5688 10.5707 16.8258 10.5439 17.0828 10.5171C17.1769 10.5073 17.271 10.4975 17.3652 10.4879C17.494 10.4746 17.6228 10.4612 17.7516 10.4476C17.7885 10.4439 17.8254 10.4401 17.8635 10.4363C18.4531 10.3734 18.9635 10.2481 19.3788 9.79685C19.7459 9.33301 19.8342 8.74162 19.967 8.18015C19.9927 8.07379 20.0186 7.96744 20.0445 7.86112C20.0976 7.64213 20.1503 7.42304 20.2026 7.20383C20.2789 6.88391 20.3567 6.56438 20.4348 6.24488C20.4821 6.05031 20.5294 5.85571 20.5766 5.66111C20.5879 5.61467 20.5992 5.56824 20.6108 5.5204C20.6425 5.38988 20.6739 5.2593 20.7052 5.1287C20.7145 5.09023 20.7239 5.05176 20.7336 5.01212C20.742 4.9768 20.7504 4.94148 20.759 4.90509C20.7664 4.87456 20.7737 4.84403 20.7813 4.81258C20.8019 4.71292 20.8019 4.71292 20.7968 4.55466C20.0052 4.52349 19.214 4.50239 18.4219 4.49104C18.3104 4.48935 18.1989 4.48765 18.0874 4.48594C17.8189 4.48185 17.5505 4.47789 17.282 4.47398C17.0625 4.47079 16.8429 4.46755 16.6234 4.46427C16.5917 4.4638 16.5601 4.46333 16.5275 4.46285C16.4632 4.46189 16.3988 4.46093 16.3345 4.45997C15.734 4.45103 15.1334 4.44226 14.5329 4.43354C13.9906 4.42565 13.4483 4.41756 12.9059 4.40937C12.3429 4.40087 11.7798 4.39252 11.2168 4.38431C10.9032 4.37974 10.5896 4.37512 10.276 4.37034C8.5979 4.34481 6.92039 4.33478 5.24212 4.33982Z" fill="#1E3722"/>
<path d="M8.48901 17.5801C8.9345 17.9452 9.2392 18.4668 9.32422 19.0384C9.36995 19.8 9.23269 20.4046 8.7334 21.0015C8.27295 21.4941 7.70125 21.7253 7.02959 21.7483C6.33931 21.7355 5.81379 21.4835 5.32007 21.0109C4.85987 20.5298 4.68994 19.9501 4.68359 19.2962C4.7225 18.7922 4.87172 18.3501 5.19922 17.9641C5.21861 17.9386 5.23799 17.9131 5.25797 17.8868C5.56831 17.4914 6.04832 17.2143 6.54099 17.1184C7.26306 17.036 7.88947 17.1531 8.48901 17.5801ZM5.97266 18.6946C5.78716 18.9441 5.73143 19.2479 5.75781 19.554C5.82444 19.9174 5.98387 20.2034 6.27142 20.4392C6.547 20.6247 6.84273 20.7004 7.17578 20.6712C7.59015 20.5751 7.88356 20.4002 8.11136 20.0387C8.28582 19.7143 8.29319 19.3843 8.23305 19.0223C8.14528 18.7414 7.92743 18.491 7.68301 18.3327C7.04812 18.0094 6.4197 18.1564 5.97266 18.6946Z" fill="#1E3722"/>
<path d="M18.0469 17.4868C18.5844 17.9083 18.9433 18.4341 19.0352 19.1197C19.0803 19.8374 18.9101 20.4401 18.446 20.9937C18.0198 21.438 17.4568 21.6979 16.8438 21.7408C16.2028 21.7466 15.5908 21.5576 15.1062 21.1239C14.6015 20.5927 14.3771 20.001 14.3855 19.2672C14.4261 18.6065 14.7341 18.0628 15.2109 17.6158C16.0015 16.96 17.2025 16.8888 18.0469 17.4868ZM15.7239 18.6201C15.4916 18.9606 15.4207 19.2645 15.4688 19.6783C15.5552 20.0059 15.762 20.2973 16.0503 20.4764C16.3651 20.6382 16.6491 20.7239 17.002 20.6387C17.4209 20.5027 17.6776 20.2841 17.8789 19.8938C18.0157 19.5908 18.0056 19.244 17.8911 18.9344C17.7269 18.5804 17.516 18.386 17.1593 18.2222C16.6282 18.0453 16.0828 18.1869 15.7239 18.6201Z" fill="#1E3722"/>
</g>
<defs>
<clipPath id="clip0_692_54">
<rect width="22" height="22" fill="white"/>
</clipPath>
</defs>
</svg>
