<svg width="22" height="22" viewBox="0 0 22 22" fill="none" xmlns="http://www.w3.org/2000/svg">
<rect width="22" height="22" rx="11" fill="#1E3722" fill-opacity="0.48"/>
<path d="M6.47051 8.13965C6.7883 8.39764 7.07459 8.69476 7.36314 8.98443C7.40764 9.02895 7.45216 9.07345 7.49668 9.11795C7.61615 9.23741 7.73549 9.35701 7.85481 9.47663C7.98003 9.60212 8.10538 9.72749 8.23072 9.85287C8.46742 10.0897 8.70402 10.3267 8.94058 10.5637C9.21016 10.8337 9.47986 11.1037 9.74957 11.3736C10.3038 11.9283 10.8579 12.4831 11.4119 13.0381C11.5662 12.9727 11.6643 12.8819 11.7819 12.7635C11.8214 12.7239 11.861 12.6843 11.9018 12.6434C11.9453 12.5994 11.9889 12.5553 12.0324 12.5112C12.0785 12.4649 12.1246 12.4186 12.1707 12.3723C12.27 12.2727 12.3691 12.1729 12.4681 12.073C12.6248 11.9149 12.7818 11.7572 12.9389 11.5996C13.3292 11.2078 13.719 10.8157 14.1087 10.4234C14.4113 10.1187 14.7142 9.81404 15.0174 9.50986C15.1735 9.35329 15.3293 9.19643 15.4848 9.03934C15.5819 8.94148 15.6792 8.84389 15.7766 8.74637C15.8215 8.70124 15.8664 8.656 15.9111 8.61064C16.4832 8.03073 16.4832 8.03073 16.9441 8C17.2301 8.00426 17.4826 8.10878 17.6854 8.31152C17.8687 8.57668 17.9291 8.80714 17.9002 9.12793C17.845 9.3825 17.7388 9.51731 17.562 9.70759C17.5411 9.73008 17.5202 9.75257 17.4987 9.77574C17.2619 10.0292 17.0176 10.2751 16.7725 10.5204C16.7217 10.5714 16.6709 10.6224 16.6201 10.6734C16.4837 10.8103 16.3473 10.9471 16.2107 11.0838C16.1253 11.1694 16.0398 11.255 15.9544 11.3407C15.6864 11.6093 15.4183 11.8777 15.1501 12.1461C14.8415 12.4549 14.5333 12.7639 14.2252 13.0732C13.9861 13.3132 13.7468 13.553 13.5073 13.7926C13.3646 13.9353 13.222 14.0781 13.0796 14.2212C12.946 14.3555 12.8121 14.4895 12.678 14.6233C12.6289 14.6723 12.58 14.7214 12.5312 14.7707C12.4644 14.8381 12.3971 14.905 12.3298 14.9719C12.2923 15.0095 12.2549 15.047 12.2163 15.0856C11.9597 15.3072 11.7165 15.4181 11.3747 15.4099C10.7918 15.3555 10.3692 14.7519 9.97836 14.3615C9.92651 14.3098 9.87466 14.2582 9.82279 14.2065C9.68323 14.0675 9.54381 13.9284 9.40444 13.7892C9.3172 13.7021 9.22994 13.615 9.14267 13.5279C8.86915 13.255 8.59571 12.982 8.32239 12.7088C8.0077 12.3943 7.69273 12.0801 7.37751 11.7661C7.13311 11.5227 6.88896 11.2789 6.64499 11.035C6.49956 10.8897 6.35403 10.7444 6.20824 10.5994C6.07133 10.4631 5.93472 10.3266 5.79834 10.1899C5.74836 10.1399 5.69827 10.09 5.64806 10.0402C5.57935 9.97201 5.51105 9.90346 5.44284 9.8348C5.40458 9.7966 5.36632 9.75841 5.3269 9.71906C5.10396 9.46135 4.99506 9.21968 5.00017 8.87666C5.02573 8.62515 5.132 8.40394 5.31035 8.22559C5.66816 7.97813 6.08116 7.91413 6.47051 8.13965Z" fill="#1E3722"/>
</svg>
