<?xml version="1.0" encoding="UTF-8"?>
<svg version="1.1" xmlns="http://www.w3.org/2000/svg" width="512" height="512">
<path d="M0 0 C0.82537262 -0.00511093 1.65074524 -0.01022186 2.50112915 -0.01548767 C5.21192814 -0.02931346 7.92247086 -0.02843212 10.63330078 -0.02612305 C12.52987766 -0.03001399 14.42645367 -0.03434948 16.32302856 -0.03910828 C20.29220406 -0.04655554 24.26129059 -0.04629017 28.23046875 -0.04101562 C33.29981898 -0.03522475 38.36880339 -0.05215009 43.43809319 -0.0753603 C47.35362859 -0.09014114 51.2690768 -0.09096339 55.18463516 -0.08785057 C57.05281422 -0.08836165 58.92099843 -0.09355912 60.78915024 -0.10366249 C63.40914968 -0.11609351 66.02844804 -0.1091956 68.6484375 -0.09765625 C69.40924622 -0.10529999 70.17005493 -0.11294373 70.95391846 -0.12081909 C81.84100389 -0.01561417 89.66939282 4.42616863 97.21142578 12.05200195 C103.48032789 19.50222984 105.55841897 28.4656454 105.49511719 38.01416016 C105.48912506 39.18614456 105.48313293 40.35812897 105.47695923 41.56562805 C105.46925507 42.459608 105.4615509 43.35358795 105.45361328 44.2746582 C107.38348335 44.26133453 107.38348335 44.26133453 109.3523407 44.2477417 C121.51849373 44.16640919 133.68459109 44.10657466 145.85095501 44.06740952 C152.10477275 44.04659695 158.35836979 44.01839519 164.61206055 43.97290039 C170.65509502 43.92921669 176.69791813 43.90547356 182.7410984 43.89514923 C185.03861629 43.88779818 187.33612353 43.873444 189.63355064 43.85173798 C205.02860705 43.71216267 218.55328165 43.77729175 231.45361328 53.2746582 C232.29923828 53.8315332 233.14486328 54.3884082 234.01611328 54.9621582 C242.62794784 63.13236022 247.38908255 73.35514224 247.92456055 85.2109375 C248.10887378 98.30337264 244.15805839 108.47421544 235.45361328 118.2746582 C230.49515124 122.89679045 223.44661402 128.2746582 216.45361328 128.2746582 C216.45513216 129.02626217 216.45665104 129.77786613 216.45821595 130.55224597 C216.54773632 175.10250174 216.6163636 219.65274771 216.6578746 264.2030754 C216.6628774 269.55278284 216.66805469 274.9024901 216.67333984 280.25219727 C216.67438909 281.31722363 216.67543833 282.38225 216.67651936 283.4795499 C216.69392262 300.72228191 216.72545989 317.96496055 216.76222447 335.2076609 C216.79963606 352.90144002 216.8218496 370.59519121 216.82996726 388.28900826 C216.83545457 399.20625991 216.85278324 410.12336071 216.88527915 421.04056592 C216.90642971 428.52781399 216.91281208 436.01498412 216.90761879 443.5022599 C216.90505787 447.82147053 216.90897218 452.14041764 216.93043518 456.45958138 C216.94995996 460.41768216 216.95084516 464.37534323 216.93720886 468.33346464 C216.93552455 469.76163661 216.94054865 471.18983648 216.95314601 472.61795388 C217.05012133 484.29535096 215.01275517 493.11812021 207.51220703 502.23168945 C198.79967453 510.87809267 189.10562366 512.57376538 177.33428955 512.54208374 C176.10298585 512.54661485 174.87168214 512.55114597 173.60306621 512.55581439 C170.19258316 512.56627647 166.78231119 512.56778563 163.37182713 512.56542563 C159.69071 512.5650171 156.00962421 512.57606013 152.32852173 512.58554077 C145.11897472 512.60214424 137.90946042 512.60765003 130.69989589 512.60876553 C124.83818219 512.60971637 118.97647927 512.6138285 113.11476898 512.62016678 C96.48893545 512.63777792 79.86312773 512.64700593 63.23728481 512.64550583 C62.3412318 512.64542592 61.44517879 512.64534601 60.52197266 512.64526367 C59.62482311 512.64518191 58.72767356 512.64510015 57.80333766 512.64501591 C43.26721222 512.64420319 28.73119044 512.66333759 14.19509497 512.69154041 C-0.73713452 512.72028273 -15.66931347 512.73407994 -30.60157132 512.73235285 C-38.98219509 512.73168939 -47.3627102 512.73716262 -55.74330902 512.75870895 C-62.87949727 512.77693857 -70.0155276 512.78125357 -77.15172908 512.76769011 C-80.79049899 512.76116919 -84.42896613 512.76101109 -88.06770706 512.77839661 C-92.01832025 512.7970775 -95.96849358 512.78454969 -99.91912842 512.76913452 C-101.06097367 512.77942165 -102.20281892 512.78970877 -103.37926555 512.80030763 C-114.45005054 512.70498376 -122.26567004 509.48158118 -130.27685547 501.84887695 C-136.80534397 494.44393044 -139.67290054 486.91711357 -139.66943455 477.14648724 C-139.6714256 475.90689336 -139.67341664 474.66729947 -139.67546803 473.39014214 C-139.67261517 472.01747474 -139.66966958 470.64480753 -139.66664124 469.2721405 C-139.66707732 467.81177051 -139.66795291 466.35140059 -139.6692304 464.89103109 C-139.67146804 460.87756228 -139.66746404 456.86412013 -139.66245234 452.85065472 C-139.65813757 448.52282215 -139.659595 444.1949911 -139.66035461 439.86715698 C-139.6608792 432.36871675 -139.65773924 424.8702852 -139.65211678 417.37184715 C-139.6439929 406.53033792 -139.64138564 395.6888329 -139.64012878 384.84732095 C-139.63793967 367.25807486 -139.63128336 349.66883341 -139.62182617 332.07958984 C-139.61264844 314.9923505 -139.60556937 297.90511241 -139.60131836 280.81787109 C-139.60105564 279.76477527 -139.60079291 278.71167945 -139.60052223 277.62667163 C-139.5992172 272.34364766 -139.59795349 267.06062368 -139.59671032 261.77759969 C-139.58634207 217.94328265 -139.56872754 174.10897067 -139.54638672 130.2746582 C-140.22933304 130.14532898 -140.91227936 130.01599976 -141.61592102 129.88275146 C-142.51376816 129.70882874 -143.4116153 129.53490601 -144.33666992 129.35571289 C-145.6704644 129.09984406 -145.6704644 129.09984406 -147.03120422 128.83880615 C-157.70616999 126.4444431 -166.28696546 119.9076073 -172.29638672 111.0246582 C-178.87104954 100.01763843 -180.28501226 88.536393 -177.92529297 75.96606445 C-174.8363403 65.40871066 -168.25074573 55.71775494 -158.54638672 50.2746582 C-151.49341209 46.8998972 -144.86028708 44.14494096 -136.95890808 44.15440369 C-136.06854858 44.15302902 -135.17818909 44.15165436 -134.260849 44.15023804 C-133.29699783 44.15383331 -132.33314667 44.15742859 -131.34008789 44.16113281 C-130.31523285 44.16098679 -129.29037781 44.16084076 -128.23446655 44.16069031 C-124.8527412 44.16138602 -121.47107118 44.1691625 -118.08935547 44.17700195 C-115.742376 44.17886734 -113.39539614 44.18029068 -111.04841614 44.18128967 C-104.87528404 44.18510531 -98.70217552 44.19492749 -92.52905273 44.20599365 C-86.22819335 44.21622824 -79.92733015 44.22079169 -73.62646484 44.22583008 C-61.26642845 44.23655059 -48.90640955 44.2536156 -36.54638672 44.2746582 C-36.55733116 42.93307648 -36.55733116 42.93307648 -36.5684967 41.56439209 C-36.5741716 40.39209045 -36.5798465 39.21978882 -36.58569336 38.01196289 C-36.5966378 36.26819366 -36.5966378 36.26819366 -36.60780334 34.48919678 C-36.4217087 24.74902633 -32.48115888 16.03803866 -25.54638672 9.2746582 C-17.5546192 2.58058927 -10.35280926 -0.03353335 0 0 Z M-7.29638672 29.7121582 C-10.86399296 34.17166601 -9.54638672 38.29371343 -9.54638672 44.2746582 C19.49361328 44.2746582 48.53361328 44.2746582 78.45361328 44.2746582 C79.05634623 35.49147106 79.05634623 35.49147106 75.45361328 29.2746582 C71.78463796 25.60568288 67.65129957 26.14501649 62.65307617 26.12939453 C61.6401223 26.12435661 61.6401223 26.12435661 60.60670471 26.11921692 C58.37987415 26.10973728 56.153119 26.1077654 53.92626953 26.10668945 C52.37454701 26.10347511 50.82282479 26.1001109 49.27110291 26.09660339 C46.02049049 26.09061983 42.76990464 26.08876273 39.51928711 26.08935547 C35.35866158 26.08945712 31.1982066 26.0757986 27.0376215 26.05858326 C23.8334017 26.0474536 20.62922303 26.04543655 17.42498589 26.04596519 C15.89122364 26.04478678 14.35746028 26.04037278 12.82371712 26.03263283 C10.67687212 26.02281209 8.53039613 26.02571888 6.38354492 26.03173828 C5.16317032 26.03031326 3.94279572 26.02888824 2.68544006 26.02742004 C-1.29021771 26.33156206 -4.20356045 27.17162234 -7.29638672 29.7121582 Z M-148.98388672 77.8371582 C-151.74956671 82.15161899 -152.06906075 86.26649068 -151.54638672 91.2746582 C-149.52924188 96.79526512 -146.54540222 99.84241348 -141.25710565 102.3679539 C-138.19921398 103.39078349 -135.77183273 103.52758263 -132.54988384 103.53192711 C-130.73446906 103.54160045 -130.73446906 103.54160045 -128.88237923 103.55146921 C-127.54273543 103.54852705 -126.20309204 103.54539162 -124.8634491 103.54208374 C-123.43765199 103.54582053 -122.01185692 103.55042216 -120.58606511 103.55581439 C-116.66783874 103.56805633 -112.74969768 103.56778252 -108.83145654 103.56542563 C-104.60570798 103.56501777 -100.37998689 103.57605372 -96.1542511 103.58554077 C-87.87508293 103.60215831 -79.59594324 103.60765066 -71.31675979 103.60876553 C-64.58734717 103.60971565 -57.85794396 103.61382414 -51.12853432 103.62016678 C-32.05181076 103.63778128 -12.97510972 103.64700533 6.10162202 103.64550583 C7.13019369 103.64542592 8.15876535 103.64534601 9.21850586 103.64526367 C10.24833258 103.64518191 11.2781593 103.64510015 12.33919289 103.64501591 C29.03008058 103.64420296 45.72087804 103.66334236 62.41173963 103.69154041 C79.54745103 103.72026169 96.68311842 103.73408111 113.81885451 103.73235285 C123.4402117 103.73168869 133.06147431 103.73719258 142.68280983 103.75870895 C150.87455389 103.77691081 159.06616049 103.78127629 167.25791601 103.76769011 C171.43716301 103.76115539 175.61614621 103.76106127 179.79536819 103.77839661 C183.62304037 103.79411037 187.4502392 103.79128139 191.2778997 103.77382834 C193.31473909 103.76930119 195.35159306 103.78442906 197.38837558 103.80030763 C204.55262589 103.74621202 209.3969167 103.21442246 215.45361328 99.2746582 C219.63716425 94.87656616 220.7690242 91.42315297 220.66845703 85.33325195 C220.20245265 80.86808266 218.27041401 78.04846942 215.07861328 75.0246582 C210.53070819 71.99272147 206.91096143 71.02474327 201.4571104 71.0173893 C199.64169562 71.00771596 199.64169562 71.00771596 197.7896058 70.9978472 C196.449962 71.00078935 195.11031861 71.00392478 193.77067566 71.00723267 C192.34487855 71.00349588 190.91908349 70.99889424 189.49329168 70.99350202 C185.57506531 70.98126008 181.65692424 70.98153389 177.7386831 70.98389077 C173.51293455 70.98429864 169.28721345 70.97326268 165.06147766 70.96377563 C156.78230949 70.9471581 148.5031698 70.94166575 140.22398635 70.94055088 C133.49457373 70.93960076 126.76517052 70.93549226 120.03576088 70.92914963 C100.95903733 70.91153513 81.88233628 70.90231108 62.80560454 70.90381058 C61.77703287 70.90389049 60.74846121 70.9039704 59.6887207 70.90405273 C58.14398062 70.90417538 58.14398062 70.90417538 56.56803367 70.9043005 C39.87714598 70.90511345 23.18634853 70.88597404 6.49548694 70.857776 C-10.64022447 70.82905472 -27.77589186 70.81523529 -44.91162795 70.81696355 C-54.53298514 70.81762772 -64.15424774 70.81212383 -73.77558327 70.79060745 C-81.96732733 70.7724056 -90.15893393 70.76804011 -98.35068945 70.7816263 C-102.52993645 70.78816101 -106.70891965 70.78825514 -110.88814163 70.7709198 C-114.71581381 70.75520603 -118.54301263 70.75803502 -122.37067314 70.77548806 C-124.40751253 70.78001522 -126.44436649 70.76488734 -128.48114902 70.74900877 C-136.88546666 70.81246785 -142.93958442 71.48289169 -148.98388672 77.8371582 Z M-112.54638672 130.2746582 C-112.63376569 192.18187865 -112.63376569 192.18187865 -112.69287109 254.08911133 C-112.69874493 262.42903664 -112.70480644 270.76896178 -112.71118164 279.10888672 C-112.71197289 280.15419628 -112.71276413 281.19950585 -112.71357936 282.27649146 C-112.7266361 299.16400442 -112.75029241 316.0514868 -112.77784511 332.93898162 C-112.80587516 350.26322396 -112.82255789 367.58745028 -112.8286522 384.91171438 C-112.83277363 395.6063088 -112.8458024 406.30081688 -112.87013612 416.99538473 C-112.88596369 424.32373562 -112.89079385 431.6520417 -112.88689085 438.98040845 C-112.88496465 443.21186894 -112.88796868 447.44317827 -112.90400314 451.67461205 C-112.91856896 455.54665579 -112.91936082 459.41844627 -112.9090834 463.29050151 C-112.90781261 464.69300889 -112.91164636 466.09553187 -112.92103627 467.49800839 C-112.93304273 469.40162086 -112.92480736 471.305329 -112.9155302 473.20895672 C-112.91666937 474.26723728 -112.91780853 475.32551784 -112.91898221 476.41586751 C-112.48711019 479.72946563 -111.52594384 481.60283721 -109.54638672 484.2746582 C-104.14732107 487.10627157 -98.03672053 486.55611025 -92.09022522 486.53535461 C-90.93030876 486.53918016 -89.7703923 486.54300571 -88.57532686 486.54694718 C-85.36430282 486.55547077 -82.15342515 486.5550472 -78.94239724 486.55076659 C-75.47606653 486.5482981 -72.00976264 486.55731502 -68.54344177 486.56480408 C-61.75600736 486.57754945 -54.96861251 486.57934499 -48.18116815 486.57700381 C-42.66410861 486.5752204 -37.14706108 486.57697079 -31.63000298 486.58122826 C-30.45195009 486.58212104 -30.45195009 486.58212104 -29.25009815 486.58303186 C-27.65459947 486.58424362 -26.05910079 486.58545775 -24.46360212 486.58667424 C-9.50322288 486.59754904 5.45713382 486.5953875 20.41751433 486.58928939 C34.10206885 486.58411963 47.7865522 486.59537732 61.47109263 486.61438761 C75.52528735 486.63376164 89.5794484 486.64202282 103.63365656 486.63826436 C111.52287899 486.63635173 119.41204083 486.63884588 127.30125237 486.6529789 C134.0170016 486.66488808 140.73265296 486.66630277 147.44840353 486.65418873 C150.87410183 486.64829691 154.29962105 486.64720884 157.72530746 486.65919113 C161.44052784 486.66961428 165.15526534 486.6615929 168.87046814 486.64888 C169.95101485 486.65625429 171.03156155 486.66362857 172.1448521 486.67122632 C178.00583603 486.62896867 182.32466836 486.21673927 187.45361328 483.2746582 C189.76292259 479.81069424 189.70262856 478.52251884 189.69970894 474.43943501 C189.70369104 473.21427341 189.70767313 471.98911181 189.7117759 470.7268241 C189.70606946 469.36006236 189.70017826 467.99330138 189.69412231 466.62654114 C189.69499398 465.18027108 189.69674424 463.73400132 189.69930065 462.28773326 C189.70378587 458.30392029 189.69575443 454.32021427 189.68574452 450.33641493 C189.67712919 446.04399399 189.68002882 441.75157937 189.68154907 437.45915222 C189.68259914 430.01905189 189.67630983 422.57898656 189.66507339 415.13889503 C189.64883784 404.38169956 189.64361238 393.62452106 189.64109741 382.86731466 C189.63671725 365.41560251 189.62339945 347.96390904 189.60449219 330.51220703 C189.58614169 313.55680432 189.57200405 296.6014067 189.56347656 279.64599609 C189.56294057 278.59067403 189.56240457 277.53535196 189.56185234 276.44805044 C189.55769363 268.19506829 189.55377973 259.94208603 189.54994321 251.68910372 C189.53106668 211.21760475 189.49083225 170.74615249 189.45361328 130.2746582 C89.79361328 130.2746582 -9.86638672 130.2746582 -112.54638672 130.2746582 Z " fill="#000000" transform="translate(221.54638671875,-0.274658203125)"/>
<path d="M0 0 C4.49681163 2.24840581 6.91604086 4.45195231 9 9 C9.43642646 12.26497322 9.40468832 15.50287393 9.38095093 18.79284668 C9.3856309 19.7858942 9.39031087 20.77894172 9.39513266 21.80208158 C9.40710884 25.13316377 9.39761497 28.46383655 9.38818359 31.79492188 C9.39224812 34.18160747 9.39758932 36.56829118 9.40411377 38.95497131 C9.41638473 44.76666501 9.41457279 50.57822837 9.40587585 56.38992608 C9.39910024 61.11326751 9.39818204 65.83657637 9.4014473 70.55992126 C9.401907 71.23221298 9.40236669 71.9045047 9.40284032 72.59716889 C9.4037995 73.96292358 9.40477214 75.32867825 9.4057581 76.69443291 C9.4143124 89.50063934 9.40447725 102.30678134 9.388357 115.11297721 C9.37495376 126.10090379 9.37728185 137.08873529 9.39111328 148.07666016 C9.4071684 160.83708973 9.41348842 173.59746283 9.40427649 186.3579011 C9.40332084 187.71862697 9.40237773 189.07935285 9.4014473 190.44007874 C9.40098447 191.10957903 9.40052164 191.77907933 9.40004479 192.46886751 C9.39745469 197.18644772 9.40182632 201.90399211 9.40888596 206.62156677 C9.41754051 212.97123687 9.41156117 219.3207271 9.39420319 225.67037773 C9.39023029 228.0032617 9.39138605 230.33616077 9.39799118 232.66903877 C9.4061648 235.84861592 9.39593526 239.02761331 9.38095093 242.20715332 C9.38764309 243.13467895 9.39433526 244.06220458 9.40123022 245.01783705 C9.34389713 251.27156573 8.13978245 254.52587654 4 259.3125 C-0.57715109 261.88714749 -4.87323718 261.87200071 -10 261 C-13.32393229 259.39715518 -15.34646082 257.19017938 -17.13605022 253.93110561 C-18.38181935 249.70460891 -18.27872636 245.67436081 -18.26069641 241.28981018 C-18.26452196 240.30563533 -18.26834751 239.32146048 -18.27228898 238.30746216 C-18.28261583 235.00643427 -18.27862739 231.70558041 -18.2746582 228.40454102 C-18.27900483 226.03918293 -18.28418781 223.67382625 -18.29014587 221.30847168 C-18.30355198 214.8808681 -18.30411277 208.45332327 -18.30158257 202.02570844 C-18.30029974 198.01159583 -18.30291968 193.99749209 -18.30657005 189.98338127 C-18.30716524 189.316929 -18.30776043 188.65047673 -18.30837366 187.96382893 C-18.30958541 186.60991399 -18.31079955 185.25599905 -18.31201603 183.9020841 C-18.3228912 171.20650319 -18.32072914 158.51094885 -18.31463119 145.81536644 C-18.3094616 134.20258944 -18.32071857 122.58989631 -18.33972941 110.9771359 C-18.35910382 99.05078982 -18.36736453 87.12448342 -18.36360615 75.19812149 C-18.36169356 68.50330695 -18.3644517 61.80857438 -18.37832069 55.11377144 C-18.39087254 48.8190997 -18.38897988 42.52459615 -18.37590981 36.22992706 C-18.37353876 33.91842276 -18.3762975 31.60690672 -18.38453293 29.29541588 C-18.39495717 26.14247188 -18.38693414 22.99009676 -18.3742218 19.83717346 C-18.38159609 18.92034257 -18.38897037 18.00351168 -18.39656812 17.05889803 C-18.35321113 11.95487204 -17.85630039 8.41084866 -15 4 C-10.34070387 -0.21555364 -6.05395162 -1.07408819 0 0 Z " fill="#000000" transform="translate(347,177)"/>
<path d="M0 0 C4.31679774 1.45326458 6.41235482 2.88621321 8.57262611 6.98065948 C10.46976321 11.57698668 10.41729756 15.95402453 10.38095093 20.86804199 C10.3856309 21.84505302 10.39031087 22.82206405 10.39513266 23.82868147 C10.40707272 27.09360913 10.39762908 30.35811629 10.38818359 33.62304688 C10.39224972 35.96737411 10.39759183 38.31169943 10.40411377 40.65602112 C10.41778816 47.01749179 10.4124881 53.37881647 10.40297651 59.74028969 C10.39615068 65.72315871 10.40136132 71.70601436 10.4057581 77.68888301 C10.41430685 90.26052801 10.40448596 102.83210731 10.388357 115.40374154 C10.37495427 126.18407022 10.37728251 136.96430198 10.39111328 147.74462891 C10.40717821 160.27216769 10.41348293 172.79964895 10.40427649 185.3271966 C10.39953743 191.95549034 10.39897542 198.58373009 10.40888596 205.21202087 C10.41755242 211.44353315 10.41153929 217.6748624 10.39420319 223.9063549 C10.39023667 226.19324884 10.39137518 228.48015817 10.39799118 230.76704597 C10.40618998 233.88889121 10.39590467 237.01015011 10.38095093 240.13195801 C10.38764309 241.03672992 10.39433526 241.94150184 10.40123022 242.87369108 C10.35046001 248.33897409 9.60660804 252.16447483 7 257 C3.46714044 260.36052495 0.69145644 261.26771584 -4.0625 261.4375 C-8.13990836 261.25383296 -10.84813129 260.76982402 -14 258 C-17.74533576 253.33586682 -17.42196321 248.87728497 -17.38095093 243.16918945 C-17.3856309 242.17205838 -17.39031087 241.17492731 -17.39513266 240.14758015 C-17.40710918 236.802679 -17.39761483 233.45818553 -17.38818359 230.11328125 C-17.3922481 227.71674358 -17.3975893 225.32020778 -17.40411377 222.92367554 C-17.41638489 217.08791855 -17.41457271 211.25229135 -17.40587585 205.41653037 C-17.39910032 200.67364283 -17.39818201 195.93078772 -17.4014473 191.18789673 C-17.401907 190.51282965 -17.40236669 189.83776257 -17.40284032 189.14223891 C-17.4037995 187.77084723 -17.40477214 186.39945556 -17.4057581 185.02806389 C-17.41431245 172.16892244 -17.40447716 159.30984516 -17.388357 146.45071423 C-17.37495376 135.417306 -17.37728184 124.38399246 -17.39111328 113.35058594 C-17.40716831 100.53741872 -17.41348848 87.72430773 -17.40427649 74.91113186 C-17.40332084 73.54478901 -17.40237773 72.17844614 -17.4014473 70.81210327 C-17.40098447 70.13983887 -17.40052164 69.46757446 -17.40004479 68.7749384 C-17.39745467 64.03782159 -17.40182638 59.30074044 -17.40888596 54.56362915 C-17.41754039 48.1876945 -17.41156138 41.81193898 -17.39420319 35.43602371 C-17.39023022 33.09346438 -17.39138616 30.75089003 -17.39799118 28.40833664 C-17.40616456 25.21562314 -17.39593555 22.02348706 -17.38095093 18.83081055 C-17.38764309 17.89939397 -17.39433526 16.96797739 -17.40123022 16.00833607 C-17.35714873 11.18042549 -17.16160436 7.90375229 -14 4 C-9.60318671 0.21669554 -5.71168595 -1.06956281 0 0 Z " fill="#000000" transform="translate(264,177)"/>
<path d="M0 0 C3.22191547 2.77234587 5.38037017 5.00538938 5.96078753 9.36539268 C6.07554782 11.96259421 6.08712971 14.5435953 6.06845093 17.14331055 C6.0731309 18.14044162 6.07781087 19.13757269 6.08263266 20.16491985 C6.09460918 23.509821 6.08511483 26.85431447 6.07568359 30.19921875 C6.0797481 32.59575642 6.0850893 34.99229222 6.09161377 37.38882446 C6.10388489 43.22458145 6.10207271 49.06020865 6.09337585 54.89596963 C6.08660032 59.63885717 6.08568201 64.38171228 6.0889473 69.12460327 C6.08963684 70.13720389 6.08963684 70.13720389 6.09034032 71.17026109 C6.0912995 72.54165277 6.09227214 73.91304444 6.0932581 75.28443611 C6.10181245 88.14357756 6.09197716 101.00265484 6.075857 113.86178577 C6.06245376 124.895194 6.06478184 135.92850754 6.07861328 146.96191406 C6.09466831 159.77508128 6.10098848 172.58819227 6.09177649 185.40136814 C6.09082084 186.76771099 6.08987773 188.13405386 6.0889473 189.50039673 C6.08848447 190.17266113 6.08802164 190.84492554 6.08754479 191.5375616 C6.08495467 196.27467841 6.08932638 201.01175956 6.09638596 205.74887085 C6.10504039 212.1248055 6.09906138 218.50056102 6.08170319 224.87647629 C6.07773022 227.21903562 6.07888616 229.56160997 6.08549118 231.90416336 C6.09366456 235.09687686 6.08343555 238.28901294 6.06845093 241.48168945 C6.07514309 242.41310603 6.08183526 243.34452261 6.08873022 244.30416393 C6.0446127 249.13602015 5.83540092 252.39236304 2.6875 256.3125 C-1.1536023 259.68801414 -4.95566455 259.83194055 -9.875 259.65625 C-13.60439598 259.13030954 -15.59896803 257.89366456 -18.3125 255.3125 C-21.39086217 249.59956302 -21.74283713 244.86808187 -21.70018005 238.45118713 C-21.70556559 237.47488167 -21.71095113 236.49857621 -21.71649987 235.49268574 C-21.73077639 232.23010202 -21.72367633 228.96792419 -21.71655273 225.70532227 C-21.72225643 223.36261672 -21.72922069 221.01991396 -21.73735046 218.67721558 C-21.75529656 212.31981761 -21.75411074 205.96255757 -21.74840808 199.60514188 C-21.74492747 193.62512968 -21.75287872 187.64513453 -21.75976873 181.66512763 C-21.77348668 169.0982255 -21.768061 156.53138568 -21.75658352 143.96448498 C-21.74665127 132.47602179 -21.75959285 120.98771965 -21.78351771 109.49928129 C-21.80791934 97.69263474 -21.81751402 85.88606316 -21.81086498 74.0793919 C-21.80737519 67.45495629 -21.80992469 60.8306287 -21.82711601 54.20620918 C-21.84257585 47.97711709 -21.83863986 41.74833268 -21.81981087 35.51925278 C-21.81612243 33.23438895 -21.81924081 30.94950238 -21.82969666 28.6646595 C-21.84289022 25.5430169 -21.83137267 22.42239534 -21.81370544 19.30079651 C-21.82331045 18.39893744 -21.83291546 17.49707836 -21.84281152 16.56789023 C-21.77510908 10.74469311 -20.71714988 6.13299633 -17.3125 1.3125 C-11.76393197 -2.72282221 -6.00890659 -3.06114109 0 0 Z " fill="#000000" transform="translate(185.3125,178.6875)"/>
</svg>
