<svg width="512" height="512" viewBox="0 0 512 512" fill="none" xmlns="http://www.w3.org/2000/svg">
<g clip-path="url(#clip0_826_685)">
<path opacity="0.982" fill-rule="evenodd" clip-rule="evenodd" d="M511.5 68.5C511.5 73.5 511.5 78.5 511.5 83.5C508.136 93.6921 501.136 99.8587 490.5 102C333.833 102.667 177.167 102.667 20.5 102C9.86383 99.8587 2.86383 93.6921 -0.5 83.5C-0.5 78.5 -0.5 73.5 -0.5 68.5C3.04976 59.7885 9.38309 53.9552 18.5 51C176.5 50.3333 334.5 50.3333 492.5 51C501.617 53.9552 507.95 59.7885 511.5 68.5Z" fill="white"/>
<path opacity="0.982" fill-rule="evenodd" clip-rule="evenodd" d="M511.5 248.5C511.5 253.167 511.5 257.833 511.5 262.5C508.241 272.256 501.575 278.422 491.5 281C334.167 281.667 176.833 281.667 19.5 281C9.4253 278.422 2.75863 272.256 -0.5 262.5C-0.5 257.833 -0.5 253.167 -0.5 248.5C2.75863 238.744 9.4253 232.578 19.5 230C176.833 229.333 334.167 229.333 491.5 230C501.575 232.578 508.241 238.744 511.5 248.5Z" fill="white"/>
<path opacity="0.982" fill-rule="evenodd" clip-rule="evenodd" d="M511.5 427.5C511.5 432.5 511.5 437.5 511.5 442.5C507.95 451.211 501.617 457.045 492.5 460C334.5 460.667 176.5 460.667 18.5 460C9.38309 457.045 3.04976 451.211 -0.5 442.5C-0.5 437.5 -0.5 432.5 -0.5 427.5C2.86383 417.308 9.86383 411.141 20.5 409C177.167 408.333 333.833 408.333 490.5 409C501.136 411.141 508.136 417.308 511.5 427.5Z" fill="white"/>
</g>
<defs>
<clipPath id="clip0_826_685">
<rect width="512" height="512" fill="white"/>
</clipPath>
</defs>
</svg>
