<svg width="6" height="4" viewBox="0 0 6 4" fill="none" xmlns="http://www.w3.org/2000/svg">
<path d="M0.507623 2.00069C0.53001 2.00062 0.552396 2.00052 0.574783 2.00039C0.636125 2.00013 0.697465 2.00026 0.758808 2.00045C0.82503 2.0006 0.891253 2.00038 0.957475 2.0002C1.08714 1.99992 1.2168 1.99998 1.34646 2.00016C1.45184 2.00031 1.55723 2.00033 1.66261 2.00026C1.67761 2.00025 1.69261 2.00024 1.70807 2.00023C1.73854 2.00021 1.76902 2.00019 1.79949 2.00017C2.07709 1.99999 2.35468 2.00017 2.63227 2.00051C2.88556 2.00081 3.13886 2.00078 3.39215 2.00048C3.67687 2.00014 3.96159 2 4.2463 2.0002C4.27667 2.00022 4.30703 2.00024 4.33739 2.00026C4.3598 2.00027 4.3598 2.00027 4.38266 2.00029C4.48791 2.00034 4.59316 2.00025 4.69841 2.0001C4.82669 1.99992 4.95496 1.99997 5.08323 2.00031C5.14867 2.00048 5.21411 2.00054 5.27956 2.00033C5.33948 2.00014 5.3994 2.00025 5.45932 2.00058C5.48098 2.00065 5.50264 2.00062 5.5243 2.00046C5.66724 1.99953 5.79202 2.00749 5.90054 2.14895C5.97794 2.27252 6.0065 2.40471 5.99879 2.56481C5.98385 2.70176 5.93751 2.82034 5.85482 2.9038C5.74175 3.00683 5.62343 3.00024 5.49238 2.99931C5.46999 2.99938 5.4476 2.99948 5.42522 2.99961C5.36387 2.99987 5.30254 2.99974 5.24119 2.99955C5.17497 2.9994 5.10875 2.99962 5.04252 2.9998C4.91286 3.00008 4.7832 3.00002 4.65354 2.99984C4.54816 2.99969 4.44277 2.99967 4.33739 2.99974C4.32239 2.99975 4.30739 2.99976 4.29193 2.99977C4.26146 2.99979 4.23098 2.99981 4.20051 2.99983C3.92292 3.00001 3.64532 2.99983 3.36773 2.99949C3.11444 2.99919 2.86114 2.99922 2.60785 2.99952C2.32313 2.99986 2.03841 3 1.7537 2.9998C1.72333 2.99978 1.69297 2.99976 1.66261 2.99974C1.6402 2.99973 1.6402 2.99973 1.61734 2.99971C1.51209 2.99966 1.40684 2.99975 1.30159 2.9999C1.17331 3.00008 1.04504 3.00003 0.916767 2.99969C0.851325 2.99952 0.785886 2.99946 0.720445 2.99967C0.66052 2.99986 0.6006 2.99975 0.540677 2.99942C0.519018 2.99935 0.497358 2.99938 0.475699 2.99954C0.332762 3.00047 0.207984 2.99251 0.099464 2.85105C0.0220583 2.72748 -0.00649616 2.59529 0.001215 2.43519C0.0161488 2.29824 0.0624883 2.17966 0.145176 2.0962C0.258251 1.99317 0.376566 1.99976 0.507623 2.00069Z" fill="black"/>
</svg>
