<svg width="22" height="22" viewBox="0 0 22 22" fill="none" xmlns="http://www.w3.org/2000/svg">
<rect x="22" y="22" width="22" height="22" rx="11" transform="rotate(-180 22 22)" fill="#1E3722" fill-opacity="0.48"/>
<path d="M15.5295 13.8604C15.2117 13.6024 14.9254 13.3052 14.6369 13.0156C14.5924 12.9711 14.5478 12.9265 14.5033 12.882C14.3838 12.7626 14.2645 12.643 14.1452 12.5234C14.02 12.3979 13.8946 12.2725 13.7693 12.1471C13.5326 11.9103 13.296 11.6733 13.0594 11.4363C12.7898 11.1663 12.5201 10.8963 12.2504 10.6264C11.6962 10.0717 11.1421 9.51687 10.5881 8.96191C10.4338 9.02731 10.3357 9.11808 10.2181 9.23647C10.1786 9.27611 10.139 9.31575 10.0982 9.35659C10.0547 9.40064 10.0111 9.4447 9.96759 9.48876C9.9215 9.53508 9.8754 9.58138 9.82928 9.62766C9.73003 9.72733 9.63091 9.82713 9.53189 9.92702C9.3752 10.0851 9.21815 10.2428 9.06105 10.4004C8.67081 10.7922 8.28097 11.1843 7.89134 11.5766C7.58865 11.8813 7.28584 12.186 6.98256 12.4901C6.82648 12.6467 6.67071 12.8036 6.51516 12.9607C6.41812 13.0585 6.32082 13.1561 6.22344 13.2536C6.17848 13.2988 6.13363 13.344 6.08891 13.3894C5.51684 13.9693 5.51684 13.9693 5.05586 14C4.76987 13.9957 4.51739 13.8912 4.31465 13.6885C4.13127 13.4233 4.07091 13.1929 4.0998 12.8721C4.15496 12.6175 4.26122 12.4827 4.43803 12.2924C4.45892 12.2699 4.47981 12.2474 4.50133 12.2243C4.73811 11.9708 4.98242 11.7249 5.22752 11.4796C5.27834 11.4286 5.32914 11.3776 5.37994 11.3266C5.51627 11.1897 5.65274 11.0529 5.78926 10.9162C5.87474 10.8306 5.9602 10.745 6.04565 10.6593C6.31363 10.3907 6.5817 10.1223 6.8499 9.8539C7.15846 9.54514 7.46674 9.23611 7.77478 8.92683C8.01387 8.6868 8.25321 8.44703 8.49275 8.20744C8.63544 8.0647 8.77803 7.92186 8.92036 7.77876C9.05396 7.64445 9.18786 7.51046 9.32201 7.37669C9.37105 7.32768 9.41998 7.27856 9.4688 7.22932C9.53564 7.16193 9.60287 7.09495 9.67021 7.02806C9.70766 6.99055 9.74511 6.95303 9.7837 6.91438C10.0403 6.69283 10.2835 6.58187 10.6253 6.59007C11.2082 6.64452 11.6308 7.24805 12.0216 7.63855C12.0735 7.69019 12.1253 7.74183 12.1772 7.79346C12.3168 7.93247 12.4562 8.07161 12.5956 8.21079C12.6828 8.2979 12.7701 8.38498 12.8573 8.47206C13.1309 8.745 13.4043 9.01802 13.6776 9.29117C13.9923 9.60567 14.3073 9.91989 14.6225 10.2339C14.8669 10.4773 15.111 10.7211 15.355 10.965C15.5004 11.1103 15.646 11.2556 15.7918 11.4006C15.9287 11.5369 16.0653 11.6734 16.2017 11.8101C16.2516 11.8601 16.3017 11.91 16.3519 11.9598C16.4207 12.028 16.4889 12.0965 16.5572 12.1652C16.5954 12.2034 16.6337 12.2416 16.6731 12.2809C16.896 12.5387 17.0049 12.7803 16.9998 13.1233C16.9743 13.3748 16.868 13.5961 16.6896 13.7744C16.3318 14.0219 15.9188 14.0859 15.5295 13.8604Z" fill="#1E3722"/>
</svg>
