<svg width="6" height="6" viewBox="0 0 6 6" fill="none" xmlns="http://www.w3.org/2000/svg">
<g opacity="0.8" clip-path="url(#clip0_796_1574)">
<path d="M3.17403 0.0484684C3.24433 0.099717 3.28005 0.158229 3.30411 0.24193C3.30865 0.27686 3.30871 0.311202 3.30832 0.34639C3.30835 0.356496 3.30838 0.366602 3.30842 0.377014C3.30847 0.410657 3.30828 0.444293 3.30809 0.477935C3.30808 0.502138 3.30808 0.526341 3.3081 0.550545C3.30811 0.616099 3.30791 0.68165 3.30766 0.747204C3.30744 0.815768 3.30742 0.884332 3.30738 0.952896C3.30727 1.08266 3.30698 1.21243 3.30663 1.3422C3.30624 1.48996 3.30605 1.63773 3.30587 1.78549C3.3055 2.0894 3.30489 2.3933 3.30411 2.6972C3.31668 2.69717 3.32925 2.69713 3.3422 2.6971C3.64814 2.69632 3.95408 2.69574 4.26002 2.69538C4.40797 2.6952 4.55592 2.69495 4.70387 2.69455C4.83282 2.6942 4.96177 2.69398 5.09073 2.6939C5.15901 2.69385 5.22728 2.69374 5.29556 2.69349C5.35985 2.69325 5.42413 2.69318 5.48841 2.69323C5.51199 2.69322 5.53556 2.69315 5.55913 2.69302C5.59137 2.69284 5.6236 2.69288 5.65584 2.69298C5.66512 2.69288 5.67441 2.69278 5.68398 2.69267C5.78049 2.69344 5.85632 2.72404 5.92683 2.79078C5.99299 2.86554 6.00264 2.94495 5.99948 3.04279C5.98791 3.13218 5.94718 3.19784 5.8789 3.25543C5.80514 3.2987 5.7396 3.31031 5.65584 3.30939C5.64573 3.30942 5.63562 3.30945 5.6252 3.30948C5.59155 3.30953 5.5579 3.30934 5.52424 3.30915C5.50003 3.30914 5.47582 3.30915 5.4516 3.30917C5.38602 3.30918 5.32045 3.30897 5.25487 3.30872C5.18628 3.3085 5.11769 3.30848 5.04909 3.30844C4.91928 3.30833 4.78946 3.30805 4.65964 3.30769C4.51181 3.3073 4.36399 3.30711 4.21617 3.30693C3.91215 3.30657 3.60813 3.30595 3.30411 3.30517C3.30414 3.31774 3.30417 3.3303 3.3042 3.34325C3.30498 3.64907 3.30556 3.95489 3.30592 4.2607C3.3061 4.40859 3.30635 4.55649 3.30675 4.70438C3.3071 4.83328 3.30733 4.96218 3.30741 5.09109C3.30745 5.15934 3.30756 5.22759 3.30782 5.29584C3.30805 5.3601 3.30813 5.42435 3.30807 5.48861C3.30808 5.51218 3.30815 5.53574 3.30829 5.55931C3.30846 5.59153 3.30842 5.62375 3.30832 5.65598C3.30843 5.66526 3.30853 5.67454 3.30863 5.6841C3.30786 5.78057 3.27725 5.85638 3.21049 5.92686C3.13569 5.99299 3.05626 6.00264 2.95838 5.99948C2.86896 5.98791 2.80326 5.9472 2.74565 5.87895C2.70236 5.80522 2.69075 5.7397 2.69167 5.65598C2.69164 5.64587 2.69161 5.63576 2.69158 5.62535C2.69153 5.59171 2.69172 5.55807 2.69191 5.52443C2.69192 5.50023 2.69192 5.47602 2.6919 5.45182C2.69189 5.38627 2.69209 5.32072 2.69234 5.25516C2.69256 5.1866 2.69258 5.11803 2.69262 5.04947C2.69273 4.9197 2.69302 4.78993 2.69337 4.66017C2.69376 4.5124 2.69395 4.36464 2.69413 4.21687C2.6945 3.91297 2.69511 3.60907 2.69589 3.30517C2.68332 3.3052 2.67075 3.30523 2.6578 3.30527C2.35186 3.30605 2.04592 3.30662 1.73998 3.30699C1.59203 3.30717 1.44408 3.30741 1.29613 3.30781C1.16718 3.30816 1.03823 3.30839 0.909271 3.30847C0.840993 3.30851 0.772715 3.30862 0.704437 3.30888C0.640154 3.30912 0.575873 3.30919 0.511589 3.30914C0.488015 3.30914 0.46444 3.30921 0.440865 3.30935C0.408628 3.30952 0.376397 3.30948 0.344159 3.30939C0.334875 3.30949 0.32559 3.30959 0.316025 3.3097C0.219512 3.30892 0.143678 3.27832 0.0731685 3.21159C0.00701043 3.13682 -0.00264455 3.05742 0.000523153 2.95958C0.0120942 2.87019 0.0528236 2.80452 0.121096 2.74693C0.194858 2.70366 0.2604 2.69206 0.344159 2.69298C0.35427 2.69295 0.36438 2.69292 0.374796 2.69289C0.408452 2.69283 0.442101 2.69302 0.475756 2.69322C0.499969 2.69323 0.524182 2.69322 0.548395 2.6932C0.613975 2.69319 0.679552 2.6934 0.745132 2.69364C0.813723 2.69386 0.882314 2.69388 0.950905 2.69392C1.08072 2.69403 1.21054 2.69432 1.34036 2.69467C1.48819 2.69506 1.63601 2.69526 1.78383 2.69543C2.08785 2.6958 2.39187 2.69642 2.69589 2.6972C2.69586 2.68463 2.69583 2.67206 2.6958 2.65911C2.69502 2.3533 2.69444 2.04748 2.69408 1.74166C2.6939 1.59377 2.69365 1.44588 2.69325 1.29799C2.6929 1.16909 2.69267 1.04018 2.69259 0.911279C2.69255 0.843027 2.69244 0.774776 2.69218 0.706525C2.69195 0.642267 2.69187 0.578012 2.69193 0.513754C2.69192 0.490188 2.69185 0.466623 2.69171 0.443057C2.69154 0.410832 2.69158 0.378615 2.69167 0.34639C2.69157 0.337109 2.69147 0.327828 2.69137 0.318266C2.69214 0.221792 2.72275 0.145987 2.78951 0.0755055C2.89548 -0.0181916 3.05394 -0.0217047 3.17403 0.0484684Z" fill="black"/>
</g>
<defs>
<clipPath id="clip0_796_1574">
<rect width="6" height="6" fill="white"/>
</clipPath>
</defs>
</svg>
