<svg width="13" height="13" viewBox="0 0 13 13" fill="none" xmlns="http://www.w3.org/2000/svg">
<path d="M12.4774 5.65121L9.90444 7.87136L10.6883 11.1916C10.7316 11.3718 10.7204 11.5608 10.6563 11.7347C10.5922 11.9086 10.478 12.0597 10.3281 12.1687C10.1782 12.2777 9.99933 12.3399 9.81412 12.3473C9.62892 12.3547 9.44566 12.3071 9.28751 12.2105L6.40012 10.4334L3.51101 12.2105C3.35287 12.3066 3.16984 12.3537 2.98495 12.346C2.80006 12.3383 2.62159 12.2761 2.472 12.1671C2.32242 12.0582 2.20841 11.9074 2.14433 11.7338C2.08025 11.5602 2.06897 11.3716 2.11191 11.1916L2.89865 7.87136L0.325725 5.65121C0.185814 5.53029 0.0846279 5.37082 0.0348032 5.19274C-0.0150215 5.01465 -0.0112763 4.82583 0.0455709 4.64986C0.102418 4.47389 0.209848 4.31857 0.354444 4.20329C0.49904 4.08801 0.674394 4.01789 0.858607 4.00168L4.232 3.72952L5.53332 0.580258C5.60376 0.408625 5.72365 0.261815 5.87774 0.158492C6.03183 0.0551686 6.21316 0 6.39869 0C6.58421 0 6.76554 0.0551686 6.91963 0.158492C7.07372 0.261815 7.19361 0.408625 7.26405 0.580258L8.5648 3.72952L11.9382 4.00168C12.1228 4.01729 12.2986 4.08702 12.4438 4.20214C12.5889 4.31726 12.6968 4.47264 12.754 4.64883C12.8112 4.82501 12.8151 5.01416 12.7653 5.19257C12.7155 5.37098 12.6141 5.53072 12.4739 5.65178L12.4774 5.65121Z" fill="#F0C93A"/>
</svg>
