<svg width="13" height="13" viewBox="0 0 13 13" fill="none" xmlns="http://www.w3.org/2000/svg">
<path d="M10.7982 6.43803L10.8006 6.43763L9.57779 7.4928L9.34811 7.69099L9.41782 7.98624L10.2017 11.3065L10.2021 11.3082C10.2223 11.3924 10.2171 11.4806 10.1872 11.5618C10.1573 11.643 10.1039 11.7134 10.034 11.7643C9.964 11.8152 9.88052 11.8442 9.79407 11.8477C9.70784 11.8512 9.62251 11.8291 9.54882 11.7842C9.54863 11.7841 9.54845 11.7839 9.54826 11.7838L6.66218 10.0076L6.40019 9.84636L6.13816 10.0075L3.25132 11.7832C3.25099 11.7834 3.25066 11.7836 3.25033 11.7838C3.17674 11.8282 3.09169 11.85 3.00577 11.8465C2.91948 11.8429 2.83617 11.8138 2.76634 11.763C2.69652 11.7121 2.6433 11.6417 2.61339 11.5607C2.58348 11.4797 2.57822 11.3916 2.59826 11.3076L2.59843 11.3069L3.38518 7.98664L3.45519 7.69117L3.2253 7.4928L0.652673 5.27291C0.652586 5.27284 0.652499 5.27276 0.652412 5.27269C0.652399 5.27268 0.652386 5.27267 0.652373 5.27266C0.58695 5.21601 0.539631 5.14137 0.516313 5.05802C0.492959 4.97455 0.494715 4.88605 0.52136 4.80357C0.548005 4.72109 0.598359 4.64828 0.666134 4.59425C0.733522 4.54053 0.815162 4.50773 0.900965 4.49988L4.27221 4.2279L4.57723 4.20329L4.6941 3.92047L5.99543 0.771207L5.99589 0.770093C6.02867 0.690203 6.08448 0.621867 6.1562 0.573773C6.22792 0.525679 6.31233 0.5 6.39869 0.5C6.48504 0.5 6.56945 0.525679 6.64117 0.573773C6.7129 0.621867 6.7687 0.690203 6.80148 0.770093L6.80191 0.771135L8.10267 3.92039L8.21951 4.20329L8.52459 4.2279L11.8961 4.4999C11.8963 4.49992 11.8966 4.49994 11.8968 4.49996C11.9831 4.50741 12.0652 4.54006 12.133 4.59386C12.201 4.64782 12.2516 4.72065 12.2784 4.80323C12.3053 4.88581 12.3071 4.97446 12.2837 5.05809C12.2604 5.14171 12.2129 5.21659 12.1472 5.27333L10.7982 6.43803Z" stroke="#F0C93A"/>
</svg>
