<svg width="50" height="50" viewBox="0 0 50 50" fill="none" xmlns="http://www.w3.org/2000/svg">
<g clip-path="url(#clip0_738_130)">
<path d="M39.0625 31.25C36.8993 31.25 34.7846 30.6085 32.986 29.4067C31.1873 28.2049 29.7854 26.4967 28.9576 24.4981C28.1297 22.4995 27.9131 20.3004 28.3352 18.1787C28.7572 16.057 29.7989 14.1082 31.3285 12.5785C32.8582 11.0489 34.807 10.0072 36.9287 9.58517C39.0504 9.16314 41.2495 9.37974 43.2481 10.2076C45.2467 11.0354 46.9549 12.4373 48.1567 14.236C49.3585 16.0346 50 18.1493 50 20.3125L50.05 21.875C50.05 24.7477 49.4842 27.5922 48.3849 30.2462C47.2855 32.9002 45.6742 35.3117 43.643 37.343C41.6117 39.3743 39.2002 40.9856 36.5462 42.0849C33.8922 43.1842 31.0477 43.75 28.175 43.75V37.5C30.2278 37.5055 32.2613 37.104 34.158 36.3188C36.0547 35.5335 37.7769 34.38 39.225 32.925C39.7879 32.3633 40.3071 31.7595 40.7781 31.1188C40.2105 31.2073 39.637 31.2522 39.0625 31.2531V31.25ZM10.9375 31.25C8.77427 31.25 6.65962 30.6085 4.86096 29.4067C3.06229 28.2049 1.66041 26.4967 0.832573 24.4981C0.00473911 22.4995 -0.21186 20.3004 0.210166 18.1787C0.632192 16.057 1.67389 14.1082 3.20352 12.5785C4.73316 11.0489 6.68204 10.0072 8.80371 9.58517C10.9254 9.16314 13.1245 9.37974 15.1231 10.2076C17.1217 11.0354 18.8299 12.4373 20.0317 14.236C21.2335 16.0346 21.875 18.1493 21.875 20.3125L21.925 21.875C21.925 27.6766 19.6203 33.2406 15.518 37.343C11.4156 41.4453 5.85162 43.75 0.0500049 43.75V37.5C2.10281 37.5055 4.13635 37.104 6.03302 36.3188C7.9297 35.5335 9.65189 34.38 11.1 32.925C11.6629 32.3633 12.1821 31.7595 12.6531 31.1188C12.0855 31.2073 11.512 31.2522 10.9375 31.2531V31.25Z" fill="#A3ADA4" fill-opacity="0.38"/>
</g>
<defs>
<clipPath id="clip0_738_130">
<rect width="50" height="50" fill="white"/>
</clipPath>
</defs>
</svg>
