<svg width="38" height="38" viewBox="0 0 38 38" fill="none" xmlns="http://www.w3.org/2000/svg">
<rect width="38" height="38" rx="19" fill="url(#paint0_linear_741_580)"/>
<path d="M10.4587 12.6815C10.4863 12.6814 10.514 12.6813 10.5425 12.6812C10.6356 12.6809 10.7288 12.6809 10.822 12.6809C10.8893 12.6807 10.9565 12.6806 11.0238 12.6804C11.2091 12.68 11.3943 12.6798 11.5796 12.6796C11.7793 12.6794 11.979 12.679 12.1786 12.6786C12.6611 12.6778 13.1435 12.6773 13.626 12.6768C13.7622 12.6767 13.8985 12.6766 14.0348 12.6764C14.8809 12.6755 15.727 12.6748 16.5731 12.6743C16.7691 12.6742 16.9651 12.6741 17.1611 12.674C17.2098 12.674 17.2586 12.674 17.3088 12.6739C18.0978 12.6735 18.8869 12.6723 19.676 12.6709C20.4861 12.6694 21.2962 12.6685 22.1062 12.6684C22.5611 12.6682 23.0159 12.6678 23.4708 12.6667C23.8582 12.6657 24.2456 12.6653 24.633 12.6657C24.8306 12.6659 25.0282 12.6658 25.2258 12.6649C25.4069 12.6641 25.588 12.6641 25.7691 12.6648C25.8344 12.6649 25.8997 12.6647 25.965 12.6642C26.5491 12.6598 26.9887 12.7729 27.4233 13.1625C27.6693 13.4093 27.8467 13.7471 27.8477 14.0882C27.8479 14.1236 27.8481 14.1591 27.8483 14.1955C27.8483 14.2538 27.8483 14.2538 27.8483 14.3133C27.8485 14.3546 27.8487 14.3959 27.8488 14.4385C27.8492 14.5532 27.8495 14.6679 27.8496 14.7827C27.8499 14.9064 27.8503 15.0301 27.8507 15.1539C27.8516 15.4528 27.8521 15.7517 27.8526 16.0506C27.8528 16.1351 27.8529 16.2195 27.8531 16.304C27.854 16.8288 27.8548 17.3537 27.8553 17.8785C27.8554 18.0001 27.8555 18.1216 27.8556 18.2432C27.8556 18.2734 27.8556 18.3036 27.8557 18.3347C27.8561 18.8237 27.8574 19.3127 27.8589 19.8016C27.8605 20.304 27.8614 20.8063 27.8616 21.3087C27.8617 21.5906 27.8621 21.8725 27.8633 22.1544C27.8644 22.3946 27.8648 22.6348 27.8644 22.8749C27.8642 22.9974 27.8643 23.1197 27.8652 23.2422C27.866 23.3753 27.8657 23.5084 27.8651 23.6415C27.8657 23.6796 27.8662 23.7177 27.8667 23.757C27.8617 24.2185 27.6697 24.5812 27.3399 24.9113C27.0437 25.1762 26.6762 25.314 26.2747 25.3133C26.2471 25.3134 26.2194 25.3135 26.1909 25.3136C26.0978 25.3139 26.0046 25.3139 25.9114 25.3139C25.8441 25.314 25.7769 25.3142 25.7096 25.3144C25.5243 25.3148 25.3391 25.315 25.1538 25.3152C24.9541 25.3154 24.7544 25.3158 24.5548 25.3161C24.0723 25.317 23.5899 25.3175 23.1074 25.318C22.9712 25.3181 22.8349 25.3182 22.6986 25.3184C21.8525 25.3193 21.0064 25.32 20.1603 25.3205C19.9643 25.3206 19.7683 25.3207 19.5723 25.3208C19.4992 25.3208 19.4992 25.3208 19.4246 25.3209C18.6356 25.3213 17.8465 25.3225 17.0574 25.3239C16.2473 25.3254 15.4372 25.3263 14.6271 25.3264C14.1723 25.3266 13.7175 25.327 13.2626 25.3281C12.8752 25.3291 12.4878 25.3295 12.1004 25.3291C11.9028 25.3289 11.7052 25.329 11.5076 25.3299C11.3265 25.3307 11.1454 25.3306 10.9643 25.33C10.899 25.3299 10.8337 25.3301 10.7684 25.3306C10.1843 25.335 9.74473 25.2219 9.31008 24.8323C9.06414 24.5855 8.88665 24.2477 8.88569 23.9066C8.8855 23.8712 8.88531 23.8357 8.88512 23.7992C8.8851 23.7604 8.88508 23.7216 8.88507 23.6815C8.8849 23.6402 8.88474 23.5989 8.88457 23.5563C8.88416 23.4416 8.88392 23.3269 8.88375 23.2121C8.88353 23.0884 8.8831 22.9647 8.88271 22.8409C8.8818 22.542 8.88126 22.2431 8.88078 21.9442C8.88064 21.8597 8.88049 21.7753 8.88034 21.6908C8.87941 21.166 8.87859 20.6411 8.87813 20.1163C8.87802 19.9947 8.87791 19.8732 8.8778 19.7516C8.87778 19.7214 8.87775 19.6912 8.87772 19.6601C8.87725 19.1711 8.87602 18.6821 8.87448 18.1932C8.87291 17.6908 8.87204 17.1885 8.87184 16.6861C8.87172 16.4042 8.87128 16.1223 8.87006 15.8404C8.86902 15.6002 8.86862 15.36 8.86903 15.1199C8.86922 14.9974 8.86912 14.875 8.8682 14.7526C8.86736 14.6195 8.86767 14.4864 8.86826 14.3533C8.86774 14.3152 8.86723 14.277 8.8667 14.2377C8.87168 13.7763 9.06375 13.4136 9.39351 13.0835C9.68972 12.8186 10.0572 12.6808 10.4587 12.6815ZM10.8526 13.7381C11.027 13.9324 11.027 13.9324 11.2102 14.1165C11.2347 14.1399 11.2593 14.1633 11.2846 14.1874C11.3241 14.2248 11.3241 14.2248 11.3643 14.2628C11.3928 14.2899 11.4213 14.317 11.4506 14.3449C11.5456 14.4352 11.6407 14.5253 11.7357 14.6154C11.804 14.6803 11.8723 14.7451 11.9406 14.81C12.1257 14.9858 12.311 15.1615 12.4963 15.3372C12.612 15.4469 12.7277 15.5567 12.8434 15.6664C13.164 15.9705 13.4846 16.2745 13.8053 16.5784C13.8258 16.5978 13.8463 16.6172 13.8674 16.6372C13.8879 16.6567 13.9084 16.6761 13.9296 16.6962C13.9712 16.7356 14.0128 16.775 14.0544 16.8145C14.0751 16.834 14.0957 16.8536 14.117 16.8737C14.4519 17.1911 14.7866 17.5087 15.1211 17.8265C15.4649 18.1529 15.8088 18.4792 16.153 18.8052C16.3461 18.9882 16.5392 19.1712 16.732 19.3545C16.9132 19.5267 17.0946 19.6986 17.2763 19.8704C17.3429 19.9335 17.4095 19.9968 17.476 20.0601C17.5666 20.1464 17.6576 20.2323 17.7486 20.3182C17.775 20.3434 17.8014 20.3687 17.8286 20.3947C18.023 20.5771 18.1538 20.6509 18.4348 20.658C18.6947 20.6166 18.8581 20.44 19.0348 20.2708C19.0641 20.2431 19.0935 20.2154 19.1237 20.1869C19.2221 20.094 19.32 20.0008 19.4179 19.9075C19.4883 19.8409 19.5587 19.7743 19.6291 19.7077C19.8005 19.5455 19.9715 19.3831 20.1425 19.2206C20.3415 19.0315 20.5408 18.8427 20.7401 18.6539C21.0956 18.3171 21.4508 17.9801 21.8058 17.643C22.1506 17.3155 22.4956 16.9883 22.8408 16.6612C22.8621 16.641 22.8833 16.6209 22.9053 16.6001C22.9481 16.5595 22.991 16.5189 23.0339 16.4782C23.055 16.4582 23.0762 16.4382 23.098 16.4175C23.119 16.3975 23.1401 16.3775 23.1619 16.357C23.4905 16.0455 23.819 15.7339 24.1475 15.4223C24.2667 15.3093 24.386 15.1962 24.5052 15.0832C24.6942 14.904 24.8831 14.7248 25.072 14.5454C25.1583 14.4634 25.2446 14.3815 25.331 14.2996C25.4245 14.211 25.5178 14.1223 25.6111 14.0336C25.6387 14.0074 25.6664 13.9813 25.6949 13.9543C25.732 13.919 25.732 13.919 25.7699 13.8829C25.7915 13.8624 25.813 13.8419 25.8353 13.8208C25.885 13.7796 25.885 13.7796 25.8808 13.7381C20.9215 13.7381 15.9622 13.7381 10.8526 13.7381ZM10.0012 14.5095C10.0012 17.4715 10.0012 20.4335 10.0012 23.4853C10.1622 23.3546 10.3129 23.2295 10.4615 23.0886C10.48 23.0711 10.4985 23.0536 10.5176 23.0355C10.5788 22.9776 10.6398 22.9196 10.7009 22.8616C10.745 22.8198 10.7892 22.7779 10.8334 22.7361C10.9527 22.6231 11.0719 22.51 11.191 22.3969C11.3158 22.2785 11.4407 22.1602 11.5655 22.0419C11.8017 21.8181 12.0378 21.5942 12.2738 21.3703C12.5426 21.1152 12.8116 20.8603 13.0805 20.6053C13.6335 20.0812 14.1864 19.5568 14.7392 19.0325C14.6804 18.8972 14.5893 18.8117 14.4809 18.709C14.4525 18.6819 14.4525 18.6819 14.4235 18.6544C14.36 18.5941 14.2963 18.534 14.2326 18.474C14.1871 18.4308 14.1415 18.3876 14.096 18.3444C13.9724 18.2271 13.8485 18.11 13.7246 17.993C13.5951 17.8706 13.4658 17.7481 13.3365 17.6256C13.1194 17.42 12.9021 17.2145 12.6848 17.0091C12.4331 16.7713 12.1817 16.5333 11.9304 16.2952C11.6889 16.0665 11.4473 15.8379 11.2057 15.6093C11.1027 15.5118 10.9997 15.4144 10.8968 15.3169C10.7757 15.2022 10.6546 15.0877 10.5334 14.9733C10.4888 14.9311 10.4442 14.8889 10.3997 14.8467C10.3391 14.7894 10.2785 14.7321 10.2178 14.6749C10.1839 14.6428 10.1499 14.6107 10.1148 14.5775C10.0512 14.5055 10.0512 14.5055 10.0012 14.5095ZM26.5673 14.626C26.5401 14.652 26.5401 14.652 26.5122 14.6785C26.493 14.6967 26.4738 14.7149 26.454 14.7336C26.389 14.7951 26.3242 14.8567 26.2594 14.9182C26.2131 14.9621 26.1668 15.006 26.1205 15.0499C25.9943 15.1694 25.8682 15.289 25.7421 15.4086C25.6106 15.5335 25.4789 15.6583 25.3472 15.7831C25.0976 16.0195 24.8482 16.2561 24.5988 16.4927C24.3149 16.762 24.0309 17.0312 23.7469 17.3003C23.1626 17.8542 22.5783 18.4082 21.9942 18.9623C22.053 19.0976 22.1441 19.1831 22.2525 19.2858C22.2809 19.3129 22.2809 19.3129 22.3099 19.3404C22.3734 19.4007 22.4371 19.4608 22.5008 19.5208C22.5463 19.564 22.5919 19.6072 22.6374 19.6504C22.761 19.7677 22.8849 19.8848 23.0088 20.0018C23.1383 20.1241 23.2676 20.2467 23.3969 20.3692C23.614 20.5748 23.8313 20.7803 24.0486 20.9857C24.3003 21.2235 24.5517 21.4615 24.803 21.6996C25.0445 21.9283 25.2861 22.1569 25.5277 22.3855C25.6307 22.483 25.7337 22.5804 25.8366 22.6779C25.9577 22.7925 26.0788 22.9071 26.2 23.0215C26.2446 23.0637 26.2892 23.1059 26.3337 23.1481C26.3943 23.2054 26.4549 23.2627 26.5156 23.3199C26.5495 23.352 26.5835 23.3841 26.6186 23.4172C26.6822 23.4893 26.6822 23.4893 26.7322 23.4853C26.7322 20.5233 26.7322 17.5613 26.7322 14.5095C26.6584 14.5095 26.6166 14.5796 26.5673 14.626ZM15.4257 19.8851C15.3984 19.9111 15.3984 19.9111 15.3706 19.9376C15.3514 19.9557 15.3322 19.9739 15.3123 19.9926C15.2474 20.054 15.1826 20.1155 15.1178 20.177C15.0715 20.2208 15.0252 20.2646 14.9788 20.3084C14.8526 20.4278 14.7266 20.5473 14.6005 20.6668C14.4689 20.7915 14.3372 20.9162 14.2056 21.0408C13.9844 21.2503 13.7633 21.4598 13.5423 21.6693C13.2863 21.9119 13.0302 22.1545 12.774 22.3969C12.5546 22.6047 12.3351 22.8125 12.1158 23.0203C11.9846 23.1447 11.8533 23.269 11.722 23.3932C11.5986 23.51 11.4753 23.6269 11.3521 23.7438C11.3067 23.7869 11.2613 23.8299 11.2158 23.8729C11.1541 23.9313 11.0924 23.9898 11.0308 24.0483C11.0125 24.0656 10.9943 24.0828 10.9754 24.1005C10.8895 24.167 10.8895 24.167 10.8526 24.2567C15.8119 24.2567 20.7712 24.2567 25.8808 24.2567C25.7429 24.1042 25.6108 23.9615 25.462 23.8207C25.4343 23.7944 25.4343 23.7944 25.406 23.7675C25.3449 23.7096 25.2836 23.6517 25.2224 23.5939C25.1782 23.5521 25.134 23.5103 25.0899 23.4684C24.9706 23.3554 24.8512 23.2425 24.7318 23.1297C24.6068 23.0115 24.4819 22.8932 24.357 22.7749C24.1207 22.5512 23.8843 22.3276 23.6479 22.104C23.3787 21.8494 23.1095 21.5946 22.8404 21.3399C22.287 20.8161 21.7335 20.2924 21.1799 19.7688C21.1388 19.8018 21.0979 19.8349 21.0569 19.868C21.0341 19.8864 21.0112 19.9048 20.9877 19.9238C20.8936 20.0015 20.8053 20.0839 20.7172 20.1676C20.6847 20.1982 20.6523 20.2289 20.6189 20.2604C20.5395 20.3375 20.4647 20.4173 20.3904 20.4988C19.9079 21.0251 19.3857 21.5812 18.6258 21.6972C18.2997 21.717 18.0078 21.6994 17.7004 21.592C17.6714 21.5825 17.6424 21.573 17.6125 21.5632C17.2767 21.4303 17.0295 21.1641 16.775 20.9258C16.7306 20.8846 16.6861 20.8434 16.6416 20.8023C16.4551 20.6285 16.2743 20.4528 16.1049 20.2639C16.0065 20.1596 15.9029 20.0606 15.7988 19.9616C15.7789 19.9426 15.759 19.9236 15.7385 19.9041C15.5827 19.7475 15.5827 19.7475 15.4257 19.8851Z" fill="white"/>
<defs>
<linearGradient id="paint0_linear_741_580" x1="19" y1="0" x2="19" y2="38" gradientUnits="userSpaceOnUse">
<stop stop-color="#1E3822"/>
<stop offset="1" stop-color="#498052"/>
</linearGradient>
</defs>
</svg>
