<svg width="38" height="38" viewBox="0 0 38 38" fill="none" xmlns="http://www.w3.org/2000/svg">
<rect width="38" height="38" rx="19" fill="url(#paint0_linear_741_582)"/>
<path d="M18.9842 8.86727C19.0197 8.86735 19.0552 8.86744 19.0917 8.86753C19.6045 8.8695 20.0988 8.88384 20.5991 8.99818C20.6517 9.00933 20.6517 9.00933 20.7054 9.0207C22.6674 9.44177 24.3518 10.5828 25.4462 12.1598C26.2184 13.3149 26.6036 14.6089 26.6 15.9687C26.6 16.0181 26.6 16.0181 26.5999 16.0685C26.5982 16.6231 26.5515 17.1514 26.4156 17.6927C26.4063 17.7306 26.3971 17.7685 26.3875 17.8075C25.6785 20.6583 23.8472 23.158 22.0743 25.5179C22.0294 25.5778 21.9846 25.6378 21.9398 25.6977C21.7288 25.9794 21.5153 26.2593 21.2998 26.538C21.0309 26.8859 20.7679 27.2377 20.5058 27.5902C20.4292 27.6933 20.3523 27.7962 20.2754 27.8991C20.2499 27.9332 20.2245 27.9672 20.1983 28.0023C20.1482 28.0694 20.0979 28.1364 20.0477 28.2035C19.9391 28.3486 19.8312 28.4939 19.7265 28.6415C19.7009 28.6773 19.7009 28.6773 19.6748 28.7137C19.6308 28.7754 19.5873 28.8375 19.5439 28.8995C19.4228 29.0402 19.3195 29.1046 19.128 29.1314C19.0647 29.1315 19.0647 29.1315 19.0001 29.1315C18.9579 29.1323 18.9158 29.1331 18.8725 29.1339C18.6637 29.1019 18.5493 29.0241 18.4206 28.8725C18.3415 28.7677 18.2661 28.6612 18.1913 28.5535C18.1352 28.4746 18.0791 28.3956 18.0229 28.3167C17.9952 28.2777 17.9676 28.2386 17.9391 28.1984C17.8283 28.0432 17.714 27.8906 17.5986 27.7384C17.568 27.698 17.568 27.698 17.5368 27.6568C17.4961 27.603 17.4554 27.5492 17.4146 27.4955C17.3526 27.4135 17.2908 27.3313 17.2291 27.2491C17.0163 26.9653 16.8018 26.6828 16.5844 26.4021C16.2879 26.0188 16.0003 25.6298 15.7128 25.2405C15.6252 25.1222 15.5372 25.0042 15.449 24.8863C15.1386 24.4708 14.8333 24.0534 14.5437 23.6249C14.4848 23.5378 14.4254 23.4509 14.366 23.3641C12.9854 21.3393 11.418 18.8938 11.4021 16.4113C11.4018 16.3804 11.4015 16.3495 11.4012 16.3177C11.4005 16.2187 11.4002 16.1196 11.4001 16.0205C11.4001 15.9867 11.4001 15.9529 11.4 15.9181C11.4007 15.4322 11.4166 14.9661 11.5371 14.4916C11.5469 14.4483 11.5469 14.4483 11.557 14.4042C11.9764 12.5644 13.2398 10.965 14.909 9.94668C16.1464 9.21942 17.5282 8.86098 18.9842 8.86727ZM14.4454 11.8832C13.215 13.0564 12.694 14.6141 12.7046 16.2279C12.7103 16.6887 12.7675 17.1263 12.8859 17.5742C12.8956 17.6115 12.9053 17.6488 12.9153 17.6872C13.5294 19.9712 14.9647 22.0636 16.3842 23.9765C16.4396 24.0515 16.495 24.1264 16.5503 24.2013C16.973 24.7727 17.3978 25.3426 17.8331 25.9057C18.033 26.1643 18.2303 26.4246 18.4258 26.6862C18.4497 26.7181 18.4736 26.7501 18.4982 26.783C18.6372 26.9696 18.7717 27.1578 18.9014 27.3502C18.9192 27.3715 18.937 27.3929 18.9553 27.4149C18.9831 27.4149 19.0109 27.4149 19.0396 27.4149C19.0945 27.3551 19.0945 27.3551 19.1484 27.2756C19.1808 27.2303 19.1808 27.2303 19.2139 27.184C19.2489 27.1345 19.2489 27.1345 19.2846 27.0839C19.3343 27.0144 19.3841 26.9451 19.4341 26.8758C19.4596 26.8403 19.4851 26.8049 19.5114 26.7684C19.6259 26.6113 19.7446 26.4572 19.8641 26.3033C20.1266 25.9647 20.3848 25.6234 20.6412 25.2807C20.6639 25.2505 20.6865 25.2203 20.7098 25.1891C20.8575 24.9918 21.0048 24.7943 21.152 24.5966C21.2343 24.4863 21.3169 24.3761 21.3994 24.2659C21.7392 23.8112 22.0708 23.3528 22.3895 22.8849C22.4519 22.7934 22.5148 22.7021 22.5778 22.6109C23.3565 21.4761 24.0627 20.2884 24.6032 19.0365C24.6171 19.0043 24.6311 18.9722 24.6455 18.939C24.8632 18.4302 25.0186 17.9101 25.1511 17.3766C25.1588 17.3476 25.1664 17.3186 25.1742 17.2887C25.3826 16.4769 25.3795 15.4559 25.1511 14.6497C25.1441 14.6231 25.1371 14.5966 25.1299 14.5693C24.7235 13.0415 23.6713 11.7458 22.2503 10.9179C19.7058 9.49289 16.5277 9.95713 14.4454 11.8832Z" fill="white"/>
<path d="M21.1792 12.0647C21.2812 12.1447 21.3786 12.2281 21.4757 12.3141C21.5179 12.3473 21.5179 12.3473 21.5609 12.3812C22.225 12.9152 22.6636 13.7816 22.7765 14.6182C22.8657 15.6511 22.7156 16.655 22.0605 17.4878C22.0059 17.551 21.9508 17.6139 21.8953 17.6763C21.8731 17.7044 21.8509 17.7325 21.8281 17.7614C21.2931 18.4244 20.4254 18.8623 19.5874 18.975C18.5527 19.0641 17.5472 18.9143 16.713 18.2602C16.6497 18.2057 16.5868 18.1507 16.5242 18.0953C16.4961 18.0731 16.468 18.051 16.439 18.0282C15.7749 17.4941 15.3363 16.6277 15.2234 15.7912C15.1342 14.7582 15.2843 13.7543 15.9394 12.9215C15.994 12.8583 16.0491 12.7954 16.1046 12.733C16.1268 12.7049 16.149 12.6768 16.1718 12.6479C17.3491 11.1889 19.6872 11.0254 21.1792 12.0647ZM17.1877 13.474C16.6909 13.9955 16.4975 14.5913 16.5044 15.2962C16.5283 16.0112 16.8154 16.5494 17.3215 17.0479C17.804 17.4824 18.3912 17.7174 19.0419 17.7182C19.7824 17.6718 20.3839 17.3815 20.8948 16.8463C21.4111 16.2348 21.5339 15.5623 21.4757 14.7857C21.4397 14.5934 21.3836 14.4212 21.3078 14.2411C21.2941 14.2053 21.2804 14.1695 21.2662 14.1326C21.0111 13.5442 20.459 13.1058 19.8811 12.8587C18.9071 12.4831 17.9319 12.7888 17.1877 13.474Z" fill="white"/>
<defs>
<linearGradient id="paint0_linear_741_582" x1="19" y1="0" x2="19" y2="38" gradientUnits="userSpaceOnUse">
<stop stop-color="#1E3822"/>
<stop offset="1" stop-color="#498052"/>
</linearGradient>
</defs>
</svg>
