<svg width="38" height="38" viewBox="0 0 38 38" fill="none" xmlns="http://www.w3.org/2000/svg">
<rect width="38" height="38" rx="19" fill="url(#paint0_linear_741_578)"/>
<path d="M14.4992 10.3886C14.6411 10.4863 14.769 10.5941 14.8943 10.7118C14.9258 10.7412 14.9258 10.7412 14.9579 10.7713C15.3039 11.0981 15.6401 11.4352 15.9771 11.7713C16.0787 11.8726 16.1806 11.9735 16.2826 12.0744C16.3625 12.1536 16.4423 12.2331 16.5219 12.3126C16.5593 12.3499 16.5968 12.3871 16.6344 12.4242C16.8331 12.6204 17.021 12.8207 17.1946 13.0396C17.2097 13.0585 17.2248 13.0774 17.2403 13.0969C17.5149 13.4517 17.6206 13.8663 17.5736 14.3091C17.5089 14.7071 17.359 14.994 17.0918 15.2924C17.0673 15.3204 17.0429 15.3485 17.0176 15.3774C16.8094 15.6104 16.5888 15.8314 16.3681 16.0527C16.3383 16.0826 16.3086 16.1124 16.278 16.1432C16.1097 16.3108 15.9384 16.4723 15.7569 16.6256C16.0462 17.2843 16.4281 17.875 16.8916 18.4254C16.906 18.4426 16.9204 18.4598 16.9353 18.4775C17.2881 18.8968 17.6589 19.2947 18.045 19.6836C18.0738 19.7128 18.1026 19.742 18.1322 19.772C18.3312 19.971 18.5407 20.1497 18.7604 20.3252C18.8021 20.3602 18.8436 20.3952 18.8849 20.4305C19.358 20.8298 19.8759 21.1825 20.4207 21.4772C20.4435 21.4897 20.4664 21.5023 20.4899 21.5152C20.6032 21.5758 20.6032 21.5758 20.7283 21.5851C20.8134 21.5517 20.858 21.5079 20.9219 21.4426C20.9461 21.4181 20.9703 21.3936 20.9952 21.3684C21.034 21.3284 21.034 21.3284 21.0737 21.2875C21.1008 21.2601 21.1278 21.2326 21.1557 21.2044C21.2716 21.0871 21.3868 20.9692 21.5021 20.8513C21.5864 20.7653 21.6711 20.6795 21.7557 20.5938C21.7811 20.5676 21.8066 20.5414 21.8328 20.5144C22.0674 20.2769 22.3288 20.0485 22.6441 19.9273C22.676 19.9147 22.708 19.902 22.7408 19.8889C23.1413 19.7554 23.583 19.795 23.9665 19.9586C24.3444 20.1613 24.6315 20.47 24.9308 20.7706C24.9842 20.8239 25.0377 20.8772 25.0912 20.9305C25.2028 21.0417 25.314 21.1531 25.4252 21.2647C25.5669 21.4071 25.7092 21.5488 25.8518 21.6903C25.9622 21.8001 26.0722 21.9102 26.1822 22.0204C26.2345 22.0727 26.287 22.125 26.3395 22.1771C26.8618 22.6964 26.8618 22.6964 27.0367 23.025C27.0506 23.0501 27.0646 23.0752 27.0789 23.1011C27.2858 23.4887 27.2623 23.9505 27.1401 24.3588C26.9462 24.8846 26.5039 25.2693 26.1127 25.6518C26.0387 25.7245 25.9648 25.7973 25.891 25.8702C25.8455 25.9151 25.7999 25.9599 25.7542 26.0046C25.6249 26.1316 25.5032 26.2627 25.3854 26.4005C24.9778 26.8629 24.3427 27.1631 23.7329 27.2246C22.8617 27.2666 22.0606 27.1469 21.23 26.8913C21.2032 26.8831 21.1764 26.8749 21.1488 26.8665C19.8058 26.4473 18.5071 25.7257 17.3588 24.9248C17.3399 24.9116 17.321 24.8985 17.3015 24.8849C17.1637 24.7887 17.0273 24.6906 16.8916 24.5915C16.87 24.5758 16.8485 24.56 16.8262 24.5438C16.5495 24.3412 16.2814 24.1319 16.0216 23.9081C15.9377 23.8368 15.8525 23.769 15.7653 23.702C15.4416 23.4464 15.1471 23.1497 14.8559 22.8583C14.8005 22.8037 14.745 22.7491 14.6895 22.6945C14.6417 22.6472 14.5939 22.5999 14.5461 22.5526C14.5138 22.5206 14.4813 22.4887 14.4489 22.4568C14.2482 22.2599 14.0608 22.0574 13.8852 21.8377C13.8131 21.7482 13.7376 21.6648 13.6587 21.5814C13.4858 21.393 13.3278 21.1959 13.1725 20.9931C13.1365 20.946 13.1003 20.899 13.0641 20.8521C12.7163 20.4017 12.3956 19.936 12.086 19.4586C12.072 19.4371 12.0581 19.4156 12.0437 19.3935C11.9657 19.2725 11.8916 19.1496 11.819 19.0253C11.8037 18.9993 11.7884 18.9733 11.7726 18.9465C10.8415 17.3587 9.76293 15.155 10.2578 13.2582C10.3985 12.7562 10.6437 12.3764 10.9949 11.9975C11.0205 11.9698 11.0205 11.9698 11.0467 11.9416C11.2542 11.7191 11.4678 11.5027 11.6828 11.2874C11.7524 11.2176 11.8217 11.1473 11.891 11.0771C12.5126 10.4512 12.5126 10.4512 12.9203 10.2761C12.9554 10.2607 12.9905 10.2452 13.0267 10.2293C13.5027 10.0444 14.0689 10.1404 14.4992 10.3886ZM12.2469 12.0239C12.1632 12.1072 12.0792 12.19 11.9952 12.2729C11.9412 12.3266 11.8872 12.3804 11.8332 12.4342C11.8085 12.4585 11.7837 12.4828 11.7582 12.5078C11.304 12.9634 11.0596 13.4726 11.0508 14.1219C11.0603 15.1972 11.4455 16.2247 11.8858 17.1922C11.9002 17.2242 11.9146 17.2562 11.9295 17.2892C12.2698 18.0387 12.6812 18.7511 13.1539 19.4253C13.167 19.4441 13.1801 19.4629 13.1937 19.4822C13.5081 19.9314 13.8355 20.3721 14.1884 20.7918C14.2027 20.8089 14.2169 20.8259 14.2316 20.8435C14.4184 21.0672 14.6086 21.2866 14.8063 21.5008C14.8706 21.5713 14.9331 21.6426 14.9952 21.7149C15.141 21.8818 15.2974 22.0376 15.4545 22.1938C15.483 22.2224 15.5116 22.2511 15.541 22.2806C15.6892 22.4284 15.8395 22.5714 15.9985 22.7078C16.0796 22.7776 16.158 22.8503 16.2367 22.9229C16.405 23.0759 16.5786 23.2186 16.7581 23.3583C16.8029 23.3937 16.8478 23.4291 16.8926 23.4645C17.2293 23.7295 17.5716 23.9841 17.9261 24.2249C17.9479 24.2396 17.9696 24.2544 17.9921 24.2697C19.4906 25.2802 21.7204 26.6209 23.6191 26.3403C24.009 26.2625 24.2972 26.1487 24.6006 25.8914C24.6522 25.8512 24.6522 25.8512 24.7048 25.8101C24.7766 25.7463 24.8317 25.6898 24.8922 25.6172C25.0116 25.4795 25.1394 25.3517 25.2692 25.2239C25.2907 25.2026 25.3122 25.1814 25.3344 25.1595C25.4246 25.0706 25.5149 24.9818 25.6055 24.8934C26.1074 24.4368 26.1074 24.4368 26.3171 23.8186C26.3185 23.79 26.3198 23.7613 26.3212 23.7318C26.2716 23.4474 26.1012 23.2325 25.8999 23.0356C25.8652 23.0007 25.8652 23.0007 25.8299 22.9652C25.7543 22.8893 25.6782 22.814 25.602 22.7388C25.5489 22.6858 25.4958 22.6328 25.4428 22.5798C25.3319 22.4691 25.2207 22.3587 25.1093 22.2485C24.9669 22.1075 24.825 21.966 24.6833 21.8242C24.5739 21.7148 24.4642 21.6057 24.3545 21.4967C24.3021 21.4446 24.2497 21.3924 24.1975 21.3402C24.1243 21.2672 24.0509 21.1945 23.9773 21.122C23.956 21.1005 23.9346 21.0791 23.9126 21.057C23.7155 20.8639 23.5305 20.7397 23.2486 20.7218C22.8738 20.7371 22.6175 21.0309 22.3731 21.2803C22.3418 21.312 22.3105 21.3436 22.2791 21.3752C22.1468 21.5087 22.0149 21.6426 21.8831 21.7766C21.8021 21.8589 21.7209 21.9409 21.6396 22.0228C21.594 22.0688 21.5487 22.1152 21.5035 22.1615C21.3543 22.3116 21.2207 22.4325 21.0297 22.525C21.0077 22.536 20.9857 22.547 20.963 22.5583C20.6212 22.6156 20.3868 22.4913 20.0989 22.3303C20.0295 22.2922 19.9593 22.2565 19.8883 22.2213C19.5323 22.0432 19.2133 21.8283 18.8939 21.5918C18.8567 21.5645 18.8194 21.5373 18.7822 21.5101C18.5577 21.3443 18.3403 21.171 18.1264 20.9918C18.1094 20.978 18.0925 20.9641 18.075 20.9498C17.7634 20.6945 17.4767 20.4159 17.1919 20.1315C17.1738 20.1134 17.1557 20.0954 17.1371 20.0768C16.9368 19.8767 16.7414 19.6743 16.5579 19.4586C16.527 19.4237 16.4961 19.3888 16.465 19.354C15.8947 18.7059 15.3877 18.0022 15.0188 17.2201C14.9759 17.1308 14.9301 17.0429 14.8842 16.955C14.7938 16.7548 14.7788 16.5138 14.8531 16.3071C14.943 16.1424 15.0577 16.0218 15.1976 15.8979C15.4343 15.6851 15.6607 15.4624 15.8863 15.2379C15.9556 15.169 16.0252 15.1004 16.0949 15.0319C16.1397 14.9874 16.1845 14.9428 16.2292 14.8982C16.2497 14.8782 16.2702 14.8581 16.2914 14.8374C16.496 14.632 16.6594 14.4198 16.6705 14.1216C16.6649 13.816 16.5139 13.6439 16.3114 13.4272C16.2938 13.4083 16.2762 13.3894 16.2582 13.37C16.0611 13.1592 15.8583 12.9543 15.6545 12.7501C15.6346 12.7302 15.6148 12.7103 15.5944 12.6898C15.4898 12.5849 15.3851 12.48 15.2803 12.3752C15.1731 12.268 15.0663 12.1605 14.9595 12.0528C14.8762 11.9691 14.7927 11.8855 14.7092 11.802C14.6697 11.7625 14.6303 11.7229 14.591 11.6831C14.1662 11.2294 14.1662 11.2294 13.5982 11.049C13.0349 11.0571 12.6169 11.6553 12.2469 12.0239Z" fill="white"/>
<defs>
<linearGradient id="paint0_linear_741_578" x1="19" y1="0" x2="19" y2="38" gradientUnits="userSpaceOnUse">
<stop stop-color="#1E3822"/>
<stop offset="1" stop-color="#498052"/>
</linearGradient>
</defs>
</svg>
