<svg width="23" height="24" viewBox="0 0 23 24" fill="none" xmlns="http://www.w3.org/2000/svg">
<g clip-path="url(#clip0_608_757)">
<path d="M14.3252 2.08278C14.6962 2.39366 15.023 2.70904 15.3162 3.0954C15.3421 3.1293 15.3681 3.1632 15.3949 3.19812C15.8867 3.86861 16.1578 4.59949 16.3044 5.41571C16.3124 5.45969 16.3204 5.50367 16.3286 5.54898C16.4908 6.99455 16.1605 8.38069 15.2732 9.54071C15.15 9.68989 15.0205 9.83089 14.8865 9.9704C14.8503 10.0093 14.814 10.0483 14.7767 10.0884C14.4932 10.3847 14.1991 10.6097 13.8552 10.8298C13.8195 10.8536 13.7838 10.8774 13.747 10.902C12.9539 11.4097 11.9823 11.6213 11.0515 11.6166C11.0009 11.6164 10.9503 11.6162 10.8982 11.616C10.4956 11.6106 10.1203 11.5728 9.73023 11.4743C9.68771 11.4636 9.68771 11.4636 9.64434 11.4527C8.86914 11.2507 8.13543 10.8672 7.55041 10.319C7.46915 10.2434 7.3865 10.1738 7.29981 10.1047C7.09293 9.92847 6.93071 9.71208 6.76539 9.49775C6.73969 9.46462 6.71399 9.4315 6.68751 9.39737C6.01799 8.48919 5.71649 7.44249 5.71802 6.32074C5.71805 6.29173 5.71807 6.26272 5.71809 6.23283C5.72091 5.46861 5.84073 4.77857 6.16382 4.08368C6.18321 4.03981 6.2026 3.99595 6.22257 3.95075C6.63606 3.06304 7.36651 2.29076 8.18336 1.76337C8.22113 1.73867 8.25891 1.71396 8.29783 1.68851C10.1169 0.560973 12.6688 0.735363 14.3252 2.08278ZM7.99564 3.67953C7.196 4.60185 7.01393 5.64014 7.06617 6.83368C7.10239 7.24594 7.2302 7.62316 7.40992 7.99384C7.42942 8.03405 7.44891 8.07426 7.469 8.1157C7.94827 9.04559 8.80231 9.78005 9.79519 10.1059C10.7867 10.4019 11.8926 10.3555 12.824 9.88446C13.2083 9.67517 13.5411 9.41552 13.8552 9.11103C13.881 9.08843 13.9067 9.06583 13.9333 9.04255C14.5825 8.45208 14.9771 7.50554 15.0207 6.64228C15.0547 5.5201 14.8051 4.56791 14.0701 3.69696C14.0373 3.65354 14.0045 3.61011 13.9707 3.56537C13.3399 2.87593 12.4344 2.37126 11.4931 2.31422C10.1054 2.25714 8.94609 2.63269 7.99564 3.67953Z" fill="white"/>
<path d="M8.13716 12.3557C8.4909 12.5883 8.84714 12.7825 9.24057 12.9385C9.26754 12.9493 9.29452 12.96 9.32231 12.971C10.6379 13.4787 11.8999 13.319 13.1752 12.7888C13.5549 12.6114 13.8991 12.3783 14.2456 12.1439C15.056 11.6001 15.056 11.6001 15.5033 11.6253C15.536 11.6263 15.5687 11.6273 15.6024 11.6284C16.6883 11.6763 17.7145 12.118 18.4578 12.9228C19.853 14.5255 20.2026 16.8166 20.2406 18.8682C20.2423 18.9202 20.244 18.9723 20.2458 19.0258C20.2656 19.9649 20.0833 21.0052 19.4403 21.7283C19.3783 21.7925 19.3157 21.8562 19.2523 21.919C19.2151 21.958 19.1778 21.997 19.1395 22.0372C19.1058 22.0691 19.0721 22.101 19.0374 22.1339C19.007 22.1633 19.007 22.1633 18.9758 22.1933C18.0904 23.0044 16.952 23.0557 15.8214 23.0536C15.7053 23.0538 15.5892 23.0541 15.4731 23.0545C15.1918 23.0552 14.9105 23.0552 14.6292 23.055C14.4002 23.0548 14.1713 23.0549 13.9423 23.0551C13.9096 23.0552 13.8769 23.0552 13.8432 23.0552C13.7767 23.0553 13.7102 23.0553 13.6437 23.0554C13.0216 23.056 12.3995 23.0558 11.7774 23.0553C11.2099 23.0549 10.6424 23.0554 10.0749 23.0564C9.49034 23.0575 8.90581 23.0579 8.32128 23.0576C7.99383 23.0575 7.66639 23.0576 7.33894 23.0583C7.06017 23.0589 6.78142 23.059 6.50265 23.0582C6.36078 23.0579 6.21894 23.0579 6.07707 23.0584C4.83165 23.063 3.75928 22.8666 2.83822 21.962C2.80499 21.9298 2.77176 21.8976 2.73751 21.8645C2.12684 21.2339 1.84557 20.3548 1.84121 19.4891C1.84091 19.4494 1.84061 19.4098 1.8403 19.3689C1.83955 19.2405 1.83927 19.1121 1.8392 18.9837C1.83917 18.9399 1.83914 18.8962 1.83911 18.851C1.83981 18.1882 1.86339 17.5458 1.97885 16.8917C1.98668 16.8454 1.99451 16.7991 2.00258 16.7514C2.23526 15.3932 2.63904 14.102 3.52572 13.0245C3.54865 12.995 3.57159 12.9654 3.59521 12.935C4.18776 12.1935 5.17523 11.7664 6.09996 11.6588C6.95381 11.5705 7.44015 11.8928 8.13716 12.3557ZM5.94271 13.0513C5.89813 13.0629 5.89813 13.0629 5.85264 13.0746C5.06102 13.2913 4.52691 13.8191 4.12191 14.5176C3.39803 15.8134 3.17671 17.3357 3.16693 18.8024C3.16622 18.8799 3.16505 18.9574 3.1634 19.035C3.14863 19.7391 3.21935 20.374 3.6976 20.9307C3.72103 20.9584 3.74446 20.986 3.7686 21.0145C4.3073 21.5988 5.07707 21.7208 5.83429 21.752C6.14514 21.7598 6.45601 21.7589 6.76693 21.7583C6.87035 21.7584 6.97377 21.7585 7.07719 21.7587C7.32705 21.7591 7.57691 21.759 7.82677 21.7588C8.03014 21.7586 8.2335 21.7585 8.43687 21.7586C8.48056 21.7587 8.48056 21.7587 8.52514 21.7587C8.58434 21.7587 8.64354 21.7587 8.70275 21.7588C9.25574 21.759 9.80873 21.7587 10.3617 21.7583C10.8345 21.7579 11.3073 21.7579 11.7801 21.7583C12.3313 21.7588 12.8825 21.759 13.4338 21.7587C13.4927 21.7587 13.5517 21.7587 13.6107 21.7586C13.6397 21.7586 13.6687 21.7586 13.6985 21.7586C13.9013 21.7585 14.104 21.7586 14.3067 21.7588C14.5804 21.7591 14.8541 21.7589 15.1278 21.7584C15.2277 21.7583 15.3275 21.7583 15.4274 21.7585C16.9682 21.7673 16.9682 21.7673 18.2774 21.0247C18.8873 20.3737 18.9247 19.576 18.8978 18.7313C18.8968 18.699 18.8958 18.6667 18.8948 18.6335C18.8391 16.8995 18.5459 14.8624 17.2291 13.6035C16.7693 13.2128 16.1353 12.9534 15.5239 12.9627C15.3145 13.0038 15.1446 13.1421 14.9715 13.2608C14.8872 13.3165 14.8028 13.372 14.7184 13.4275C14.6778 13.4544 14.6373 13.4813 14.5955 13.5091C13.225 14.4089 11.5505 14.8473 9.92236 14.5324C8.80611 14.292 7.87289 13.818 6.93511 13.1774C6.58764 12.9465 6.34257 12.9479 5.94271 13.0513Z" fill="white"/>
</g>
<defs>
<clipPath id="clip0_608_757">
<rect width="22" height="22.113" fill="white" transform="translate(0.0432129 0.945312)"/>
</clipPath>
</defs>
</svg>
