<svg width="117" height="20" viewBox="0 0 117 20" fill="none" xmlns="http://www.w3.org/2000/svg">
<path d="M6.23293 12.1934V17.5H2.7632V2.0957H8.19875C12.0803 2.0957 14.021 3.7321 14.021 7.00488C14.021 8.55176 13.4624 9.80501 12.3452 10.7646C11.2352 11.7171 9.74921 12.1934 7.88723 12.1934H6.23293ZM6.23293 4.75977V9.56152H7.59719C9.44484 9.56152 10.3687 8.75228 10.3687 7.13379C10.3687 5.55111 9.44484 4.75977 7.59719 4.75977H6.23293ZM24.7207 12.9668H17.5449C17.6595 14.5638 18.6657 15.3623 20.5634 15.3623C21.7737 15.3623 22.8372 15.0758 23.7539 14.5029V16.9521C22.7369 17.4964 21.4157 17.7686 19.79 17.7686C18.014 17.7686 16.6354 17.278 15.6543 16.2969C14.6731 15.3086 14.1826 13.9336 14.1826 12.1719C14.1826 10.3457 14.7125 8.89909 15.7724 7.83203C16.8323 6.76497 18.1357 6.23145 19.6826 6.23145C21.2867 6.23145 22.5257 6.70768 23.3994 7.66016C24.2802 8.61263 24.7207 9.90527 24.7207 11.5381V12.9668ZM21.5732 10.8828C21.5732 9.30729 20.9358 8.51953 19.6611 8.51953C19.1168 8.51953 18.6442 8.74512 18.2431 9.19629C17.8492 9.64746 17.6093 10.2096 17.5234 10.8828H21.5732ZM32.9496 17.3711C32.4483 17.6361 31.6928 17.7686 30.683 17.7686C28.2911 17.7686 27.0951 16.526 27.0951 14.041V9.00293H25.3119V6.5H27.0951V4.12598L30.4789 3.15918V6.5H32.9496V9.00293H30.4789V13.4502C30.4789 14.596 30.9337 15.1689 31.8432 15.1689C32.2012 15.1689 32.5701 15.0651 32.9496 14.8574V17.3711ZM43.5848 17.5H40.3729V15.9209H40.3299C39.5923 17.1527 38.5002 17.7686 37.0536 17.7686C35.9865 17.7686 35.145 17.4678 34.5291 16.8662C33.9204 16.2575 33.6161 15.4482 33.6161 14.4385C33.6161 12.3044 34.8801 11.0726 37.408 10.7432L40.3944 10.3457C40.3944 9.14258 39.7427 8.54102 38.4393 8.54102C37.1287 8.54102 35.8827 8.93132 34.701 9.71191V7.15527C35.1737 6.91178 35.8182 6.69694 36.6346 6.51074C37.4582 6.32454 38.2065 6.23145 38.8797 6.23145C42.0164 6.23145 43.5848 7.79622 43.5848 10.9258V17.5ZM40.3944 13.0312V12.29L38.3963 12.5479C37.2935 12.6911 36.742 13.1888 36.742 14.041C36.742 14.4277 36.8745 14.7464 37.1395 14.9971C37.4116 15.2406 37.7769 15.3623 38.2352 15.3623C38.8726 15.3623 39.3918 15.1439 39.7928 14.707C40.1939 14.263 40.3944 13.7044 40.3944 13.0312ZM49.2249 17.5H45.8304V1.21484H49.2249V17.5ZM65.8327 17.5H62.3308L55.9821 7.82129C55.6098 7.25553 55.3519 6.82943 55.2087 6.54297H55.1657C55.223 7.08724 55.2517 7.91797 55.2517 9.03516V17.5H51.9753V2.0957H55.7136L61.8259 11.4736C62.1052 11.8962 62.363 12.3151 62.5993 12.7305H62.6423C62.585 12.3724 62.5564 11.667 62.5564 10.6143V2.0957H65.8327V17.5ZM78.466 12.9668H71.2902C71.4048 14.5638 72.411 15.3623 74.3087 15.3623C75.519 15.3623 76.5825 15.0758 77.4992 14.5029V16.9521C76.4822 17.4964 75.161 17.7686 73.5353 17.7686C71.7593 17.7686 70.3807 17.278 69.3996 16.2969C68.4184 15.3086 67.9279 13.9336 67.9279 12.1719C67.9279 10.3457 68.4578 8.89909 69.5177 7.83203C70.5776 6.76497 71.881 6.23145 73.4279 6.23145C75.0321 6.23145 76.271 6.70768 77.1447 7.66016C78.0255 8.61263 78.466 9.90527 78.466 11.5381V12.9668ZM75.3185 10.8828C75.3185 9.30729 74.6811 8.51953 73.4064 8.51953C72.8621 8.51953 72.3895 8.74512 71.9884 9.19629C71.5946 9.64746 71.3546 10.2096 71.2687 10.8828H75.3185ZM79.3258 17.21V14.46C79.8844 14.7965 80.4394 15.0472 80.9908 15.2119C81.5494 15.3766 82.0758 15.459 82.5699 15.459C83.1715 15.459 83.6441 15.3766 83.9879 15.2119C84.3388 15.0472 84.5143 14.7965 84.5143 14.46C84.5143 14.2451 84.4355 14.0661 84.2779 13.9229C84.1204 13.7796 83.9163 13.6543 83.6656 13.5469C83.4221 13.4395 83.1536 13.3428 82.86 13.2568C82.5663 13.1709 82.2835 13.0742 82.0113 12.9668C81.5745 12.8021 81.1878 12.6266 80.8512 12.4404C80.5217 12.2471 80.2424 12.0251 80.0133 11.7744C79.7913 11.5238 79.6194 11.2337 79.4977 10.9043C79.3831 10.5749 79.3258 10.1846 79.3258 9.7334C79.3258 9.11751 79.4583 8.58757 79.7232 8.14355C79.9954 7.69954 80.3534 7.33789 80.7975 7.05859C81.2486 6.77214 81.7607 6.56445 82.3336 6.43555C82.9137 6.29948 83.5152 6.23145 84.1383 6.23145C84.6253 6.23145 85.1194 6.27083 85.6207 6.34961C86.122 6.42122 86.6161 6.52865 87.1031 6.67188V9.29297C86.6734 9.04232 86.2115 8.85612 85.7174 8.73438C85.2304 8.60547 84.7506 8.54102 84.2779 8.54102C84.0559 8.54102 83.8447 8.5625 83.6441 8.60547C83.4508 8.64128 83.2789 8.69857 83.1285 8.77734C82.9781 8.84896 82.86 8.94564 82.774 9.06738C82.6881 9.18197 82.6451 9.31445 82.6451 9.46484C82.6451 9.66536 82.7096 9.83724 82.8385 9.98047C82.9674 10.1237 83.1357 10.249 83.3434 10.3564C83.551 10.4567 83.7802 10.5498 84.0309 10.6357C84.2887 10.7145 84.5429 10.7969 84.7935 10.8828C85.2447 11.0404 85.6529 11.2122 86.0182 11.3984C86.3834 11.5846 86.6949 11.8031 86.9527 12.0537C87.2177 12.3044 87.4182 12.598 87.5543 12.9346C87.6975 13.2712 87.7691 13.6722 87.7691 14.1377C87.7691 14.7894 87.6259 15.348 87.3394 15.8135C87.0602 16.2718 86.6842 16.6478 86.2115 16.9414C85.746 17.2279 85.2053 17.4355 84.5894 17.5645C83.9807 17.7005 83.3469 17.7686 82.6881 17.7686C81.4778 17.7686 80.357 17.5824 79.3258 17.21ZM95.9444 17.3711C95.4431 17.6361 94.6875 17.7686 93.6778 17.7686C91.2859 17.7686 90.0899 16.526 90.0899 14.041V9.00293H88.3067V6.5H90.0899V4.12598L93.4737 3.15918V6.5H95.9444V9.00293H93.4737V13.4502C93.4737 14.596 93.9284 15.1689 94.8379 15.1689C95.196 15.1689 95.5648 15.0651 95.9444 14.8574V17.3711Z" fill="white"/>
<g clip-path="url(#clip0_686_476)">
<path d="M110.477 0C110.627 0.143312 110.753 0.293478 110.874 0.461426C110.893 0.48688 110.912 0.512334 110.931 0.538559C111.115 0.794994 111.283 1.06077 111.447 1.33089C111.489 1.40132 111.532 1.47148 111.575 1.5416C111.667 1.69069 111.756 1.84116 111.844 1.99219C111.863 2.02563 111.883 2.05907 111.903 2.09352C112.488 3.10175 112.991 4.14487 113.406 5.23438C113.432 5.30057 113.432 5.30057 113.457 5.3681C114.556 8.27433 114.962 11.5215 114.031 14.5312C114.022 14.562 114.013 14.5928 114.003 14.6245C113.707 15.5953 113.251 16.4944 112.586 17.2656C112.568 17.287 112.549 17.3084 112.53 17.3304C111.002 19.096 108.685 19.807 106.424 19.9916C106.221 20.005 106.018 20.0071 105.815 20.0079C105.77 20.0082 105.726 20.0085 105.68 20.0087C105.536 20.0094 105.393 20.0097 105.249 20.0098C105.201 20.0098 105.152 20.0099 105.102 20.01C103.36 20.0107 103.36 20.0107 102.742 19.8438C102.71 18.1051 103.114 16.2805 103.68 14.6484C103.697 14.5972 103.697 14.5972 103.715 14.5449C104.118 13.3838 104.699 12.2431 105.477 11.2891C105.512 11.2431 105.547 11.197 105.582 11.1508C105.803 10.8618 106.033 10.6028 106.297 10.3516C106.389 10.2601 106.481 10.1682 106.57 10.074C106.994 9.63273 107.541 9.2134 108.094 8.94531C107.808 9.01666 107.539 9.10529 107.269 9.22363C107.233 9.23911 107.198 9.25458 107.161 9.27052C105.897 9.83032 104.752 10.6888 103.914 11.7969C103.896 11.8201 103.878 11.8434 103.86 11.8673C103.067 12.8958 102.51 14.0555 102.078 15.2734C102.066 15.3068 102.054 15.3402 102.041 15.3746C101.611 16.5624 101.371 17.811 101.219 19.0625C101.18 19.0625 101.141 19.0625 101.102 19.0625C99.8975 16.9135 99.0169 14.5309 99.6938 12.0584C99.9677 11.1123 100.465 10.2462 101.141 9.53125C101.184 9.48013 101.227 9.42887 101.27 9.37744C101.771 8.8046 102.408 8.36111 103.055 7.96875C103.085 7.95053 103.115 7.93232 103.146 7.91355C103.758 7.54811 104.41 7.28714 105.068 7.01833C106.535 6.41695 107.873 5.65954 109.031 4.57031C109.059 4.54559 109.086 4.52086 109.114 4.49539C109.944 3.71501 110.561 2.5076 110.602 1.36307C110.611 0.97219 110.594 0.607189 110.502 0.226593C110.477 0.117188 110.477 0.117188 110.477 0Z" fill="#489F0F"/>
<path d="M113.445 5.42969C114.831 7.5086 114.726 11.2507 114.294 13.5344C114.225 13.8721 114.133 14.2021 114.031 14.5312C114.022 14.562 114.013 14.5928 114.003 14.6245C113.707 15.5953 113.251 16.4944 112.586 17.2656C112.568 17.287 112.549 17.3084 112.53 17.3304C111.002 19.096 108.685 19.807 106.424 19.9916C106.221 20.005 106.018 20.0071 105.815 20.0079C105.748 20.0083 105.748 20.0083 105.68 20.0087C105.536 20.0094 105.393 20.0097 105.25 20.0098C105.201 20.0098 105.152 20.0099 105.102 20.01C103.36 20.0107 103.36 20.0107 102.742 19.8438C102.742 19.818 102.742 19.7922 102.742 19.7656C102.773 19.7527 102.773 19.7527 102.804 19.7396C104.601 18.985 106.287 18.014 107.726 16.6873C107.778 16.64 107.83 16.5931 107.884 16.5475C108.118 16.3472 108.336 16.1317 108.554 15.9139C108.618 15.8501 108.682 15.7866 108.747 15.7231C109.003 15.4681 109.236 15.2052 109.461 14.9219C109.497 14.8793 109.533 14.8369 109.57 14.7949C110.293 13.9644 110.886 13.034 111.414 12.0703C111.434 12.0349 111.453 11.9995 111.473 11.9631C112.277 10.4924 112.821 8.90153 113.172 7.26562C113.178 7.23725 113.184 7.20888 113.191 7.17964C113.316 6.60423 113.373 6.01366 113.445 5.42969Z" fill="#3A7F0D"/>
<path d="M102.516 1.70586C102.716 1.85062 102.883 2.05985 102.938 2.30324C102.978 2.64419 102.945 2.91935 102.742 3.20167C102.565 3.4008 102.356 3.53506 102.086 3.5656C101.758 3.57849 101.517 3.51706 101.265 3.30421C101.223 3.25346 101.223 3.25346 101.18 3.20167C101.152 3.16864 101.123 3.13561 101.094 3.10158C100.953 2.8344 100.906 2.52234 100.989 2.22893C101.095 1.97849 101.286 1.75122 101.537 1.64162C101.868 1.52479 102.207 1.53023 102.516 1.70586Z" fill="#49A010"/>
<path d="M108.055 2.22615C108.265 2.3588 108.418 2.53096 108.484 2.77303C108.516 3.03514 108.521 3.29157 108.383 3.52376C108.231 3.71665 108.056 3.87002 107.82 3.9449C107.529 3.97948 107.281 3.96152 107.039 3.78865C106.834 3.61607 106.694 3.41695 106.651 3.15144C106.632 2.87064 106.712 2.62763 106.885 2.40681C107.208 2.06939 107.644 2.0336 108.055 2.22615Z" fill="#49A010"/>
<path d="M100.828 6.28909C100.979 6.38283 101.084 6.47041 101.141 6.64065C101.161 6.83458 101.161 6.98748 101.077 7.16555C100.935 7.31942 100.803 7.38792 100.594 7.39749C100.393 7.38867 100.259 7.31813 100.113 7.1802C100.03 7.04172 99.9999 6.91752 100.008 6.75784C100.078 6.53634 100.167 6.39648 100.367 6.27688C100.529 6.23728 100.668 6.24151 100.828 6.28909Z" fill="#397E0C"/>
<path d="M102.508 5.90232C102.626 5.98277 102.69 6.03965 102.722 6.18186C102.733 6.35453 102.72 6.4275 102.61 6.56638C102.45 6.68829 102.359 6.70072 102.156 6.68357C102.015 6.60494 101.969 6.54563 101.902 6.39792C101.878 6.21714 101.905 6.13518 102 5.98044C102.175 5.85338 102.302 5.84237 102.508 5.90232Z" fill="#499F0F"/>
<path d="M105.125 4.49455C105.225 4.56047 105.272 4.60661 105.298 4.72511C105.308 4.87569 105.299 4.94206 105.201 5.06096C105.057 5.13412 104.971 5.14267 104.812 5.11955C104.706 5.044 104.666 4.99041 104.622 4.86809C104.616 4.74451 104.633 4.67987 104.695 4.57268C104.844 4.44893 104.942 4.43606 105.125 4.49455Z" fill="#49A010"/>
</g>
<defs>
<clipPath id="clip0_686_476">
<rect width="20" height="20" fill="white" transform="translate(97)"/>
</clipPath>
</defs>
</svg>
