<svg width="23" height="22" viewBox="0 0 23 22" fill="none" xmlns="http://www.w3.org/2000/svg">
<g clip-path="url(#clip0_641_1541)">
<path d="M0.920984 0.244864C0.979507 0.244588 0.979507 0.244588 1.03921 0.244306C1.12177 0.24406 1.20433 0.244037 1.28689 0.244224C1.41089 0.244359 1.53484 0.243356 1.65884 0.242263C2.50561 0.239316 3.26095 0.320649 3.90353 0.929679C4.42406 1.44944 4.60257 2.14629 4.8177 2.82954C4.82964 2.86738 4.84157 2.90523 4.85387 2.94423C4.88312 3.03702 4.91236 3.12983 4.94158 3.22263C6.46227 3.25844 7.98307 3.28166 9.50403 3.30195C9.83785 3.30641 10.1717 3.31097 10.5055 3.31554C11.1032 3.32372 11.7009 3.33184 12.2986 3.33992C12.334 3.34039 12.3695 3.34087 12.406 3.34137C12.5853 3.34379 12.7646 3.34621 12.9439 3.34863C13.3023 3.35347 13.6608 3.35831 14.0192 3.36316C14.0722 3.36388 14.0722 3.36388 14.1262 3.36461C14.7222 3.37267 15.3182 3.38079 15.9142 3.38894C16.2459 3.39347 16.5776 3.39798 16.9094 3.40242C17.036 3.40411 17.1626 3.40581 17.2893 3.4075C17.3202 3.40792 17.3511 3.40833 17.383 3.40876C17.8833 3.41548 18.3837 3.42273 18.884 3.4303C19.2137 3.43524 19.5433 3.43947 19.873 3.44314C20.0788 3.44554 20.2846 3.44844 20.4903 3.45146C20.5853 3.45275 20.6802 3.45382 20.7752 3.45466C20.9042 3.45583 21.0333 3.45776 21.1623 3.45987C21.2182 3.46009 21.2182 3.46009 21.2753 3.46032C21.5506 3.46604 21.7417 3.52632 21.976 3.67649C22.1279 3.9135 22.046 4.22184 21.9891 4.4826C21.9471 4.66555 21.9026 4.84787 21.8578 5.03017C21.8384 5.11093 21.819 5.19169 21.7996 5.27247C21.7485 5.48529 21.6967 5.69796 21.6449 5.91061C21.5935 6.12179 21.5427 6.3331 21.4918 6.5444C21.4223 6.83281 21.3525 7.12113 21.2822 7.40936C21.2008 7.74336 21.1204 8.07753 21.0421 8.41226C21.0194 8.50845 20.9967 8.60463 20.974 8.7008C20.9602 8.75952 20.9466 8.81827 20.9331 8.87706C20.7365 9.73553 20.3781 10.5221 19.6196 11.0203C19.0825 11.3361 18.5326 11.4448 17.919 11.5091C17.8537 11.5162 17.7883 11.5234 17.723 11.5306C17.5409 11.5505 17.3588 11.5698 17.1767 11.5891C17.0561 11.6018 16.9355 11.6147 16.815 11.6276C16.2121 11.6921 15.6091 11.7554 15.0061 11.8185C14.7464 11.8457 14.4867 11.873 14.2269 11.9002C13.7378 11.9516 13.2485 12.0028 12.7593 12.0541C12.2013 12.1125 11.6432 12.1711 11.0852 12.2296C9.93968 12.3498 8.79415 12.4698 7.64862 12.5898C7.61358 12.6793 7.5787 12.7688 7.54388 12.8584C7.51472 12.9331 7.51472 12.9331 7.48497 13.0094C7.35009 13.3756 7.36536 13.6599 7.50863 14.0216C7.65257 14.3282 7.84948 14.5586 8.16424 14.6953C8.42666 14.7732 8.66137 14.7935 8.9342 14.7923C8.9759 14.7925 9.0176 14.7926 9.06056 14.7928C9.19962 14.7932 9.33868 14.7931 9.47775 14.7929C9.57771 14.7931 9.67767 14.7933 9.77763 14.7936C9.99256 14.7941 10.2075 14.7943 10.4224 14.7943C10.7334 14.7944 11.0445 14.795 11.3555 14.7959C11.8605 14.7972 12.3656 14.7982 12.8707 14.799C12.9009 14.799 12.931 14.7991 12.9622 14.7991C13.2992 14.7996 13.6362 14.8001 13.9732 14.8004C14.0955 14.8006 14.2178 14.8007 14.3401 14.8008C14.3854 14.8009 14.3854 14.8009 14.4316 14.8009C14.9349 14.8015 15.4383 14.8026 15.9416 14.804C16.2794 14.8049 16.6173 14.8053 16.9551 14.8052C17.1652 14.8053 17.3752 14.8059 17.5852 14.8066C17.6826 14.8069 17.7801 14.8069 17.8775 14.8067C18.0105 14.8064 18.1434 14.8069 18.2763 14.8076C18.3149 14.8074 18.3536 14.8071 18.3934 14.8068C18.6098 14.809 18.7636 14.8294 18.9494 14.9531C19.0658 15.1446 19.1016 15.3003 19.0629 15.5177C19.0048 15.6862 18.8834 15.7788 18.7309 15.8605C18.5535 15.9142 18.386 15.9103 18.2016 15.9093C18.1402 15.9095 18.1402 15.9095 18.0777 15.9097C17.9406 15.9101 17.8035 15.9098 17.6665 15.9095C17.5682 15.9096 17.4699 15.9098 17.3717 15.91C17.1046 15.9104 16.8376 15.9102 16.5705 15.91C16.2909 15.9097 16.0113 15.9099 15.7317 15.9101C15.2316 15.9102 14.7316 15.91 14.2316 15.9095C13.779 15.9092 13.3265 15.9092 12.8739 15.9096C12.3478 15.9101 11.8218 15.9102 11.2958 15.91C11.0175 15.9099 10.7393 15.9098 10.461 15.9101C10.1991 15.9104 9.93712 15.9102 9.67518 15.9097C9.5793 15.9096 9.48341 15.9096 9.38752 15.9098C8.43966 15.9115 7.65456 15.8294 6.92889 15.1545C6.48676 14.6885 6.2785 14.0621 6.27211 13.4284C6.29182 12.9956 6.39324 12.5997 6.59051 12.2138C6.75667 11.8482 6.48275 11.3524 6.36119 10.9909C6.33928 10.9253 6.31738 10.8597 6.2955 10.794C6.24844 10.653 6.20126 10.5119 6.15398 10.371C6.07853 10.1459 6.00336 9.92084 5.92821 9.69573C5.80855 9.33739 5.68871 8.9791 5.56879 8.62084C5.34363 7.94815 5.11879 7.27534 4.89402 6.60251C4.84298 6.44974 4.79193 6.29698 4.74087 6.14422C4.43278 5.22246 4.1256 4.30047 3.82834 3.37514C3.72752 3.0617 3.62442 2.74917 3.51636 2.43814C3.50605 2.40804 3.49574 2.37795 3.48511 2.34694C3.35713 1.9829 3.18407 1.68661 2.83611 1.50388C2.53739 1.38711 2.25957 1.35649 1.94116 1.35752C1.8985 1.35705 1.85585 1.35659 1.81191 1.35611C1.63134 1.35415 1.45077 1.35364 1.27019 1.35301C1.13755 1.35233 1.00494 1.35092 0.872308 1.34946C0.831752 1.34959 0.791196 1.34972 0.74941 1.34986C0.486704 1.34687 0.285495 1.31895 0.0928283 1.1222C0.00155314 0.955067 0.0123316 0.785841 0.0431457 0.601538C0.115544 0.449935 0.214224 0.362944 0.369293 0.294851C0.555895 0.247646 0.729258 0.244661 0.920984 0.244864ZM5.28533 4.33982C5.31951 4.44924 5.35369 4.55866 5.38787 4.66807C5.39746 4.69879 5.40706 4.7295 5.41694 4.76114C5.75023 5.82791 6.10409 6.88766 6.45872 7.94746C6.51448 8.11409 6.57021 8.28072 6.62593 8.44736C6.63678 8.47983 6.64764 8.51231 6.65883 8.54576C6.87673 9.19766 7.09039 9.85091 7.30016 10.5055C7.40538 10.8327 7.51461 11.1558 7.64862 11.4726C8.19111 11.4424 8.73034 11.3878 9.27065 11.3315C9.36784 11.3214 9.46503 11.3114 9.56222 11.3014C9.82437 11.2743 10.0865 11.2471 10.3487 11.2199C10.568 11.1971 10.7873 11.1744 11.0067 11.1517C11.5536 11.095 12.1005 11.0382 12.6474 10.9813C13.1215 10.932 13.5956 10.883 14.0698 10.834C14.558 10.7835 15.0462 10.7329 15.5344 10.6822C15.8079 10.6538 16.0814 10.6254 16.355 10.5972C16.612 10.5707 16.869 10.5439 17.126 10.5171C17.2201 10.5073 17.3142 10.4975 17.4084 10.4879C17.5372 10.4746 17.666 10.4612 17.7948 10.4476C17.8317 10.4439 17.8686 10.4401 17.9067 10.4363C18.4963 10.3734 19.0067 10.2481 19.4221 9.79685C19.7891 9.33301 19.8774 8.74162 20.0102 8.18015C20.0359 8.07379 20.0618 7.96745 20.0877 7.86112C20.1408 7.64213 20.1935 7.42304 20.2458 7.20383C20.3221 6.88391 20.3999 6.56438 20.478 6.24488C20.5253 6.05031 20.5726 5.85571 20.6198 5.66111C20.6311 5.61467 20.6424 5.56824 20.654 5.5204C20.6857 5.38988 20.7171 5.2593 20.7484 5.1287C20.7577 5.09023 20.7671 5.05176 20.7768 5.01212C20.7852 4.9768 20.7936 4.94148 20.8022 4.90509C20.8096 4.87456 20.8169 4.84403 20.8245 4.81258C20.8451 4.71292 20.8451 4.71292 20.84 4.55466C20.0484 4.52349 19.2572 4.50238 18.4651 4.49104C18.3536 4.48935 18.2421 4.48765 18.1306 4.48594C17.8621 4.48185 17.5937 4.47789 17.3252 4.47398C17.1057 4.47079 16.8861 4.46754 16.6666 4.46427C16.635 4.4638 16.6033 4.46333 16.5707 4.46285C16.5064 4.46189 16.442 4.46093 16.3777 4.45997C15.7772 4.45103 15.1767 4.44226 14.5762 4.43354C14.0338 4.42565 13.4915 4.41756 12.9491 4.40937C12.3861 4.40087 11.823 4.39252 11.26 4.38431C10.9464 4.37974 10.6328 4.37512 10.3192 4.37034C8.64112 4.34481 6.96361 4.33478 5.28533 4.33982Z" fill="white"/>
<path d="M8.53223 17.5801C8.97771 17.9452 9.28241 18.4668 9.36743 19.0384C9.41316 19.8 9.2759 20.4046 8.77661 21.0015C8.31616 21.4941 7.74446 21.7253 7.0728 21.7483C6.38253 21.7355 5.857 21.4835 5.36328 21.0109C4.90309 20.5298 4.73315 19.9501 4.72681 19.2962C4.76571 18.7922 4.91493 18.3501 5.24243 17.9641C5.26182 17.9386 5.2812 17.9131 5.30118 17.8868C5.61153 17.4914 6.09153 17.2143 6.5842 17.1184C7.30627 17.036 7.93268 17.1531 8.53223 17.5801ZM6.01587 18.6946C5.83037 18.9441 5.77464 19.2479 5.80103 19.554C5.86765 19.9174 6.02708 20.2034 6.31464 20.4392C6.59022 20.6247 6.88595 20.7004 7.21899 20.6712C7.63337 20.5751 7.92677 20.4002 8.15457 20.0387C8.32903 19.7143 8.3364 19.3843 8.27626 19.0223C8.18849 18.7414 7.97064 18.491 7.72623 18.3327C7.09133 18.0094 6.46291 18.1564 6.01587 18.6946Z" fill="white"/>
<path d="M18.0901 17.4868C18.6276 17.9083 18.9865 18.4341 19.0784 19.1197C19.1236 19.8374 18.9533 20.4401 18.4892 20.9937C18.063 21.438 17.5 21.6979 16.887 21.7408C16.2461 21.7466 15.634 21.5576 15.1494 21.1239C14.6447 20.5927 14.4204 20.001 14.4287 19.2672C14.4693 18.6065 14.7773 18.0628 15.2542 17.6158C16.0447 16.96 17.2458 16.8888 18.0901 17.4868ZM15.7671 18.6201C15.5348 18.9606 15.4639 19.2645 15.512 19.6783C15.5984 20.0059 15.8052 20.2973 16.0936 20.4764C16.4084 20.6382 16.6924 20.7239 17.0453 20.6387C17.4641 20.5027 17.7208 20.2841 17.9221 19.8938C18.0589 19.5908 18.0488 19.244 17.9343 18.9344C17.7701 18.5804 17.5592 18.386 17.2025 18.2222C16.6714 18.0453 16.126 18.1869 15.7671 18.6201Z" fill="white"/>
</g>
<defs>
<clipPath id="clip0_641_1541">
<rect width="22" height="22" fill="white" transform="translate(0.0432129)"/>
</clipPath>
</defs>
</svg>
