<svg width="21" height="22" viewBox="0 0 21 22" fill="none" xmlns="http://www.w3.org/2000/svg">
<path fill-rule="evenodd" clip-rule="evenodd" d="M17.6126 10.2866C17.6126 14.8713 13.8941 18.5888 9.30628 18.5888C4.71843 18.5888 1 14.8713 1 10.2866C1 5.70181 4.71843 1.98437 9.30628 1.98437C13.8941 1.98437 17.6126 5.70181 17.6126 10.2866ZM15.5221 17.2097C13.8743 18.6889 11.6954 19.5888 9.30628 19.5888C4.16656 19.5888 0 15.424 0 10.2866C0 5.14911 4.16656 0.984375 9.30628 0.984375C14.446 0.984375 18.6126 5.14911 18.6126 10.2866C18.6126 12.6762 17.7111 14.8554 16.2296 16.5029L19.8967 20.169C20.092 20.3642 20.092 20.6808 19.8968 20.8761C19.7015 21.0714 19.385 21.0714 19.1897 20.8762L15.5221 17.2097Z" fill="white"/>
</svg>
